<svg  viewBox="0 0 24 24" fill="none" xmlns="http://www.w3.org/2000/svg">
<path d="M11 13V16C11 16.2833 11.096 16.521 11.288 16.713C11.48 16.905 11.7173 17.0007 12 17C12.2827 16.9993 12.5203 16.9033 12.713 16.712C12.9057 16.5207 13.0013 16.2833 13 16V13H16C16.2833 13 16.521 12.904 16.713 12.712C16.905 12.52 17.0007 12.2827 17 12C16.9993 11.7173 16.9033 11.48 16.712 11.288C16.5207 11.096 16.2833 11 16 11H13V8C13 7.71667 12.904 7.47933 12.712 7.288C12.52 7.09667 12.2827 7.00067 12 7C11.7173 6.99933 11.48 7.09533 11.288 7.288C11.096 7.48067 11 7.718 11 8V11H8C7.71667 11 7.47933 11.096 7.288 11.288C7.09667 11.48 7.00067 11.7173 7 12C6.99933 12.2827 7.09533 12.5203 7.288 12.713C7.48067 12.9057 7.718 13.0013 8 13H11ZM5 21C4.45 21 3.97933 20.8043 3.588 20.413C3.19667 20.0217 3.00067 19.5507 3 19V5C3 4.45 3.196 3.97933 3.588 3.588C3.98 3.19667 4.45067 3.00067 5 3H19C19.55 3 20.021 3.196 20.413 3.588C20.805 3.98 21.0007 4.45067 21 5V19C21 19.55 20.8043 20.021 20.413 20.413C20.0217 20.805 19.5507 21.0007 19 21H5Z" fill="currentColor"/>
</svg>
