<svg  viewBox="0 0 24 24" fill="none" xmlns="http://www.w3.org/2000/svg">
<path d="M6 19C5.16667 19 4.45833 18.7083 3.875 18.125C3.29167 17.5417 3 16.8333 3 16C2.45 16 1.97933 15.8043 1.588 15.413C1.19667 15.0217 1.00067 14.5507 1 14V7C1 6.45 1.196 5.97933 1.588 5.588C1.98 5.19667 2.45067 5.00067 3 5H16.175C16.4417 5 16.696 5.05 16.938 5.15C17.18 5.25 17.3923 5.39167 17.575 5.575L22.425 10.425C22.6083 10.6083 22.75 10.821 22.85 11.063C22.95 11.305 23 11.559 23 11.825V14C23 14.55 22.8043 15.021 22.413 15.413C22.0217 15.805 21.5507 16.0007 21 16C21 16.8333 20.7083 17.5417 20.125 18.125C19.5417 18.7083 18.8333 19 18 19C17.1667 19 16.4583 18.7083 15.875 18.125C15.2917 17.5417 15 16.8333 15 16H9C9 16.8333 8.70833 17.5417 8.125 18.125C7.54167 18.7083 6.83333 19 6 19ZM15 10H19L16 7H15V10ZM9 10H13V7H9V10ZM3 10H7V7H3V10ZM6 17.25C6.35 17.25 6.646 17.129 6.888 16.887C7.13 16.645 7.25067 16.3493 7.25 16C7.24933 15.6507 7.12833 15.3547 6.887 15.112C6.64567 14.8693 6.35 14.7487 6 14.75C5.65 14.7513 5.354 14.8723 5.112 15.113C4.87 15.3537 4.74933 15.6493 4.75 16C4.75067 16.3507 4.87167 16.6467 5.113 16.888C5.35433 17.1293 5.65 17.25 6 17.25ZM18 17.25C18.35 17.25 18.646 17.129 18.888 16.887C19.13 16.645 19.2507 16.3493 19.25 16C19.2493 15.6507 19.1283 15.3547 18.887 15.112C18.6457 14.8693 18.35 14.7487 18 14.75C17.65 14.7513 17.354 14.8723 17.112 15.113C16.87 15.3537 16.7493 15.6493 16.75 16C16.7507 16.3507 16.8717 16.6467 17.113 16.888C17.3543 17.1293 17.65 17.25 18 17.25ZM8.2 14H15.8C16.0833 13.7 16.4083 13.4583 16.775 13.275C17.1417 13.0917 17.55 13 18 13C18.45 13 18.8583 13.0917 19.225 13.275C19.5917 13.4583 19.9167 13.7 20.2 14H21V12H3V14H3.8C4.08333 13.7 4.40833 13.4583 4.775 13.275C5.14167 13.0917 5.55 13 6 13C6.45 13 6.85833 13.0917 7.225 13.275C7.59167 13.4583 7.91667 13.7 8.2 14Z" fill="currentColor"/>
</svg>
