<svg  viewBox="0 0 24 24" fill="none" xmlns="http://www.w3.org/2000/svg">
<path d="M11.9992 14.0002L9.99922 12.0002L11.9992 10.0002L13.9992 12.0002L11.9992 14.0002ZM9.87422 8.1252L7.37422 5.6252L10.5742 2.4252C10.7742 2.2252 10.9992 2.0752 11.2492 1.9752C11.4992 1.8752 11.7492 1.8252 11.9992 1.8252C12.2492 1.8252 12.4992 1.8752 12.7492 1.9752C12.9992 2.0752 13.2242 2.2252 13.4242 2.4252L16.6242 5.6252L14.1242 8.1252L11.9992 6.0002L9.87422 8.1252ZM5.62422 16.6252L2.42422 13.4252C2.22422 13.2252 2.07422 13.0002 1.97422 12.7502C1.87422 12.5002 1.82422 12.2502 1.82422 12.0002C1.82422 11.7502 1.87422 11.5002 1.97422 11.2502C2.07422 11.0002 2.22422 10.7752 2.42422 10.5752L5.62422 7.3752L8.12422 9.8752L5.99922 12.0002L8.12422 14.1252L5.62422 16.6252ZM18.3742 16.6252L15.8742 14.1252L17.9992 12.0002L15.8742 9.8752L18.3742 7.3752L21.5742 10.5752C21.7742 10.7752 21.9242 11.0002 22.0242 11.2502C22.1242 11.5002 22.1742 11.7502 22.1742 12.0002C22.1742 12.2502 22.1242 12.5002 22.0242 12.7502C21.9242 13.0002 21.7742 13.2252 21.5742 13.4252L18.3742 16.6252ZM10.5742 21.5752L7.37422 18.3752L9.87422 15.8752L11.9992 18.0002L14.1242 15.8752L16.6242 18.3752L13.4242 21.5752C13.2242 21.7752 12.9992 21.9252 12.7492 22.0252C12.4992 22.1252 12.2492 22.1752 11.9992 22.1752C11.7492 22.1752 11.4992 22.1252 11.2492 22.0252C10.9992 21.9252 10.7742 21.7752 10.5742 21.5752Z" fill="currentColor"/>
</svg>
