<svg viewBox="0 0 24 24" fill="none" xmlns="http://www.w3.org/2000/svg">
<path d="M8 9H16C16.2833 9 16.521 8.904 16.713 8.712C16.905 8.52 17.0007 8.28267 17 8C16.9993 7.71733 16.9033 7.48 16.712 7.288C16.5207 7.096 16.2833 7 16 7H8C7.71667 7 7.47933 7.096 7.288 7.288C7.09667 7.48 7.00067 7.71733 7 8C6.99933 8.28267 7.09533 8.52033 7.288 8.713C7.48067 8.90567 7.718 9.00133 8 9ZM5 21C4.45 21 3.97933 20.8043 3.588 20.413C3.19667 20.0217 3.00067 19.5507 3 19V5C3 4.45 3.196 3.97933 3.588 3.588C3.98 3.19667 4.45067 3.00067 5 3H19C19.55 3 20.021 3.196 20.413 3.588C20.805 3.98 21.0007 4.45067 21 5V9.65C21 9.93333 20.8667 10.125 20.6 10.225C20.3333 10.325 20.0917 10.2667 19.875 10.05C19.475 9.71667 19.029 9.45833 18.537 9.275C18.045 9.09167 17.5327 9 17 9C16.25 9 15.55 9.175 14.9 9.525C14.25 9.875 13.7083 10.3667 13.275 11H8C7.71667 11 7.47933 11.096 7.288 11.288C7.09667 11.48 7.00067 11.7173 7 12C6.99933 12.2827 7.09533 12.5203 7.288 12.713C7.48067 12.9057 7.718 13.0013 8 13H12.525C12.4917 13.3333 12.4917 13.6667 12.525 14C12.5583 14.3333 12.6333 14.6667 12.75 15H8C7.71667 15 7.47933 15.096 7.288 15.288C7.09667 15.48 7.00067 15.7173 7 16C6.99933 16.2827 7.09533 16.5203 7.288 16.713C7.48067 16.9057 7.718 17.0013 8 17H10.925C10.6083 17.3667 10.375 17.771 10.225 18.213C10.075 18.655 10 19.1173 10 19.6V20C10 20.2833 9.90433 20.5207 9.713 20.712C9.52167 20.9033 9.284 20.9993 9 21H5ZM13 21C12.7167 21 12.4793 20.904 12.288 20.712C12.0967 20.52 12.0007 20.2827 12 20V19.6C12 19.2 12.1043 18.8293 12.313 18.488C12.5217 18.1467 12.8173 17.9007 13.2 17.75C13.8 17.5 14.421 17.3127 15.063 17.188C15.705 17.0633 16.3507 17.0007 17 17C17.6493 16.9993 18.2953 17.062 18.938 17.188C19.5807 17.314 20.2013 17.5013 20.8 17.75C21.1833 17.9 21.4793 18.146 21.688 18.488C21.8967 18.83 22.0007 19.2007 22 19.6V20C22 20.2833 21.904 20.521 21.712 20.713C21.52 20.905 21.2827 21.0007 21 21H13ZM17 16C16.3 16 15.7083 15.7583 15.225 15.275C14.7417 14.7917 14.5 14.2 14.5 13.5C14.5 12.8 14.7417 12.2083 15.225 11.725C15.7083 11.2417 16.3 11 17 11C17.7 11 18.2917 11.2417 18.775 11.725C19.2583 12.2083 19.5 12.8 19.5 13.5C19.5 14.2 19.2583 14.7917 18.775 15.275C18.2917 15.7583 17.7 16 17 16Z" fill="currentColor"/>
</svg>
