<svg viewBox="0 0 24 24" fill="none" xmlns="http://www.w3.org/2000/svg">
<path d="M9 15C7.33333 15 5.91667 14.4167 4.75 13.25C3.58333 12.0833 3 10.6667 3 9C3 8.66667 3.025 8.33333 3.075 8C3.125 7.66667 3.21667 7.35 3.35 7.05C3.43333 6.88333 3.53767 6.75833 3.663 6.675C3.78833 6.59167 3.92567 6.53333 4.075 6.5C4.22433 6.46667 4.37867 6.471 4.538 6.513C4.69733 6.555 4.843 6.64233 4.975 6.775L7.6 9.4L9.4 7.6L6.775 4.975C6.64167 4.84167 6.55433 4.696 6.513 4.538C6.47167 4.38 6.46733 4.22567 6.5 4.075C6.53267 3.92433 6.591 3.78667 6.675 3.662C6.759 3.53733 6.884 3.43333 7.05 3.35C7.35 3.21667 7.66667 3.125 8 3.075C8.33333 3.025 8.66667 3 9 3C10.6667 3 12.0833 3.58333 13.25 4.75C14.4167 5.91667 15 7.33333 15 9C15 9.38333 14.9667 9.746 14.9 10.088C14.8333 10.43 14.7333 10.7673 14.6 11.1L19.65 16.1C20.1333 16.5833 20.375 17.175 20.375 17.875C20.375 18.575 20.1333 19.1667 19.65 19.65C19.1667 20.1333 18.575 20.375 17.875 20.375C17.175 20.375 16.5833 20.125 16.1 19.625L11.1 14.6C10.7667 14.7333 10.4293 14.8333 10.088 14.9C9.74667 14.9667 9.384 15 9 15Z" fill="currentColor"/>
</svg>
