<svg viewBox="0 0 24 24" fill="none" xmlns="http://www.w3.org/2000/svg">
<path d="M15.5 16.9L16.9 15.5C17 15.4 17.05 15.2833 17.05 15.15C17.05 15.0167 17 14.9 16.9 14.8L13.5 11.375C13.5667 11.1917 13.6167 11.0083 13.65 10.825C13.6833 10.6417 13.7 10.4333 13.7 10.2C13.7 9.25 13.3627 8.43767 12.688 7.763C12.0133 7.08833 11.2007 6.75067 10.25 6.75C10.0667 6.75 9.89167 6.75833 9.725 6.775C9.55834 6.79167 9.39167 6.83333 9.225 6.9C9.075 6.96667 8.98333 7.08333 8.95 7.25C8.91667 7.41667 8.95833 7.55833 9.075 7.675L10.925 9.525L9.525 10.925L7.675 9.075C7.55833 8.95833 7.41667 8.91667 7.25 8.95C7.08333 8.98333 6.96667 9.075 6.9 9.225C6.85 9.39167 6.81234 9.55833 6.787 9.725C6.76167 9.89167 6.74933 10.0667 6.75 10.25C6.75 11.2 7.08767 12.0127 7.763 12.688C8.43833 13.3633 9.25067 13.7007 10.2 13.7C10.4167 13.7 10.621 13.6833 10.813 13.65C11.005 13.6167 11.1923 13.5667 11.375 13.5L14.8 16.9C14.9 17 15.0167 17.05 15.15 17.05C15.2833 17.05 15.4 17 15.5 16.9ZM12 22C10.6167 22 9.31667 21.7373 8.1 21.212C6.88334 20.6867 5.825 19.9743 4.925 19.075C4.025 18.1757 3.31267 17.1173 2.788 15.9C2.26333 14.6827 2.00067 13.3827 2 12C1.99933 10.6173 2.262 9.31733 2.788 8.1C3.314 6.88267 4.02633 5.82433 4.925 4.925C5.82367 4.02567 6.882 3.31333 8.1 2.788C9.318 2.26267 10.618 2 12 2C13.382 2 14.682 2.26267 15.9 2.788C17.118 3.31333 18.1763 4.02567 19.075 4.925C19.9737 5.82433 20.6863 6.88267 21.213 8.1C21.7397 9.31733 22.002 10.6173 22 12C21.998 13.3827 21.7353 14.6827 21.212 15.9C20.6887 17.1173 19.9763 18.1757 19.075 19.075C18.1737 19.9743 17.1153 20.687 15.9 21.213C14.6847 21.739 13.3847 22.0013 12 22Z" fill="currentColor"/>
</svg>
