<svg viewBox="0 0 24 24" fill="none" xmlns="http://www.w3.org/2000/svg">
<path d="M18 7.5C18.4167 7.5 18.771 7.35433 19.063 7.063C19.355 6.77167 19.5007 6.41733 19.5 6C19.4993 5.58267 19.3537 5.22867 19.063 4.938C18.7723 4.64733 18.418 4.50133 18 4.5C17.582 4.49867 17.228 4.64467 16.938 4.938C16.648 5.23133 16.502 5.58533 16.5 6C16.498 6.41467 16.644 6.769 16.938 7.063C17.232 7.357 17.586 7.50267 18 7.5ZM17.85 10C17.7 10 17.5667 9.95433 17.45 9.863C17.3333 9.77167 17.2583 9.65067 17.225 9.5L17.05 8.825C16.8667 8.75833 16.6877 8.675 16.513 8.575C16.3383 8.475 16.1757 8.35833 16.025 8.225L15.35 8.45C15.2167 8.5 15.0793 8.496 14.938 8.438C14.7967 8.38 14.684 8.284 14.6 8.15L14.45 7.875C14.3667 7.74167 14.3377 7.6 14.363 7.45C14.3883 7.3 14.459 7.175 14.575 7.075L15.075 6.6C15.0417 6.4 15.025 6.2 15.025 6C15.025 5.8 15.0417 5.6 15.075 5.4L14.575 4.95C14.4583 4.85 14.3877 4.725 14.363 4.575C14.3383 4.425 14.3673 4.28333 14.45 4.15L14.625 3.875C14.7083 3.74167 14.8167 3.65 14.95 3.6C15.0833 3.55 15.2167 3.54167 15.35 3.575L16 3.775C16.15 3.64167 16.3127 3.525 16.488 3.425C16.6633 3.325 16.8507 3.24167 17.05 3.175L17.225 2.5C17.2583 2.35 17.3333 2.22933 17.45 2.138C17.5667 2.04667 17.7 2.00067 17.85 2H18.15C18.3 2 18.4333 2.046 18.55 2.138C18.6667 2.23 18.7417 2.35067 18.775 2.5L18.95 3.15C19.15 3.23333 19.3377 3.325 19.513 3.425C19.6883 3.525 19.8507 3.64167 20 3.775L20.65 3.6C20.7833 3.56667 20.9167 3.575 21.05 3.625C21.1833 3.675 21.2917 3.76667 21.375 3.9L21.55 4.15C21.6333 4.28333 21.6627 4.425 21.638 4.575C21.6133 4.725 21.5423 4.85 21.425 4.95L20.95 5.4C20.9833 5.6 21.0043 5.80433 21.013 6.013C21.0217 6.22167 21.0007 6.42567 20.95 6.625L21.425 7.075C21.5417 7.175 21.6127 7.3 21.638 7.45C21.6633 7.6 21.634 7.74167 21.55 7.875L21.4 8.125C21.3167 8.25833 21.2043 8.35 21.063 8.4C20.9217 8.45 20.784 8.45833 20.65 8.425L20 8.225C19.85 8.35833 19.6833 8.475 19.5 8.575C19.3167 8.675 19.1333 8.75833 18.95 8.825L18.775 9.5C18.7417 9.65 18.6667 9.771 18.55 9.863C18.4333 9.955 18.3 10.0007 18.15 10H17.85ZM4 21C3.71667 21 3.47933 20.904 3.288 20.712C3.09667 20.52 3.00067 20.2827 3 20V12.35C3 12.2333 3.00833 12.1167 3.025 12C3.04167 11.8833 3.06667 11.775 3.1 11.675L5.1 6C5.2 5.7 5.37933 5.45833 5.638 5.275C5.89667 5.09167 6.184 5 6.5 5H11.075C11.3583 5 11.596 5.096 11.788 5.288C11.98 5.48 12.0757 5.71733 12.075 6C12.0743 6.28267 11.9787 6.52033 11.788 6.713C11.5973 6.90567 11.3597 7.00133 11.075 7H6.85L5.8 10H14.775C15.0583 10 15.296 10.096 15.488 10.288C15.68 10.48 15.7757 10.7173 15.775 11C15.7743 11.2827 15.6783 11.5203 15.487 11.713C15.2957 11.9057 15.0583 12.0013 14.775 12H5V17H19V12.175C19 11.8917 19.096 11.6543 19.288 11.463C19.48 11.2717 19.7173 11.1757 20 11.175C20.2827 11.1743 20.5203 11.2703 20.713 11.463C20.9057 11.6557 21.0013 11.893 21 12.175V20C21 20.2833 20.904 20.521 20.712 20.713C20.52 20.905 20.2827 21.0007 20 21H19C18.7167 21 18.4793 20.904 18.288 20.712C18.0967 20.52 18.0007 20.2827 18 20V19H6V20C6 20.2833 5.904 20.521 5.712 20.713C5.52 20.905 5.28267 21.0007 5 21H4ZM7.5 16C7.91667 16 8.271 15.8543 8.563 15.563C8.855 15.2717 9.00067 14.9173 9 14.5C8.99933 14.0827 8.85367 13.7287 8.563 13.438C8.27233 13.1473 7.918 13.0013 7.5 13C7.082 12.9987 6.728 13.1447 6.438 13.438C6.148 13.7313 6.002 14.0853 6 14.5C5.998 14.9147 6.144 15.269 6.438 15.563C6.732 15.857 7.086 16.0027 7.5 16ZM16.5 16C16.9167 16 17.271 15.8543 17.563 15.563C17.855 15.2717 18.0007 14.9173 18 14.5C17.9993 14.0827 17.8537 13.7287 17.563 13.438C17.2723 13.1473 16.918 13.0013 16.5 13C16.082 12.9987 15.728 13.1447 15.438 13.438C15.148 13.7313 15.002 14.0853 15 14.5C14.998 14.9147 15.144 15.269 15.438 15.563C15.732 15.857 16.086 16.0027 16.5 16Z" fill="currentColor"/>
</svg>
