<svg viewBox="0 0 24 24" fill="none" xmlns="http://www.w3.org/2000/svg">
<path d="M17 8C17.1333 8 17.25 7.95 17.35 7.85C17.45 7.75 17.5 7.63333 17.5 7.5V4.5C17.5 4.36667 17.45 4.25 17.35 4.15C17.25 4.05 17.1333 4 17 4C16.8667 4 16.75 4.05 16.65 4.15C16.55 4.25 16.5 4.36667 16.5 4.5V7.5C16.5 7.63333 16.55 7.75 16.65 7.85C16.75 7.95 16.8667 8 17 8ZM17 10C17.1333 10 17.25 9.95 17.35 9.85C17.45 9.75 17.5 9.63333 17.5 9.5C17.5 9.36667 17.45 9.25 17.35 9.15C17.25 9.05 17.1333 9 17 9C16.8667 9 16.75 9.05 16.65 9.15C16.55 9.25 16.5 9.36667 16.5 9.5C16.5 9.63333 16.55 9.75 16.65 9.85C16.75 9.95 16.8667 10 17 10ZM15.5 17C15.9167 17 16.271 16.8543 16.563 16.563C16.855 16.2717 17.0007 15.9173 17 15.5C16.9993 15.0827 16.8537 14.7287 16.563 14.438C16.2723 14.1473 15.918 14.0013 15.5 14C15.082 13.9987 14.728 14.1447 14.438 14.438C14.148 14.7313 14.002 15.0853 14 15.5C13.998 15.9147 14.144 16.269 14.438 16.563C14.732 16.857 15.086 17.0027 15.5 17ZM6.5 17C6.91667 17 7.271 16.8543 7.563 16.563C7.855 16.2717 8.00067 15.9173 8 15.5C7.99933 15.0827 7.85367 14.7287 7.563 14.438C7.27233 14.1473 6.918 14.0013 6.5 14C6.082 13.9987 5.728 14.1447 5.438 14.438C5.148 14.7313 5.002 15.0853 5 15.5C4.998 15.9147 5.144 16.269 5.438 16.563C5.732 16.857 6.086 17.0027 6.5 17ZM17 12C15.6167 12 14.4377 11.5123 13.463 10.537C12.4883 9.56167 12.0007 8.38267 12 7C12 5.63333 12.4833 4.45833 13.45 3.475C14.4167 2.49167 15.6 2 17 2C18.3833 2 19.5627 2.48733 20.538 3.462C21.5133 4.43667 22.0007 5.616 22 7C21.9993 8.384 21.5117 9.56333 20.537 10.538C19.5623 11.5127 18.3833 12 17 12ZM3.5 22C3.08333 22 2.72933 21.8543 2.438 21.563C2.14667 21.2717 2.00067 20.9173 2 20.5V13.35C2 13.2333 2.00833 13.1167 2.025 13C2.04167 12.8833 2.06667 12.775 2.1 12.675L4.1 7C4.2 6.7 4.37933 6.45833 4.638 6.275C4.89667 6.09167 5.184 6 5.5 6H8.975C9.25833 6 9.496 6.096 9.688 6.288C9.88 6.48 9.97567 6.71733 9.975 7C9.97433 7.28267 9.87867 7.52033 9.688 7.713C9.49733 7.90567 9.25967 8.00133 8.975 8H5.85L4.8 11H10.775C10.925 11 11.071 11.0333 11.213 11.1C11.355 11.1667 11.4757 11.2667 11.575 11.4C12.2417 12.2167 13.046 12.8543 13.988 13.313C14.93 13.7717 15.934 14.0007 17 14C17.3167 14 17.625 13.9793 17.925 13.938C18.225 13.8967 18.525 13.834 18.825 13.75C19.1083 13.6667 19.375 13.7127 19.625 13.888C19.875 14.0633 20 14.2923 20 14.575V20.5C20 20.9167 19.8543 21.271 19.563 21.563C19.2717 21.855 18.9173 22.0007 18.5 22C18.0827 21.9993 17.7287 21.8537 17.438 21.563C17.1473 21.2723 17.0013 20.918 17 20.5V20H5V20.5C5 20.9167 4.85433 21.271 4.563 21.563C4.27167 21.855 3.91733 22.0007 3.5 22Z" fill="currentColor"/>
</svg>
