<svg viewBox="0 0 24 24" fill="none" xmlns="http://www.w3.org/2000/svg">
<path d="M17 16C16.1667 16 15.4583 15.7083 14.875 15.125C14.2917 14.5417 14 13.8333 14 13C14 12.1667 14.2917 11.4583 14.875 10.875C15.4583 10.2917 16.1667 10 17 10C17.8333 10 18.5417 10.2917 19.125 10.875C19.7083 11.4583 20 12.1667 20 13C20 13.8333 19.7083 14.5417 19.125 15.125C18.5417 15.7083 17.8333 16 17 16ZM9 20.1V21H5C4.45 21 3.97933 20.8043 3.588 20.413C3.19667 20.0217 3.00067 19.5507 3 19V5C3 4.45 3.196 3.97933 3.588 3.588C3.98 3.19667 4.45067 3.00067 5 3H19C19.55 3 20.021 3.196 20.413 3.588C20.805 3.98 21.0007 4.45067 21 5V10C20.4833 9.35 19.9 8.85433 19.25 8.513C18.6 8.17167 17.85 8.00067 17 8C17 7.71667 16.904 7.47933 16.712 7.288C16.52 7.09667 16.2827 7.00067 16 7H8C7.71667 7 7.47933 7.096 7.288 7.288C7.09667 7.48 7.00067 7.71733 7 8C6.99933 8.28267 7.09533 8.52033 7.288 8.713C7.48067 8.90567 7.718 9.00133 8 9H14C13.6667 9.26667 13.3667 9.56667 13.1 9.9C12.8333 10.2333 12.6083 10.6 12.425 11H8C7.71667 11 7.47933 11.096 7.288 11.288C7.09667 11.48 7.00067 11.7173 7 12C6.99933 12.2827 7.09533 12.5203 7.288 12.713C7.48067 12.9057 7.718 13.0013 8 13H12C12 13.35 12.0377 13.6917 12.113 14.025C12.1883 14.3583 12.2923 14.6833 12.425 15H8C7.71667 15 7.47933 15.096 7.288 15.288C7.09667 15.48 7.00067 15.7173 7 16C6.99933 16.2827 7.09533 16.5203 7.288 16.713C7.48067 16.9057 7.718 17.0013 8 17H10.45C10 17.3833 9.646 17.846 9.388 18.388C9.13 18.93 9.00067 19.5007 9 20.1ZM12 23C11.7167 23 11.4793 22.904 11.288 22.712C11.0967 22.52 11.0007 22.2827 11 22V20.1C11 19.75 11.0833 19.421 11.25 19.113C11.4167 18.805 11.65 18.559 11.95 18.375C12.4833 18.0583 12.9333 17.8373 13.3 17.712C13.6667 17.5867 14.1583 17.4743 14.775 17.375C14.975 17.3417 15.175 17.346 15.375 17.388C15.575 17.43 15.7417 17.5257 15.875 17.675L17 19L18.1 17.675C18.2333 17.5083 18.4 17.4083 18.6 17.375C18.8 17.3417 19 17.3417 19.2 17.375C19.8167 17.475 20.3083 17.5877 20.675 17.713C21.0417 17.8383 21.4917 18.059 22.025 18.375C22.325 18.5583 22.5627 18.8043 22.738 19.113C22.9133 19.4217 23.0007 19.7507 23 20.1V22C23 22.2833 22.904 22.521 22.712 22.713C22.52 22.905 22.2827 23.0007 22 23H12Z" fill="currentColor"/>
</svg>
