<svg viewBox="0 0 24 24" fill="none" xmlns="http://www.w3.org/2000/svg">
<path d="M18 23C16.6167 23 15.4377 22.5123 14.463 21.537C13.4883 20.5617 13.0007 19.3827 13 18C12.9993 16.6173 13.487 15.4383 14.463 14.463C15.439 13.4877 16.618 13 18 13C19.382 13 20.5613 13.4877 21.538 14.463C22.5147 15.4383 23.002 16.6173 23 18C22.998 19.3827 22.5103 20.562 21.537 21.538C20.5637 22.514 19.3847 23.0013 18 23ZM8 9H16C16.2833 9 16.521 8.904 16.713 8.712C16.905 8.52 17.0007 8.28267 17 8C16.9993 7.71733 16.9033 7.48 16.712 7.288C16.5207 7.096 16.2833 7 16 7H8C7.71667 7 7.47933 7.096 7.288 7.288C7.09667 7.48 7.00067 7.71733 7 8C6.99933 8.28267 7.09533 8.52033 7.288 8.713C7.48067 8.90567 7.718 9.00133 8 9ZM5 21C4.45 21 3.97933 20.8043 3.588 20.413C3.19667 20.0217 3.00067 19.5507 3 19V5C3 4.45 3.196 3.97933 3.588 3.588C3.98 3.19667 4.45067 3.00067 5 3H19C19.55 3 20.021 3.196 20.413 3.588C20.805 3.98 21.0007 4.45067 21 5V10.45C21 10.75 20.875 10.9833 20.625 11.15C20.375 11.3167 20.1083 11.35 19.825 11.25C19.5417 11.1667 19.2457 11.104 18.937 11.062C18.6283 11.02 18.316 10.9993 18 11C17.8167 11 17.6457 11.0043 17.487 11.013C17.3283 11.0217 17.166 11.0423 17 11.075C16.85 11.0417 16.6833 11.021 16.5 11.013C16.3167 11.005 16.15 11.0007 16 11H8C7.71667 11 7.47933 11.096 7.288 11.288C7.09667 11.48 7.00067 11.7173 7 12C6.99933 12.2827 7.09533 12.5203 7.288 12.713C7.48067 12.9057 7.718 13.0013 8 13H13.125C12.825 13.2833 12.5543 13.5917 12.313 13.925C12.0717 14.2583 11.859 14.6167 11.675 15H8C7.71667 15 7.47933 15.096 7.288 15.288C7.09667 15.48 7.00067 15.7173 7 16C6.99933 16.2827 7.09533 16.5203 7.288 16.713C7.48067 16.9057 7.718 17.0013 8 17H11.075C11.0417 17.1667 11.021 17.3293 11.013 17.488C11.005 17.6467 11.0007 17.8173 11 18C11 18.3333 11.0167 18.65 11.05 18.95C11.0833 19.25 11.1417 19.5417 11.225 19.825C11.3083 20.1083 11.2667 20.375 11.1 20.625C10.9333 20.875 10.7083 21 10.425 21H5ZM18 18C18.4167 18 18.771 17.8543 19.063 17.563C19.355 17.2717 19.5007 16.9173 19.5 16.5C19.4993 16.0827 19.3537 15.7287 19.063 15.438C18.7723 15.1473 18.418 15.0013 18 15C17.582 14.9987 17.228 15.1447 16.938 15.438C16.648 15.7313 16.502 16.0853 16.5 16.5C16.498 16.9147 16.644 17.269 16.938 17.563C17.232 17.857 17.586 18.0027 18 18ZM18 21C18.4167 21 18.8083 20.9207 19.175 20.762C19.5417 20.6033 19.8667 20.3743 20.15 20.075C20.2333 19.975 20.2667 19.8627 20.25 19.738C20.2333 19.6133 20.1583 19.5173 20.025 19.45C19.7083 19.3 19.3793 19.1877 19.038 19.113C18.6967 19.0383 18.3507 19.0007 18 19C17.6493 18.9993 17.3037 19.037 16.963 19.113C16.6223 19.189 16.293 19.3013 15.975 19.45C15.8417 19.5 15.7667 19.5917 15.75 19.725C15.7333 19.8583 15.7667 19.975 15.85 20.075C16.1333 20.375 16.4583 20.6043 16.825 20.763C17.1917 20.9217 17.5833 21.0007 18 21Z" fill="currentColor"/>
</svg>
