<svg viewBox="0 0 24 24" fill="none" xmlns="http://www.w3.org/2000/svg">
<path d="M4 20C3.45 20 2.97933 19.8043 2.588 19.413C2.19667 19.0217 2.00067 18.5507 2 18V6C2 5.45 2.196 4.97933 2.588 4.588C2.98 4.19667 3.45067 4.00067 4 4H20C20.55 4 21.021 4.196 21.413 4.588C21.805 4.98 22.0007 5.45067 22 6V11.475C22 11.775 21.871 12.0127 21.613 12.188C21.355 12.3633 21.084 12.3923 20.8 12.275C20.5167 12.1917 20.2293 12.125 19.938 12.075C19.6467 12.025 19.3423 12 19.025 12C18.8417 12 18.6667 12.0043 18.5 12.013C18.3333 12.0217 18.1667 12.0423 18 12.075V10C18 9.45 17.8043 8.97933 17.413 8.588C17.0217 8.19667 16.5507 8.00067 16 8H9.75C9.53333 8 9.35433 8.071 9.213 8.213C9.07167 8.355 9.00067 8.534 9 8.75C8.99933 8.966 9.07033 9.14533 9.213 9.288C9.35567 9.43067 9.53467 9.50133 9.75 9.5H16C16.1333 9.5 16.25 9.55 16.35 9.65C16.45 9.75 16.5 9.86667 16.5 10V12.55C16.2167 12.6833 15.954 12.8293 15.712 12.988C15.47 13.1467 15.2327 13.3257 15 13.525V12C15 11.7167 14.904 11.4793 14.712 11.288C14.52 11.0967 14.2827 11.0007 14 11H7C6.71667 11 6.47933 11.096 6.288 11.288C6.09667 11.48 6.00067 11.7173 6 12V15C6 15.2833 6.096 15.521 6.288 15.713C6.48 15.905 6.71733 16.0007 7 16H13.35C13.1667 16.4833 13.0543 16.9833 13.013 17.5C12.9717 18.0167 12.9923 18.525 13.075 19.025C13.1083 19.275 13.05 19.5 12.9 19.7C12.75 19.9 12.5583 20 12.325 20H4ZM18 19H16C15.7167 19 15.4793 18.904 15.288 18.712C15.0967 18.52 15.0007 18.2827 15 18C14.9993 17.7173 15.0953 17.48 15.288 17.288C15.4807 17.096 15.718 17 16 17H18V15C18 14.7167 18.096 14.4793 18.288 14.288C18.48 14.0967 18.7173 14.0007 19 14C19.2827 13.9993 19.5203 14.0953 19.713 14.288C19.9057 14.4807 20.0013 14.718 20 15V17H22C22.2833 17 22.521 17.096 22.713 17.288C22.905 17.48 23.0007 17.7173 23 18C22.9993 18.2827 22.9033 18.5203 22.712 18.713C22.5207 18.9057 22.2833 19.0013 22 19H20V21C20 21.2833 19.904 21.521 19.712 21.713C19.52 21.905 19.2827 22.0007 19 22C18.7173 21.9993 18.48 21.9033 18.288 21.712C18.096 21.5207 18 21.2833 18 21V19Z" fill="currentColor"/>
</svg>
