<svg viewBox="0 0 24 24" fill="none" xmlns="http://www.w3.org/2000/svg">
<path d="M6 19V20C6 20.2833 5.904 20.521 5.712 20.713C5.52 20.905 5.28267 21.0007 5 21H4C3.71667 21 3.47933 20.904 3.288 20.712C3.09667 20.52 3.00067 20.2827 3 20V12L5.1 6C5.2 5.7 5.37933 5.45833 5.638 5.275C5.89667 5.09167 6.184 5 6.5 5H17.5C17.8167 5 18.1043 5.09167 18.363 5.275C18.6217 5.45833 18.8007 5.7 18.9 6L21 12V20C21 20.2833 20.9043 20.521 20.713 20.713C20.5217 20.905 20.284 21.0007 20 21H19C18.7167 21 18.4793 20.904 18.288 20.712C18.0967 20.52 18.0007 20.2827 18 20V19H6ZM5.8 10H18.2L17.15 7H6.85L5.8 10ZM7.5 16C7.91667 16 8.271 15.8543 8.563 15.563C8.855 15.2717 9.00067 14.9173 9 14.5C8.99933 14.0827 8.85367 13.7287 8.563 13.438C8.27233 13.1473 7.918 13.0013 7.5 13C7.082 12.9987 6.728 13.1447 6.438 13.438C6.148 13.7313 6.002 14.0853 6 14.5C5.998 14.9147 6.144 15.269 6.438 15.563C6.732 15.857 7.086 16.0027 7.5 16ZM16.5 16C16.9167 16 17.271 15.8543 17.563 15.563C17.855 15.2717 18.0007 14.9173 18 14.5C17.9993 14.0827 17.8537 13.7287 17.563 13.438C17.2723 13.1473 16.918 13.0013 16.5 13C16.082 12.9987 15.728 13.1447 15.438 13.438C15.148 13.7313 15.002 14.0853 15 14.5C14.998 14.9147 15.144 15.269 15.438 15.563C15.732 15.857 16.086 16.0027 16.5 16ZM5 17H19V12H5V17Z" fill="currentColor"/>
</svg>
