<svg viewBox="0 0 24 24" fill="none" xmlns="http://www.w3.org/2000/svg">
<path d="M14.8254 10.9998C14.6754 10.5665 14.4464 10.1875 14.1384 9.8628C13.8304 9.53814 13.4594 9.30047 13.0254 9.1498V2.0498C15.4087 2.28314 17.4381 3.23747 19.1134 4.9128C20.7887 6.58814 21.7427 8.61714 21.9754 10.9998H14.8254ZM11.0254 21.9498C8.45872 21.6998 6.31706 20.6248 4.60039 18.7248C2.88372 16.8248 2.02539 14.5831 2.02539 11.9998C2.02539 9.41647 2.88372 7.1748 4.60039 5.2748C6.31706 3.3748 8.45872 2.2998 11.0254 2.0498V9.1498C10.4254 9.36647 9.94206 9.73747 9.57539 10.2628C9.20872 10.7881 9.02539 11.3671 9.02539 11.9998C9.02539 12.6325 9.20872 13.2035 9.57539 13.7128C9.94206 14.2221 10.4254 14.5845 11.0254 14.7998V21.9498ZM13.0254 21.9498V14.7998C13.4587 14.6498 13.8297 14.4208 14.1384 14.1128C14.4471 13.8048 14.6761 13.4338 14.8254 12.9998H21.9754C21.7421 15.3831 20.7877 17.4125 19.1124 19.0878C17.4371 20.7631 15.4081 21.7171 13.0254 21.9498Z" fill="currentColor"/>
</svg>
