<svg viewBox="0 0 24 24" fill="none" xmlns="http://www.w3.org/2000/svg">
<path d="M6 15V16C6 16.2833 5.904 16.521 5.712 16.713C5.52 16.905 5.28267 17.0007 5 17H4C3.71667 17 3.47933 16.904 3.288 16.712C3.09667 16.52 3.00067 16.2827 3 16V8L5.1 2C5.2 1.7 5.37933 1.45833 5.638 1.275C5.89667 1.09167 6.184 1 6.5 1H17.5C17.8167 1 18.1043 1.09167 18.363 1.275C18.6217 1.45833 18.8007 1.7 18.9 2L21 8V16C21 16.2833 20.9043 16.521 20.713 16.713C20.5217 16.905 20.284 17.0007 20 17H19C18.7167 17 18.4793 16.904 18.288 16.712C18.0967 16.52 18.0007 16.2827 18 16V15H6ZM5.8 6H18.2L17.15 3H6.85L5.8 6ZM7.5 12C7.91667 12 8.271 11.8543 8.563 11.563C8.855 11.2717 9.00067 10.9173 9 10.5C8.99933 10.0827 8.85367 9.72867 8.563 9.438C8.27233 9.14733 7.918 9.00133 7.5 9C7.082 8.99867 6.728 9.14467 6.438 9.438C6.148 9.73133 6.002 10.0853 6 10.5C5.998 10.9147 6.144 11.269 6.438 11.563C6.732 11.857 7.086 12.0027 7.5 12ZM16.5 12C16.9167 12 17.271 11.8543 17.563 11.563C17.855 11.2717 18.0007 10.9173 18 10.5C17.9993 10.0827 17.8537 9.72867 17.563 9.438C17.2723 9.14733 16.918 9.00133 16.5 9C16.082 8.99867 15.728 9.14467 15.438 9.438C15.148 9.73133 15.002 10.0853 15 10.5C14.998 10.9147 15.144 11.269 15.438 11.563C15.732 11.857 16.086 12.0027 16.5 12ZM13 23L7 20H11V18L17 21H13V23Z" fill="currentColor"/>
</svg>
