<svg viewBox="0 0 24 24" fill="none" xmlns="http://www.w3.org/2000/svg">
<path d="M6 15V15.5C6 15.9167 5.85433 16.271 5.563 16.563C5.27167 16.855 4.91733 17.0007 4.5 17C4.08267 16.9993 3.72867 16.8537 3.438 16.563C3.14733 16.2723 3.00133 15.918 3 15.5V8.35C3 8.23333 3.00833 8.11667 3.025 8C3.04167 7.88333 3.06667 7.775 3.1 7.675L4.975 2.35C5.10833 1.95 5.35 1.625 5.7 1.375C6.05 1.125 6.44167 1 6.875 1H17.125C17.5583 1 17.95 1.125 18.3 1.375C18.65 1.625 18.8917 1.95 19.025 2.35L20.9 7.675C20.9333 7.775 20.9583 7.88333 20.975 8C20.9917 8.11667 21 8.23333 21 8.35V15.5C21 15.9167 20.8543 16.271 20.563 16.563C20.2717 16.855 19.9173 17.0007 19.5 17C19.0827 16.9993 18.7287 16.8537 18.438 16.563C18.1473 16.2723 18.0013 15.918 18 15.5V15H6ZM5.8 6H18.2L17.15 3H6.85L5.8 6ZM7.5 12C7.91667 12 8.271 11.8543 8.563 11.563C8.855 11.2717 9.00067 10.9173 9 10.5C8.99933 10.0827 8.85367 9.72867 8.563 9.438C8.27233 9.14733 7.918 9.00133 7.5 9C7.082 8.99867 6.728 9.14467 6.438 9.438C6.148 9.73133 6.002 10.0853 6 10.5C5.998 10.9147 6.144 11.269 6.438 11.563C6.732 11.857 7.086 12.0027 7.5 12ZM16.5 12C16.9167 12 17.271 11.8543 17.563 11.563C17.855 11.2717 18.0007 10.9173 18 10.5C17.9993 10.0827 17.8537 9.72867 17.563 9.438C17.2723 9.14733 16.918 9.00133 16.5 9C16.082 8.99867 15.728 9.14467 15.438 9.438C15.148 9.73133 15.002 10.0853 15 10.5C14.998 10.9147 15.144 11.269 15.438 11.563C15.732 11.857 16.086 12.0027 16.5 12ZM13 21V22.2C13 22.3833 12.9207 22.525 12.762 22.625C12.6033 22.725 12.441 22.7333 12.275 22.65L7.95 20.475C7.83333 20.4083 7.78733 20.3123 7.812 20.187C7.83667 20.0617 7.916 19.9993 8.05 20H11V18.8C11 18.6167 11.0793 18.475 11.238 18.375C11.3967 18.275 11.559 18.2667 11.725 18.35L16.05 20.525C16.1667 20.5917 16.2127 20.6877 16.188 20.813C16.1633 20.9383 16.084 21.0007 15.95 21H13ZM5 13H19V8H5V13Z" fill="currentColor"/>
</svg>
