<svg viewBox="0 0 24 24" fill="none" xmlns="http://www.w3.org/2000/svg">
<path d="M12 18C13.6667 18 15.075 17.4167 16.225 16.25C17.375 15.0833 17.9667 13.6667 18 12V6H12C10.3333 6.03333 8.91667 6.625 7.75 7.775C6.58333 8.925 6 10.3333 6 12C6 13.6667 6.58333 15.0833 7.75 16.25C8.91667 17.4167 10.3333 18 12 18ZM10.825 16.325L15.425 12.225C15.575 12.0917 15.6167 11.9333 15.55 11.75C15.4833 11.5667 15.35 11.4583 15.15 11.425L11.55 11.075L13.7 8.1C13.75 8.01667 13.7793 7.93733 13.788 7.862C13.7967 7.78667 13.7673 7.716 13.7 7.65C13.6333 7.56667 13.55 7.52933 13.45 7.538C13.35 7.54667 13.2583 7.584 13.175 7.65L8.6 11.75C8.45 11.8833 8.40833 12.0417 8.475 12.225C8.54167 12.4083 8.675 12.5167 8.875 12.55L12.475 12.9L10.3 15.875C10.25 15.9583 10.225 16.0373 10.225 16.112C10.225 16.1867 10.2583 16.2577 10.325 16.325C10.3917 16.3923 10.471 16.4257 10.563 16.425C10.655 16.4243 10.7423 16.391 10.825 16.325ZM12 20C11.0667 20 10.1877 19.854 9.363 19.562C8.53833 19.27 7.784 18.8577 7.1 18.325L5.725 19.7C5.625 19.8 5.51267 19.875 5.388 19.925C5.26333 19.975 5.134 20 5 20C4.71667 20 4.47933 19.904 4.288 19.712C4.09667 19.52 4.00067 19.2827 4 19C4 18.8667 4.025 18.7377 4.075 18.613C4.125 18.4883 4.2 18.3757 4.3 18.275L5.675 16.9C5.14167 16.2167 4.72933 15.4627 4.438 14.638C4.14667 13.8133 4.00067 12.934 4 12C4 9.76667 4.775 7.875 6.325 6.325C7.875 4.775 9.76667 4 12 4H18C18.55 4 19.021 4.19567 19.413 4.587C19.805 4.97833 20.0007 5.44933 20 6V12C20 14.2333 19.225 16.125 17.675 17.675C16.125 19.225 14.2333 20 12 20Z" fill="currentColor"/>
</svg>
