<svg viewBox="0 0 24 24" fill="none" xmlns="http://www.w3.org/2000/svg">
<path d="M15.5 11C14.25 11 13.1877 10.5627 12.313 9.688C11.4383 8.81334 11.0007 7.75067 11 6.5C10.9993 5.24934 11.437 4.187 12.313 3.313C13.189 2.439 14.2513 2.00134 15.5 2C16.7487 1.99867 17.8113 2.43634 18.688 3.313C19.5647 4.18967 20.002 5.252 20 6.5C20 6.95 19.9333 7.375 19.8 7.775C19.6667 8.175 19.5 8.55 19.3 8.9L21.8 11.4C21.9833 11.5833 22.075 11.8167 22.075 12.1C22.075 12.3833 21.9833 12.6167 21.8 12.8C21.6167 12.9833 21.3833 13.075 21.1 13.075C20.8167 13.075 20.5833 12.9833 20.4 12.8L17.9 10.3C17.55 10.5 17.175 10.6667 16.775 10.8C16.375 10.9333 15.95 11 15.5 11ZM15.5 9C16.2 9 16.7917 8.75834 17.275 8.275C17.7583 7.79167 18 7.2 18 6.5C18 5.8 17.7583 5.20834 17.275 4.725C16.7917 4.24167 16.2 4 15.5 4C14.8 4 14.2083 4.24167 13.725 4.725C13.2417 5.20834 13 5.8 13 6.5C13 7.2 13.2417 7.79167 13.725 8.275C14.2083 8.75834 14.8 9 15.5 9ZM4 22C3.45 22 2.97933 21.8043 2.588 21.413C2.19667 21.0217 2.00067 20.5507 2 20V6C2 5.45 2.196 4.97934 2.588 4.588C2.98 4.19667 3.45067 4.00067 4 4H8.3C8.58333 4 8.81667 4.121 9 4.363C9.18333 4.605 9.23333 4.86734 9.15 5.15C9.1 5.38334 9.06667 5.625 9.05 5.875C9.03333 6.125 9.025 6.36667 9.025 6.6C9.025 8.41667 9.66667 9.93334 10.95 11.15C12.2333 12.3667 13.7583 12.975 15.525 12.975C15.8417 12.975 16.1583 12.954 16.475 12.912C16.7917 12.87 17.1167 12.7993 17.45 12.7L19.425 14.675C19.6083 14.8583 19.75 15.0707 19.85 15.312C19.95 15.5533 20 15.8077 20 16.075V20C20 20.55 19.8043 21.0207 19.413 21.412C19.0217 21.8033 18.5507 21.9993 18 22H4Z" fill="currentColor"/>
</svg>
