<svg viewBox="0 0 24 24" fill="none" xmlns="http://www.w3.org/2000/svg">
<path d="M6 22C5.45 22 4.97933 21.8043 4.588 21.413C4.19667 21.0217 4.00067 20.5507 4 20V4C4 3.45 4.196 2.97933 4.588 2.588C4.98 2.19667 5.45067 2.00067 6 2H14.075C14.375 2 14.6583 2.06267 14.925 2.188C15.1917 2.31333 15.4167 2.49233 15.6 2.725L19.525 7.45C19.675 7.63333 19.7917 7.83333 19.875 8.05C19.9583 8.26667 20 8.49167 20 8.725V17.8C20 18.1333 19.846 18.3627 19.538 18.488C19.23 18.6133 18.959 18.559 18.725 18.325L15.45 15C15.6333 14.7167 15.771 14.4083 15.863 14.075C15.955 13.7417 16.0007 13.3833 16 13C16 11.9 15.6083 10.9583 14.825 10.175C14.0417 9.39167 13.1 9 12 9C10.9 9 9.95833 9.39167 9.175 10.175C8.39167 10.9583 8 11.9 8 13C8 14.1 8.39167 15.0417 9.175 15.825C9.95833 16.6083 10.9 17 12 17C12.3833 17 12.7417 16.9543 13.075 16.863C13.4083 16.7717 13.7167 16.634 14 16.45L17.875 20.3C18.1917 20.6167 18.2667 20.9793 18.1 21.388C17.9333 21.7967 17.625 22.0007 17.175 22H6ZM12 15C11.45 15 10.9793 14.8043 10.588 14.413C10.1967 14.0217 10.0007 13.5507 10 13C9.99933 12.4493 10.1953 11.9787 10.588 11.588C10.9807 11.1973 11.4513 11.0013 12 11C12.5487 10.9987 13.0197 11.1947 13.413 11.588C13.8063 11.9813 14.002 12.452 14 13C13.998 13.548 13.8023 14.019 13.413 14.413C13.0237 14.807 12.5527 15.0027 12 15Z" fill="currentColor"/>
</svg>
