<svg viewBox="0 0 24 24" fill="none" xmlns="http://www.w3.org/2000/svg">
<path d="M12 15.5C12.9 15.5 13.721 15.2543 14.463 14.763C15.205 14.2717 15.7673 13.6173 16.15 12.8C16.2667 12.55 16.2667 12.3 16.15 12.05C16.0333 11.8 15.8417 11.625 15.575 11.525C15.325 11.425 15.0793 11.4293 14.838 11.538C14.5967 11.6467 14.4173 11.8257 14.3 12.075C14.1 12.525 13.7877 12.875 13.363 13.125C12.9383 13.375 12.484 13.5 12 13.5C11.516 13.5 11.062 13.375 10.638 13.125C10.214 12.875 9.90134 12.525 9.7 12.075C9.58334 11.825 9.40434 11.646 9.163 11.538C8.92167 11.43 8.67567 11.4257 8.425 11.525C8.15834 11.625 7.96667 11.8 7.85 12.05C7.73334 12.3 7.73334 12.55 7.85 12.8C8.23334 13.6167 8.796 14.271 9.538 14.763C10.28 15.255 11.1007 15.5007 12 15.5ZM9.25 10.5C9.6 10.5 9.896 10.379 10.138 10.137C10.38 9.895 10.5007 9.59933 10.5 9.25C10.4993 8.90067 10.3783 8.60467 10.137 8.362C9.89567 8.11933 9.6 7.99867 9.25 8C8.9 8.00133 8.604 8.12233 8.362 8.363C8.12 8.60367 7.99934 8.89933 8 9.25C8.00067 9.60067 8.12167 9.89667 8.363 10.138C8.60434 10.3793 8.9 10.5 9.25 10.5ZM14.75 10.5C15.1 10.5 15.396 10.379 15.638 10.137C15.88 9.895 16.0007 9.59933 16 9.25C15.9993 8.90067 15.8783 8.60467 15.637 8.362C15.3957 8.11933 15.1 7.99867 14.75 8C14.4 8.00133 14.104 8.12233 13.862 8.363C13.62 8.60367 13.4993 8.89933 13.5 9.25C13.5007 9.60067 13.6217 9.89667 13.863 10.138C14.1043 10.3793 14.4 10.5 14.75 10.5ZM12 5.1C12.5667 4.43333 13.2417 3.91667 14.025 3.55C14.8083 3.18333 15.6333 3 16.5 3C18.0667 3 19.375 3.525 20.425 4.575C21.475 5.625 22 6.93333 22 8.5C22 9.2 21.896 9.871 21.688 10.513C21.48 11.155 21.1217 11.8467 20.613 12.588C20.1043 13.3293 19.421 14.1417 18.563 15.025C17.705 15.9083 16.6257 16.9333 15.325 18.1L13.325 19.85C12.9417 20.1833 12.5 20.35 12 20.35C11.5 20.35 11.0583 20.1833 10.675 19.85L8.675 18.1C7.375 16.9333 6.29567 15.9083 5.437 15.025C4.57834 14.1417 3.895 13.3293 3.387 12.588C2.879 11.8467 2.52067 11.155 2.312 10.513C2.10334 9.871 1.99934 9.2 2 8.5C2 6.93333 2.525 5.625 3.575 4.575C4.625 3.525 5.93334 3 7.5 3C8.36667 3 9.19167 3.18333 9.975 3.55C10.7583 3.91667 11.4333 4.43333 12 5.1ZM20 8.5C20 7.5 19.6667 6.66667 19 6C18.3333 5.33333 17.5 5 16.5 5C15.9167 5 15.3543 5.12933 14.813 5.388C14.2717 5.64667 13.8173 6.009 13.45 6.475C13.2167 6.75833 12.9793 6.975 12.738 7.125C12.4967 7.275 12.2507 7.35 12 7.35C11.7493 7.35 11.4993 7.275 11.25 7.125C11.0007 6.975 10.759 6.75 10.525 6.45C10.1583 6 9.70834 5.646 9.175 5.388C8.64167 5.13 8.08334 5.00067 7.5 5C6.5 5 5.66667 5.33333 5 6C4.33334 6.66667 4 7.5 4 8.5C4 9.06667 4.11667 9.63767 4.35 10.213C4.58334 10.7883 5 11.4423 5.6 12.175C6.2 12.9077 7.01667 13.766 8.05 14.75C9.08334 15.734 10.4 16.9173 12 18.3C13.6 16.9167 14.9167 15.7333 15.95 14.75C16.9833 13.7667 17.8 12.9083 18.4 12.175C19 11.4417 19.4167 10.7873 19.65 10.212C19.8833 9.63667 20 9.066 20 8.5Z" fill="currentColor"/>
</svg>
