<svg viewBox="0 0 24 24" fill="none" xmlns="http://www.w3.org/2000/svg">
<path d="M8 12.25H16C16.2833 12.25 16.521 12.154 16.713 11.962C16.905 11.77 17.0007 11.5327 17 11.25C16.9993 10.9673 16.9033 10.73 16.712 10.538C16.5207 10.346 16.2833 10.25 16 10.25H8C7.71667 10.25 7.47933 10.346 7.288 10.538C7.09667 10.73 7.00067 10.9673 7 11.25C6.99933 11.5327 7.09533 11.7703 7.288 11.963C7.48067 12.1557 7.718 12.2513 8 12.25ZM8 8.75H16C16.2833 8.75 16.521 8.654 16.713 8.462C16.905 8.27 17.0007 8.03267 17 7.75C16.9993 7.46733 16.9033 7.23 16.712 7.038C16.5207 6.846 16.2833 6.75 16 6.75H8C7.71667 6.75 7.47933 6.846 7.288 7.038C7.09667 7.23 7.00067 7.46733 7 7.75C6.99933 8.03267 7.09533 8.27033 7.288 8.463C7.48067 8.65567 7.718 8.75133 8 8.75ZM5 21C4.45 21 3.97933 20.8043 3.588 20.413C3.19667 20.0217 3.00067 19.5507 3 19V5C3 4.45 3.196 3.97933 3.588 3.588C3.98 3.19667 4.45067 3.00067 5 3H19C19.55 3 20.021 3.196 20.413 3.588C20.805 3.98 21.0007 4.45067 21 5V19C21 19.55 20.8043 20.021 20.413 20.413C20.0217 20.805 19.5507 21.0007 19 21H5ZM12 16C12.5333 16 13.025 15.8623 13.475 15.587C13.925 15.3117 14.2917 14.9493 14.575 14.5C14.675 14.35 14.8 14.229 14.95 14.137C15.1 14.045 15.2667 13.9993 15.45 14H19V5H5V14H8.55C8.73333 14 8.9 14.046 9.05 14.138C9.2 14.23 9.325 14.3507 9.425 14.5C9.70833 14.95 10.075 15.3127 10.525 15.588C10.975 15.8633 11.4667 16.0007 12 16Z" fill="currentColor"/>
</svg>
