<svg viewBox="0 0 24 24" fill="none" xmlns="http://www.w3.org/2000/svg">
<path d="M12 22C10.6167 22 9.31667 21.7373 8.1 21.212C6.88333 20.6867 5.825 19.9743 4.925 19.075C4.025 18.1757 3.31267 17.1173 2.788 15.9C2.26333 14.6827 2.00067 13.3827 2 12C2 10.6 2.25833 9.296 2.775 8.088C3.29167 6.88 4 5.81733 4.9 4.9L12 12V2C13.3833 2 14.6833 2.26267 15.9 2.788C17.1167 3.31333 18.175 4.02567 19.075 4.925C19.975 5.82433 20.6877 6.88267 21.213 8.1C21.7383 9.31733 22.0007 10.6173 22 12C21.9993 13.3827 21.7367 14.6827 21.212 15.9C20.6873 17.1173 19.975 18.1757 19.075 19.075C18.175 19.9743 17.1167 20.687 15.9 21.213C14.6833 21.739 13.3833 22.0013 12 22Z" fill="currentColor"/>
</svg>
