<svg viewBox="0 0 24 24" fill="none" xmlns="http://www.w3.org/2000/svg">
<path d="M5.85 12L5.55 10.5C5.35 10.4167 5.16267 10.3293 4.988 10.238C4.81333 10.1467 4.634 10.034 4.45 9.9L3 10.35L2 8.65L3.15 7.65C3.11667 7.43333 3.1 7.21667 3.1 7C3.1 6.78333 3.11667 6.56667 3.15 6.35L2 5.35L3 3.65L4.45 4.1C4.63333 3.96667 4.81267 3.854 4.988 3.762C5.16333 3.67 5.35067 3.58267 5.55 3.5L5.85 2H7.85L8.15 3.5C8.35 3.58333 8.53767 3.671 8.713 3.763C8.88833 3.855 9.06733 3.96733 9.25 4.1L10.7 3.65L11.7 5.35L10.55 6.35C10.5833 6.56667 10.6 6.78333 10.6 7C10.6 7.21667 10.5833 7.43333 10.55 7.65L11.7 8.65L10.7 10.35L9.25 9.9C9.06667 10.0333 8.88767 10.146 8.713 10.238C8.53833 10.33 8.35067 10.4173 8.15 10.5L7.85 12H5.85ZM6.85 9C7.4 9 7.871 8.80433 8.263 8.413C8.655 8.02167 8.85067 7.55067 8.85 7C8.84933 6.44933 8.65367 5.97867 8.263 5.588C7.87233 5.19733 7.40133 5.00133 6.85 5C6.29867 4.99867 5.828 5.19467 5.438 5.588C5.048 5.98133 4.852 6.452 4.85 7C4.848 7.548 5.044 8.019 5.438 8.413C5.832 8.807 6.30267 9.00267 6.85 9ZM14.8 23L14.35 20.9C14.0667 20.8 13.8043 20.679 13.563 20.537C13.3217 20.395 13.084 20.2327 12.85 20.05L10.85 20.7L9.45 18.3L11.05 16.9C11.0167 16.6 11 16.3 11 16C11 15.7 11.0167 15.4 11.05 15.1L9.45 13.7L10.85 11.3L12.85 11.95C13.0833 11.7667 13.321 11.604 13.563 11.462C13.805 11.32 14.0673 11.1993 14.35 11.1L14.8 9H17.6L18.05 11.1C18.3333 11.2 18.596 11.321 18.838 11.463C19.08 11.605 19.3173 11.7673 19.55 11.95L21.55 11.3L22.95 13.7L21.35 15.1C21.3833 15.4 21.4 15.7 21.4 16C21.4 16.3 21.3833 16.6 21.35 16.9L22.95 18.3L21.55 20.7L19.55 20.05C19.3167 20.2333 19.0793 20.3957 18.838 20.537C18.5967 20.6783 18.334 20.7993 18.05 20.9L17.6 23H14.8ZM16.2 19C17.0333 19 17.7417 18.7083 18.325 18.125C18.9083 17.5417 19.2 16.8333 19.2 16C19.2 15.1667 18.9083 14.4583 18.325 13.875C17.7417 13.2917 17.0333 13 16.2 13C15.3667 13 14.6583 13.2917 14.075 13.875C13.4917 14.4583 13.2 15.1667 13.2 16C13.2 16.8333 13.4917 17.5417 14.075 18.125C14.6583 18.7083 15.3667 19 16.2 19Z" fill="currentColor"/>
</svg>
