<svg viewBox="0 0 24 24" fill="none" xmlns="http://www.w3.org/2000/svg">
<path d="M3 21C2.71667 21 2.47934 20.904 2.288 20.712C2.09667 20.52 2.00067 20.2827 2 20C1.99934 19.7173 2.09534 19.48 2.288 19.288C2.48067 19.096 2.718 19 3 19H21C21.2833 19 21.521 19.096 21.713 19.288C21.905 19.48 22.0007 19.7173 22 20C21.9993 20.2827 21.9033 20.5203 21.712 20.713C21.5207 20.9057 21.2833 21.0013 21 21H3ZM4.5 18C4.08334 18 3.72934 17.8543 3.438 17.563C3.14667 17.2717 3.00067 16.9173 3 16.5V12.5C3 12.0833 3.146 11.7293 3.438 11.438C3.73 11.1467 4.084 11.0007 4.5 11C4.916 10.9993 5.27034 11.1453 5.563 11.438C5.85567 11.7307 6.00134 12.0847 6 12.5V16.5C6 16.9167 5.85434 17.271 5.563 17.563C5.27167 17.855 4.91734 18.0007 4.5 18ZM9.5 18C9.08334 18 8.72934 17.8543 8.438 17.563C8.14667 17.2717 8.00067 16.9173 8 16.5V7.5C8 7.08334 8.146 6.72934 8.438 6.438C8.73 6.14667 9.084 6.00067 9.5 6C9.916 5.99934 10.2703 6.14534 10.563 6.438C10.8557 6.73067 11.0013 7.08467 11 7.5V16.5C11 16.9167 10.8543 17.271 10.563 17.563C10.2717 17.855 9.91734 18.0007 9.5 18ZM14.5 18C14.0833 18 13.7293 17.8543 13.438 17.563C13.1467 17.2717 13.0007 16.9173 13 16.5V10.5C13 10.0833 13.146 9.72934 13.438 9.438C13.73 9.14667 14.084 9.00067 14.5 9C14.916 8.99934 15.2703 9.14534 15.563 9.438C15.8557 9.73067 16.0013 10.0847 16 10.5V16.5C16 16.9167 15.8543 17.271 15.563 17.563C15.2717 17.855 14.9173 18.0007 14.5 18ZM19.5 18C19.0833 18 18.7293 17.8543 18.438 17.563C18.1467 17.2717 18.0007 16.9173 18 16.5V4.5C18 4.08334 18.146 3.72934 18.438 3.438C18.73 3.14667 19.084 3.00067 19.5 3C19.916 2.99934 20.2703 3.14534 20.563 3.438C20.8557 3.73067 21.0013 4.08467 21 4.5V16.5C21 16.9167 20.8543 17.271 20.563 17.563C20.2717 17.855 19.9173 18.0007 19.5 18Z" fill="currentColor"/>
</svg>
