<svg viewBox="0 0 24 24" fill="none" xmlns="http://www.w3.org/2000/svg">
<path d="M3 20V17C3 16.45 3.196 15.9793 3.588 15.588C3.98 15.1967 4.45067 15.0007 5 15H6V13C6 12.45 6.196 11.9793 6.588 11.588C6.98 11.1967 7.45067 11.0007 8 11H11V9H10C9.45 9 8.97933 8.80433 8.588 8.413C8.19667 8.02167 8.00067 7.55067 8 7V4C8 3.45 8.196 2.97933 8.588 2.588C8.98 2.19667 9.45067 2.00067 10 2H14C14.55 2 15.021 2.196 15.413 2.588C15.805 2.98 16.0007 3.45067 16 4V7C16 7.55 15.8043 8.021 15.413 8.413C15.0217 8.805 14.5507 9.00067 14 9H13V11H16C16.55 11 17.021 11.196 17.413 11.588C17.805 11.98 18.0007 12.4507 18 13V15H19C19.55 15 20.021 15.196 20.413 15.588C20.805 15.98 21.0007 16.4507 21 17V20C21 20.55 20.8043 21.021 20.413 21.413C20.0217 21.805 19.5507 22.0007 19 22H15C14.45 22 13.9793 21.8043 13.588 21.413C13.1967 21.0217 13.0007 20.5507 13 20V17C13 16.45 13.196 15.9793 13.588 15.588C13.98 15.1967 14.4507 15.0007 15 15H16V13H8V15H9C9.55 15 10.021 15.196 10.413 15.588C10.805 15.98 11.0007 16.4507 11 17V20C11 20.55 10.8043 21.021 10.413 21.413C10.0217 21.805 9.55067 22.0007 9 22H5C4.45 22 3.97933 21.8043 3.588 21.413C3.19667 21.0217 3.00067 20.5507 3 20Z" fill="currentColor"/>
</svg>
