<svg viewBox="0 0 24 24" fill="none" xmlns="http://www.w3.org/2000/svg">
<path d="M13.375 21.825C13.5583 21.875 13.771 21.896 14.013 21.888C14.255 21.88 14.459 21.8423 14.625 21.775L22 19C22 18.4333 21.8 17.9583 21.4 17.575C21 17.1917 20.5333 17 20 17H13.15C13.1 17 13.0417 16.996 12.975 16.988C12.9083 16.98 12.8583 16.9673 12.825 16.95L11.35 16.425C11.2167 16.375 11.125 16.2917 11.075 16.175C11.025 16.0583 11.0167 15.9333 11.05 15.8C11.0833 15.6833 11.1667 15.5917 11.3 15.525C11.4333 15.4583 11.5667 15.45 11.7 15.5L12.825 15.925C12.8917 15.9583 12.946 15.9793 12.988 15.988C13.03 15.9967 13.0923 16.0007 13.175 16H15.8C16.1167 16 16.3957 15.8917 16.637 15.675C16.8783 15.4583 16.9993 15.175 17 14.825C17 14.5917 16.929 14.3667 16.787 14.15C16.645 13.9333 16.4577 13.7833 16.225 13.7L9.3 11.125C9.18333 11.0917 9.06667 11.0623 8.95 11.037C8.83333 11.0117 8.71667 10.9993 8.6 11H7V20.025L13.375 21.825ZM1 20C1 20.55 1.196 21.021 1.588 21.413C1.98 21.805 2.45067 22.0007 3 22C3.54933 21.9993 4.02033 21.8037 4.413 21.413C4.80567 21.0223 5.00133 20.5513 5 20V13C5 12.45 4.80433 11.9793 4.413 11.588C4.02167 11.1967 3.55067 11.0007 3 11C2.44933 10.9993 1.97867 11.1953 1.588 11.588C1.19733 11.9807 1.00133 12.4513 1 13V20ZM16 12.2C15.75 12.2 15.5043 12.1543 15.263 12.063C15.0217 11.9717 14.8007 11.834 14.6 11.65L11.85 8.95C11.3333 8.45 10.896 7.896 10.538 7.288C10.18 6.68 10.0007 6.01734 10 5.3C10 4.38334 10.321 3.60434 10.963 2.963C11.605 2.32167 12.384 2.00067 13.3 2C13.8333 2 14.3333 2.11267 14.8 2.338C15.2667 2.56334 15.6667 2.86734 16 3.25C16.3333 2.86667 16.7333 2.56234 17.2 2.337C17.6667 2.11167 18.1667 1.99934 18.7 2C19.6167 2 20.396 2.321 21.038 2.963C21.68 3.605 22.0007 4.384 22 5.3C22 6.01667 21.825 6.67934 21.475 7.288C21.125 7.89667 20.6917 8.45067 20.175 8.95L17.4 11.65C17.2 11.8333 16.9793 11.971 16.738 12.063C16.4967 12.155 16.2507 12.2007 16 12.2Z" fill="currentColor"/>
</svg>
