<svg viewBox="0 0 24 24" fill="none" xmlns="http://www.w3.org/2000/svg">
<path d="M15.3 8.825L14.225 7.75C14.125 7.65 14.0083 7.60433 13.875 7.613C13.7417 7.62167 13.625 7.67567 13.525 7.775C13.425 7.87433 13.375 7.991 13.375 8.125C13.375 8.259 13.425 8.37567 13.525 8.475L14.6 9.55C14.8 9.75 15.0333 9.85 15.3 9.85C15.5667 9.85 15.8 9.75 16 9.55L18.475 7.05C18.575 6.95 18.625 6.83333 18.625 6.7C18.625 6.56667 18.575 6.45 18.475 6.35C18.375 6.25 18.2583 6.2 18.125 6.2C17.9917 6.2 17.875 6.25 17.775 6.35L15.3 8.825ZM4 20C3.71667 20 3.47934 19.904 3.288 19.712C3.09667 19.52 3.00067 19.2827 3 19C2.99934 18.7173 3.09534 18.48 3.288 18.288C3.48067 18.096 3.718 18 4 18H14C14.2833 18 14.521 18.096 14.713 18.288C14.905 18.48 15.0007 18.7173 15 19C14.9993 19.2827 14.9033 19.5203 14.712 19.713C14.5207 19.9057 14.2833 20.0013 14 20H4ZM16 13C14.6167 13 13.4377 12.5123 12.463 11.537C11.4883 10.5617 11.0007 9.38267 11 8C10.9993 6.61733 11.487 5.43833 12.463 4.463C13.439 3.48767 14.618 3 16 3C17.382 3 18.5613 3.48767 19.538 4.463C20.5147 5.43833 21.002 6.61733 21 8C20.998 9.38267 20.5103 10.562 19.537 11.538C18.5637 12.514 17.3847 13.0013 16 13ZM4 12C3.71667 12 3.47934 11.904 3.288 11.712C3.09667 11.52 3.00067 11.2827 3 11C2.99934 10.7173 3.09534 10.48 3.288 10.288C3.48067 10.096 3.718 10 4 10H8.675C8.95834 10 9.196 10.096 9.388 10.288C9.58 10.48 9.67567 10.7173 9.675 11C9.675 11.2667 9.579 11.5 9.387 11.7C9.195 11.9 8.95767 12 8.675 12H4ZM4 16C3.71667 16 3.47934 15.904 3.288 15.712C3.09667 15.52 3.00067 15.2827 3 15C2.99934 14.7173 3.09534 14.48 3.288 14.288C3.48067 14.096 3.718 14 4 14H11.925C12.2083 14 12.446 14.096 12.638 14.288C12.83 14.48 12.9257 14.7173 12.925 15C12.925 15.2667 12.8333 15.5 12.65 15.7C12.4667 15.9 12.225 16 11.925 16H4Z" fill="currentColor"/>
</svg>
