<svg viewBox="0 0 24 24" fill="none" xmlns="http://www.w3.org/2000/svg">
<path d="M12 21C11.7167 21 11.4793 20.904 11.288 20.712C11.0967 20.52 11.0007 20.2827 11 20V13.025C9.93333 13.025 8.90833 12.821 7.925 12.413C6.94167 12.005 6.075 11.4257 5.325 10.675C4.575 9.92433 4 9.05767 3.6 8.075C3.2 7.09233 3 6.06733 3 5V4C3 3.71667 3.096 3.47933 3.288 3.288C3.48 3.09667 3.71733 3.00067 4 3H5C6.05 3 7.06667 3.20433 8.05 3.613C9.03333 4.02167 9.9 4.60067 10.65 5.35C11.1667 5.86667 11.596 6.43333 11.938 7.05C12.28 7.66667 12.5423 8.325 12.725 9.025C12.8083 8.90833 12.9 8.796 13 8.688C13.1 8.58 13.2083 8.46733 13.325 8.35C14.075 7.6 14.9417 7.021 15.925 6.613C16.9083 6.205 17.9333 6.00067 19 6H20C20.2833 6 20.521 6.096 20.713 6.288C20.905 6.48 21.0007 6.71733 21 7V8C21 9.06667 20.796 10.0917 20.388 11.075C19.98 12.0583 19.4007 12.925 18.65 13.675C17.8993 14.425 17.037 15 16.063 15.4C15.089 15.8 14.068 16 13 16V20C13 20.2833 12.904 20.521 12.712 20.713C12.52 20.905 12.2827 21.0007 12 21Z" fill="currentColor"/>
</svg>
