<svg viewBox="0 0 24 24" fill="none" xmlns="http://www.w3.org/2000/svg">
<path d="M11.5 6.75C11.3667 6.75 11.25 6.7 11.15 6.6C11.05 6.5 11 6.38333 11 6.25V4.25C11 3.55 11.2417 2.95833 11.725 2.475C12.2083 1.99167 12.8 1.75 13.5 1.75H15.5C15.6333 1.75 15.75 1.8 15.85 1.9C15.95 2 16 2.11667 16 2.25V4.25C16 4.95 15.7583 5.54167 15.275 6.025C14.7917 6.50833 14.2 6.75 13.5 6.75H11.5ZM5.5 12.75C4.53333 12.75 3.70833 12.4083 3.025 11.725C2.34167 11.0417 2 10.2167 2 9.25V6.75C2 6.46667 2.096 6.22933 2.288 6.038C2.48 5.84667 2.71733 5.75067 3 5.75H5.5C6.46667 5.75 7.29167 6.09167 7.975 6.775C8.65833 7.45833 9 8.28333 9 9.25V11.75C9 12.0333 8.904 12.271 8.712 12.463C8.52 12.655 8.28267 12.7507 8 12.75H5.5ZM16 21.75C15.35 21.75 14.7293 21.65 14.138 21.45C13.5467 21.25 13.009 20.975 12.525 20.625L11.7 21.45C11.5167 21.6333 11.2833 21.725 11 21.725C10.7167 21.725 10.4833 21.6333 10.3 21.45C10.1167 21.2667 10.025 21.0333 10.025 20.75C10.025 20.4667 10.1167 20.2333 10.3 20.05L11.125 19.225C10.775 18.7417 10.5 18.2043 10.3 17.613C10.1 17.0217 10 16.4007 10 15.75C10 14.0833 10.5833 12.6627 11.75 11.488C12.9167 10.3133 14.3333 9.72567 16 9.725H20.025C20.575 9.725 21.046 9.921 21.438 10.313C21.83 10.705 22.0257 11.1757 22.025 11.725V15.75C22.025 17.4167 21.4377 18.8333 20.263 20C19.0883 21.1667 17.6673 21.75 16 21.75ZM13.3 18.45C13.4833 18.6333 13.7167 18.725 14 18.725C14.2833 18.725 14.5167 18.6333 14.7 18.45L16.7 16.45C16.8833 16.2667 16.975 16.0333 16.975 15.75C16.975 15.4667 16.8833 15.2333 16.7 15.05C16.5167 14.8667 16.2833 14.775 16 14.775C15.7167 14.775 15.4833 14.8667 15.3 15.05L13.3 17.05C13.1167 17.2333 13.025 17.4667 13.025 17.75C13.025 18.0333 13.1167 18.2667 13.3 18.45Z" fill="currentColor"/>
</svg>
