<svg viewBox="0 0 56 56" fill="none" xmlns="http://www.w3.org/2000/svg">
<path d="M14.0022 24.333C15.0123 24.3306 15.8575 24.6795 16.5901 25.4121C17.3225 26.1446 17.6699 26.9884 17.6663 27.9961C17.6625 29.0097 17.3118 29.8585 16.5852 30.5938C15.8655 31.322 15.0248 31.6708 14.0051 31.666H14.0002C12.984 31.666 12.1392 31.3166 11.4124 30.5898C10.6854 29.8629 10.3345 29.0166 10.3333 27.998C10.3321 26.9817 10.6821 26.1388 11.4104 25.4141C12.1418 24.6864 12.9883 24.3355 14.0022 24.333ZM28.0022 24.333C29.0123 24.3306 29.8575 24.6795 30.5901 25.4121C31.3225 26.1446 31.6699 26.9884 31.6663 27.9961C31.6625 29.0097 31.3118 29.8585 30.5852 30.5938C29.8655 31.322 29.0248 31.6708 28.0051 31.666H28.0002C26.984 31.666 26.1392 31.3166 25.4124 30.5898C24.6854 29.8629 24.3345 29.0166 24.3333 27.998C24.3321 26.9817 24.6821 26.1388 25.4104 25.4141C26.1418 24.6864 26.9883 24.3355 28.0022 24.333ZM42.0022 24.333C43.0123 24.3306 43.8575 24.6795 44.5901 25.4121C45.3225 26.1446 45.6699 26.9884 45.6663 27.9961C45.6625 29.0097 45.3118 29.8585 44.5852 30.5938C43.8655 31.322 43.0248 31.6708 42.0051 31.666H42.0002C40.984 31.666 40.1392 31.3166 39.4124 30.5898C38.6854 29.8629 38.3345 29.0166 38.3333 27.998C38.3321 26.9817 38.6821 26.1388 39.4104 25.4141C40.1418 24.6864 40.9883 24.3355 42.0022 24.333Z" fill="url(#paint0_linear_3313_8593)" stroke="url(#paint1_linear_3313_8593)" stroke-width="2"/>
<defs>
<linearGradient id="paint0_linear_3313_8593" x1="11.9466" y1="23.333" x2="14.3436" y2="37.682" gradientUnits="userSpaceOnUse">
<stop stop-color="#5856D6"/>
<stop offset="1" stop-color="#AF52DE"/>
</linearGradient>
<linearGradient id="paint1_linear_3313_8593" x1="11.9466" y1="23.333" x2="14.3436" y2="37.682" gradientUnits="userSpaceOnUse">
<stop stop-color="#5856D6"/>
<stop offset="1" stop-color="#AF52DE"/>
</linearGradient>
</defs>
</svg>
