<svg viewBox="0 0 51 52" fill="none" xmlns="http://www.w3.org/2000/svg">
<path d="M2.51973 34.308C2.59907 33.5543 3.14507 32.9477 4.2394 31.732L6.64273 29.0417C7.23307 28.295 7.65073 27 7.65073 25.8333C7.65073 24.6667 7.23073 23.3693 6.64507 22.625L4.2394 19.9347C3.14507 18.7213 2.59907 18.1123 2.51973 17.3587C2.4404 16.605 2.84873 15.8957 3.6654 14.4793L4.81807 12.4797C5.6884 10.9677 6.12473 10.2117 6.8644 9.913C7.6064 9.60967 8.44407 9.84767 10.1194 10.3237L12.9661 11.124C14.0371 11.3713 15.1594 11.2313 16.1371 10.7297L16.9234 10.277C17.7615 9.73954 18.4058 8.94809 18.7621 8.01833L19.5414 5.692C20.0547 4.152 20.3114 3.382 20.9181 2.93867C21.5317 2.5 22.3437 2.5 23.9607 2.5H26.5624C28.1841 2.5 28.9937 2.5 29.6027 2.941C30.2141 3.382 30.4684 4.152 30.9817 5.692L31.7611 8.01833C32.1173 8.94809 32.7616 9.73954 33.5997 10.277L34.3861 10.7297C35.3637 11.2313 36.4861 11.3713 37.5547 11.1263L40.4014 10.3237C42.0791 9.84767 42.9167 9.60967 43.6587 9.91067C44.3984 10.214 44.8347 10.9677 45.7051 12.4797L46.8577 14.4793C47.6744 15.8957 48.0827 16.6027 48.0011 17.3587C47.9241 18.1123 47.3781 18.719 46.2837 19.9347L43.8804 22.625C43.2901 23.3693 42.8724 24.6667 42.8724 25.8333C42.8724 27 43.2924 28.2973 43.8781 29.0417L46.2837 31.732C47.3781 32.9453 47.9241 33.5543 48.0034 34.308C48.0827 35.0617 47.6744 35.771 46.8577 37.1873L45.7051 39.187C44.8347 40.699 44.3984 41.455 43.6587 41.7537C42.9167 42.057 42.0791 41.819 40.4037 41.343L37.5571 40.5427C36.4859 40.2963 35.3621 40.4359 34.3837 40.937L33.5997 41.3897C32.7597 41.9263 32.1181 42.7197 31.7611 43.6483L30.9817 45.9747C30.4684 47.5147 30.2117 48.2847 29.6051 48.728C28.9937 49.1667 28.1817 49.1667 26.5624 49.1667H23.9631C22.3414 49.1667 21.5317 49.1667 20.9227 48.7257C20.3114 48.2847 20.0547 47.517 19.5437 45.977" stroke="url(#paint0_linear_3360_23377)" stroke-width="5" stroke-linecap="round"/>
<path d="M3.64201 41.6529C6.16201 39.1329 14.73 30.6489 15.57 29.6689C16.4567 28.6329 15.738 27.2329 16.1673 22.8929C16.3727 20.7929 16.8253 19.2202 18.118 18.0489C19.658 16.5929 20.918 16.5929 25.258 16.4949C29.038 16.5929 29.486 16.1729 29.878 17.1529C30.158 17.8529 29.318 18.2729 28.31 19.3929C26.07 21.6329 24.754 22.7529 24.628 23.4529C23.718 26.5329 27.302 28.3529 29.262 26.3929C30.004 25.6509 33.434 22.1929 33.77 21.9129C34.022 21.6889 34.6263 21.6982 34.918 22.0529C35.17 22.3002 35.198 22.3329 35.17 23.4529C35.1443 24.4889 35.156 25.9775 35.1583 27.5129C35.163 29.5009 35.058 31.7129 34.218 32.8329C32.538 35.3529 29.738 35.4929 27.218 35.6049C24.838 35.7449 22.878 35.4929 22.262 35.9409C21.758 36.1929 19.098 38.9929 15.878 42.2129L10.138 47.9529C5.37801 51.7329 0.142011 45.8529 3.64201 41.6529Z" stroke="url(#paint1_linear_3360_23377)" stroke-width="5" stroke-linecap="round"/>
<defs>
<linearGradient id="paint0_linear_3360_23377" x1="5.69523" y1="2.5" x2="40.0832" y2="52.6811" gradientUnits="userSpaceOnUse">
<stop stop-color="#5856D6"/>
<stop offset="1" stop-color="#AF52DE"/>
</linearGradient>
<linearGradient id="paint1_linear_3360_23377" x1="4.78865" y1="16.4863" x2="28.6458" y2="52.1876" gradientUnits="userSpaceOnUse">
<stop stop-color="#5856D6"/>
<stop offset="1" stop-color="#AF52DE"/>
</linearGradient>
</defs>
</svg>
