<svg viewBox="0 0 56 56" fill="none" xmlns="http://www.w3.org/2000/svg">
<path d="M15.1667 12.667C15.6982 12.667 16.1675 12.8169 16.6023 13.125C17.0322 13.4298 17.3197 13.8178 17.4841 14.3145L17.4871 14.3223L17.49 14.3311L22.3337 28.1719V46.667C22.3337 47.0757 22.2054 47.3725 21.9539 47.624C21.7026 47.8751 21.408 48.0009 21.0027 48H18.6667C18.258 48 17.9632 47.8725 17.7136 47.6221C17.4936 47.4012 17.3681 47.1463 17.3396 46.8125L17.3337 46.665V43.334H5.66675V40.667H19.6667V27H5.66675V24.334H18.2097L17.7439 23.0029L15.2937 16.0029L15.0593 15.334H5.66675V12.667H15.1667ZM48.9998 5.66699C50.0154 5.66699 50.8608 6.01742 51.5896 6.74609C52.3183 7.47476 52.6679 8.3188 52.6667 9.33203V28C52.6667 28.9528 52.3593 29.7561 51.7214 30.4531L51.5896 30.5908C50.8632 31.3184 50.0187 31.6681 49.0017 31.667H40.9998V48H38.3337V31.667H30.3337C29.3175 31.667 28.4727 31.3167 27.7458 30.5898C27.0646 29.9085 26.713 29.1231 26.6707 28.1885L26.6667 27.999V9.33398C26.6667 8.31845 27.0169 7.47401 27.7449 6.74707C28.4285 6.0646 29.2145 5.7131 30.1462 5.6709L30.3347 5.66699H48.9998ZM12.8298 31.334C13.5459 31.3363 14.1183 31.5748 14.6062 32.0625C15.094 32.5503 15.3325 33.1215 15.3337 33.835C15.3349 34.5461 15.0976 35.1171 14.6072 35.6064C14.1156 36.0968 13.5439 36.3339 12.8337 36.334H12.8269C12.1297 36.3385 11.56 36.1042 11.0623 35.6064C10.5647 35.1088 10.3305 34.5384 10.3337 33.8389C10.3372 33.1314 10.5746 32.5559 11.0662 32.0586C11.5513 31.5679 12.1189 31.3318 12.8298 31.334ZM29.3337 29H49.9998V8.33398H29.3337V29ZM43.1648 12.667L43.4255 12.6787C44.0195 12.7317 44.5114 12.9677 44.9402 13.3965C45.4299 13.8863 45.6667 14.4568 45.6667 15.167V17.502C45.6679 18.2129 45.4314 18.7832 44.9412 19.2725C44.4494 19.7631 43.8772 20 43.1667 20H37.4998V24.667H35.9998V12.667H43.1648ZM37.4998 18.5H44.1667V14.167H37.4998V18.5Z" fill="url(#paint0_linear_3313_8580)" stroke="url(#paint1_linear_3313_8580)" stroke-width="2"/>
<defs>
<linearGradient id="paint0_linear_3313_8580" x1="8.09675" y1="4.66699" x2="39.1147" y2="55.9741" gradientUnits="userSpaceOnUse">
<stop stop-color="#5856D6"/>
<stop offset="1" stop-color="#AF52DE"/>
</linearGradient>
<linearGradient id="paint1_linear_3313_8580" x1="8.09675" y1="4.66699" x2="39.1147" y2="55.9741" gradientUnits="userSpaceOnUse">
<stop stop-color="#5856D6"/>
<stop offset="1" stop-color="#AF52DE"/>
</linearGradient>
</defs>
</svg>
