<svg viewBox="0 0 56 56" fill="none" xmlns="http://www.w3.org/2000/svg">
<path d="M28.0002 6.0166C28.423 6.01664 28.854 6.09175 29.2971 6.25V6.24902L43.2688 11.4883V11.4893C43.985 11.7695 44.5605 12.2148 45.0129 12.8379C45.4515 13.4421 45.6674 14.1101 45.6663 14.873V25.9004C45.6662 31.1413 44.1723 36.0363 41.1643 40.6055C38.1736 45.1482 34.1737 48.2422 29.1418 49.918C28.9562 49.9798 28.7737 50.0257 28.594 50.0557C28.4225 50.0843 28.2253 50.0996 28.0002 50.0996C27.7751 50.0996 27.5771 50.0843 27.4055 50.0557C27.2258 50.0257 27.0433 49.9798 26.8577 49.918C21.8256 48.2406 17.8259 45.1467 14.8352 40.6055C11.8273 36.038 10.3333 31.1429 10.3333 25.9004V14.875C10.3333 14.1113 10.5505 13.4427 10.9895 12.8379C11.4422 12.2143 12.0171 11.7694 12.7317 11.4893L12.7307 11.4883L26.7024 6.24902L26.7034 6.25C27.1465 6.0918 27.5775 6.0166 28.0002 6.0166ZM35.4407 21.708C35.8057 21.7071 36.1068 21.8282 36.3918 22.1143C36.6782 22.4016 36.8 22.7052 36.8 23.0723C36.8 23.4391 36.6781 23.7411 36.3928 24.0264L26.4758 33.9424C26.1841 34.2341 25.8897 34.3496 25.55 34.3496C25.2104 34.3496 24.915 34.2341 24.6233 33.9424L19.7278 28.9883L19.7229 28.9834L19.6233 28.876C19.41 28.6239 19.3167 28.3531 19.3167 28.0303C19.3167 27.661 19.439 27.3581 19.7239 27.0732C20.0154 26.7818 20.3102 26.6671 20.6497 26.667C20.9893 26.667 21.2847 26.7816 21.5764 27.0732L24.843 30.3408L25.55 31.0479L26.2571 30.3408L34.4788 22.1172L34.4797 22.1182C34.7673 21.8325 35.0718 21.709 35.4407 21.708ZM43.0002 14.1816L42.3508 13.9385L28.3508 8.68848L28.0002 8.55664L13.0002 14.1816V25.9004C13.0003 30.8063 14.3821 35.282 17.1418 39.2998C19.8989 43.3137 23.4193 46.0292 27.6975 47.3867L28.0002 47.4824L28.302 47.3867C32.5802 46.0292 36.1007 43.3136 38.8577 39.2998C41.6174 35.282 43.0002 30.8063 43.0002 25.9004V14.1816Z" fill="url(#paint0_linear_3313_8583)" stroke="url(#paint1_linear_3313_8583)" stroke-width="2"/>
<defs>
<linearGradient id="paint0_linear_3313_8583" x1="11.9466" y1="5.0166" x2="47.6937" y2="48.357" gradientUnits="userSpaceOnUse">
<stop stop-color="#5856D6"/>
<stop offset="1" stop-color="#AF52DE"/>
</linearGradient>
<linearGradient id="paint1_linear_3313_8583" x1="11.9466" y1="5.0166" x2="47.6937" y2="48.357" gradientUnits="userSpaceOnUse">
<stop stop-color="#5856D6"/>
<stop offset="1" stop-color="#AF52DE"/>
</linearGradient>
</defs>
</svg>
