<svg viewBox="0 0 56 56" fill="none" xmlns="http://www.w3.org/2000/svg">
<path d="M12.8337 12.666H19.9998V14.875C19.9998 15.0251 20.0051 15.1778 20.0125 15.333H12.9402L12.7058 16.0029L10.2566 23.0029L9.79077 24.333H25.6609L28.3279 27H8.33374V40.666H42.9998V35.8047C43.643 35.6784 44.271 35.4836 44.8816 35.2158C45.1509 35.0977 45.4121 34.9633 45.6667 34.8184V46.666C45.6667 47.0747 45.5394 47.3715 45.2878 47.623C45.0364 47.8745 44.7414 48.001 44.3357 48H41.9998C41.5912 47.9999 41.2961 47.8724 41.0466 47.6221C40.8267 47.4013 40.7012 47.1461 40.6726 46.8125L40.6667 46.6641V43.333H10.6667V46.666C10.6667 47.0747 10.5394 47.3715 10.2878 47.623C10.0364 47.8745 9.74139 48.001 9.33569 48H6.99976C6.59121 47.9999 6.29611 47.8724 6.04663 47.6221C5.82668 47.4013 5.70123 47.1461 5.67261 46.8125L5.66675 46.6641V28.1709L10.5105 14.3301L10.5134 14.3232L10.5154 14.3154C10.6813 13.818 10.9698 13.4291 11.4001 13.124C11.8353 12.8156 12.3043 12.666 12.8337 12.666ZM15.1638 31.333C15.8799 31.3353 16.4523 31.5746 16.9402 32.0625C17.4279 32.5503 17.6656 33.1215 17.6667 33.835C17.6678 34.5458 17.4314 35.1163 16.9412 35.6055C16.4494 36.0961 15.8772 36.333 15.1667 36.333H15.1599C14.463 36.3374 13.8939 36.1039 13.3962 35.6064C12.8984 35.1086 12.6634 34.5377 12.6667 33.8379C12.6702 33.1303 12.9085 32.5549 13.4001 32.0576C13.8853 31.5671 14.4529 31.3307 15.1638 31.333ZM34.6443 33.3164C35.295 33.9653 36.0162 34.5015 36.8074 34.9199C37.2127 35.1343 37.6305 35.3155 38.0593 35.4658C37.9464 35.5973 37.817 35.7203 37.6667 35.833C37.2737 36.1278 36.8498 36.2894 36.3738 36.3252L36.1667 36.333H36.1648C35.458 36.3341 34.8879 36.098 34.3962 35.6064C33.905 35.1152 33.6674 34.5443 33.6667 33.8359C33.6679 33.425 33.7478 33.0608 33.8982 32.7314C33.915 32.6947 33.9347 32.6601 33.9529 32.625L34.6443 33.3164ZM38.2087 3.33301C38.532 3.33305 38.8542 3.39954 39.1824 3.54199C39.5271 3.69164 39.7968 3.87621 40.0076 4.08789L51.9099 15.9902C52.3709 16.4514 52.6082 17.0185 52.6082 17.7637C52.6081 18.5087 52.371 19.074 51.9109 19.5332L42.8679 28.5762C42.4065 29.0375 41.8404 29.2743 41.0974 29.2744C40.4471 29.2744 39.9309 29.0933 39.5017 28.7383L39.323 28.5752L27.4236 16.6758C27.2108 16.4629 27.0256 16.1918 26.8757 15.8467C26.7329 15.5175 26.6667 15.1963 26.6667 14.877V5.83301C26.6667 5.12337 26.9041 4.55254 27.3953 4.0625C27.8261 3.63275 28.3179 3.39762 28.9089 3.34473L29.1687 3.33301H38.2087ZM29.3337 14.8223L29.6267 15.1152L40.4177 25.9072L41.1248 26.6143L49.948 17.791L49.241 17.084L38.449 6.29297L38.156 6H29.3337V14.8223ZM34.9998 10.333C35.4084 10.333 35.7034 10.4606 35.9529 10.7109C36.2044 10.9634 36.3328 11.2606 36.3337 11.6689C36.3346 12.0744 36.208 12.3688 35.9568 12.6201C35.7052 12.8717 35.4085 13 34.9998 13H34.9949C34.5935 13.0018 34.2992 12.8765 34.0457 12.623C33.792 12.3694 33.6658 12.0734 33.6667 11.6689C33.6677 11.2607 33.7953 10.9633 34.0466 10.7109C34.2961 10.4606 34.5912 10.3331 34.9998 10.333Z" fill="url(#paint0_linear_3313_8590)" stroke="url(#paint1_linear_3313_8590)" stroke-width="2"/>
<defs>
<linearGradient id="paint0_linear_3313_8590" x1="8.09267" y1="2.33301" x2="41.5125" y2="54.7866" gradientUnits="userSpaceOnUse">
<stop stop-color="#5856D6"/>
<stop offset="1" stop-color="#AF52DE"/>
</linearGradient>
<linearGradient id="paint1_linear_3313_8590" x1="8.09267" y1="2.33301" x2="41.5125" y2="54.7866" gradientUnits="userSpaceOnUse">
<stop stop-color="#5856D6"/>
<stop offset="1" stop-color="#AF52DE"/>
</linearGradient>
</defs>
</svg>
