<svg viewBox="0 0 24 24" fill="none" xmlns="http://www.w3.org/2000/svg">
<path d="M12 2C17.5228 2 22 6.47715 22 12C22 17.5228 17.5228 22 12 22C6.47715 22 2 17.5228 2 12C2 6.47715 6.47715 2 12 2ZM12 3.59961C7.36081 3.59961 3.59961 7.36081 3.59961 12C3.59961 16.6392 7.36081 20.4004 12 20.4004C16.6392 20.4004 20.4004 16.6392 20.4004 12C20.4004 7.36081 16.6392 3.59961 12 3.59961ZM14.999 9.7002C15.4408 9.7002 15.7987 10.0583 15.7988 10.5C15.7988 10.9418 15.4409 11.2998 14.999 11.2998H13.0117L14.2773 16.6143C14.3797 17.044 14.1143 17.4758 13.6846 17.5781C13.2548 17.6805 12.823 17.4152 12.7207 16.9854L11.999 13.9541L11.2773 16.9854C11.175 17.4151 10.7433 17.6805 10.3135 17.5781C9.88393 17.4756 9.6184 17.0439 9.7207 16.6143L10.9863 11.2998H8.99902C8.55729 11.2997 8.19922 10.9418 8.19922 10.5C8.19932 10.0583 8.55735 9.7003 8.99902 9.7002H14.999ZM11.999 6.5C12.7169 6.5 13.2987 7.08192 13.2988 7.7998C13.2988 8.51778 12.717 9.09961 11.999 9.09961C11.2811 9.0995 10.6992 8.51771 10.6992 7.7998C10.6993 7.08199 11.2812 6.50011 11.999 6.5Z" fill="#33363D"/>
</svg>
