<svg viewBox="0 0 24 24" fill="none" xmlns="http://www.w3.org/2000/svg">
<path fill-rule="evenodd" clip-rule="evenodd" d="M10.7267 2.74156C11.4297 2.03862 12.5694 2.03862 13.2723 2.74156L16.1132 5.58242L18.2847 7.95371L21.1007 10.7697C21.8037 11.4726 21.8037 12.6123 21.1007 13.3153L18.2787 16.1373L16.1071 18.4091L13.2723 21.2439C12.5694 21.9468 11.4297 21.9468 10.7267 21.2439L7.89192 18.4091L5.72036 16.1373L2.8983 13.3153C2.19536 12.6123 2.19536 11.4726 2.8983 10.7697L5.7143 7.9537L7.88587 5.58242L10.7267 2.74156ZM12.1409 3.87293C12.0628 3.79483 11.9362 3.79483 11.8581 3.87293L9.0421 6.68893L6.87053 9.06021L4.02967 11.9011C3.95157 11.9792 3.95157 12.1058 4.02967 12.1839L6.86448 15.0187L9.03605 17.2905L11.8581 20.1125C11.9362 20.1906 12.0628 20.1906 12.1409 20.1125L14.963 17.2905L17.1346 15.0187L19.9694 12.1839C20.0475 12.1058 20.0475 11.9792 19.9694 11.9011L17.1285 9.06021L14.9569 6.68892L12.1409 3.87293Z" fill="#33363D"/>
</svg>
