<svg viewBox="0 0 24 24" fill="none" xmlns="http://www.w3.org/2000/svg">
<path fill-rule="evenodd" clip-rule="evenodd" d="M11.8502 4.92372C14.0154 2.7585 17.5259 2.7585 19.6912 4.92373C21.8564 7.08896 21.8564 10.5995 19.6912 12.7647L11.9903 20.4655C11.6779 20.7779 11.1714 20.7779 10.859 20.4655C10.5465 20.1531 10.5465 19.6465 10.859 19.3341L18.5598 11.6333C20.1002 10.093 20.1002 7.59549 18.5598 6.05509C17.0194 4.51472 14.522 4.5147 12.9815 6.0551L4.92034 14.1163C4.92034 14.1163 4.92035 14.1163 4.92034 14.1163C3.95677 15.0799 3.95676 16.6421 4.92034 17.6058C5.88392 18.5693 7.44619 18.5693 8.40978 17.6057L15.6423 10.3733C15.989 10.0265 15.989 9.46421 15.6423 9.11742C15.2955 8.77065 14.7332 8.77065 14.3864 9.11742L7.51433 15.9895C7.20191 16.302 6.69538 16.302 6.38296 15.9895C6.07054 15.6771 6.07054 15.1706 6.38296 14.8582L13.255 7.98607C13.255 7.98608 13.255 7.98607 13.255 7.98607C14.2266 7.01444 15.8021 7.01443 16.7737 7.98607C17.7452 8.9577 17.7452 10.533 16.7737 11.5046L9.54115 18.7371C7.95273 20.3256 5.37739 20.3256 3.78896 18.7371C2.20056 17.1487 2.20055 14.5734 3.78896 12.9849L11.8502 4.92372Z" fill="#33363D"/>
</svg>
