<svg viewBox="0 0 24 24" fill="none" xmlns="http://www.w3.org/2000/svg">
<path d="M19.2031 5.2002C19.6449 5.2002 20.0028 5.55826 20.0029 6V21.2002C20.0029 21.4802 19.8568 21.7399 19.6172 21.8848C19.4966 21.9576 19.3609 21.9954 19.2246 21.999C19.0893 22.0029 18.9529 21.9733 18.8291 21.9082L13.5088 19.1074L8.38965 21.9023C8.26547 21.9701 8.12802 22.0016 7.99121 21.999C7.85452 21.9967 7.71826 21.9607 7.59668 21.8887C7.35385 21.7446 7.20511 21.4826 7.20508 21.2002L7.20312 6C7.20318 5.78791 7.28753 5.58455 7.4375 5.43457C7.58748 5.28459 7.79083 5.20025 8.00293 5.2002H19.2031ZM17.2021 2C17.6437 2.00024 18.0018 2.35822 18.002 2.7998C18.002 3.24148 17.6438 3.59937 17.2021 3.59961H5.80371C5.69341 3.59971 5.60362 3.6895 5.60352 3.7998V19.2002C5.60352 19.642 5.24554 20 4.80371 20C4.36197 19.9999 4.00391 19.642 4.00391 19.2002V3.7998C4.00401 2.80585 4.80975 2.00011 5.80371 2H17.2021ZM8.80566 19.8506L13.1182 17.498C13.2356 17.434 13.3653 17.4014 13.4951 17.4004H13.4971C13.6271 17.3994 13.7574 17.4298 13.876 17.4922L18.4014 19.873V6.7998H8.80469L8.80566 19.8506Z" fill="#33363D"/>
</svg>
