<svg viewBox="0 0 24 24" fill="none" xmlns="http://www.w3.org/2000/svg">
<path fill-rule="evenodd" clip-rule="evenodd" d="M4.63488 3.05897C5.22211 2.49982 6.00458 2.19157 6.81597 2.20038C7.63479 2.20927 8.41714 2.54035 8.99364 3.12191C9.00975 3.13818 9.02119 3.15108 9.02418 3.15445C9.03038 3.16144 9.03567 3.16762 9.03847 3.17094L9.05223 3.18755L9.07217 3.21244C9.08551 3.22926 9.1031 3.25168 9.12359 3.27791C9.1649 3.33079 9.22194 3.40424 9.28895 3.49072C9.42316 3.66394 9.59956 3.89234 9.77488 4.11959C9.95028 4.34694 10.1249 4.57352 10.2556 4.74324L10.4497 4.99516C10.985 5.57396 11.2825 6.33405 11.2815 7.12354C11.2806 7.91898 10.9768 8.68386 10.4325 9.26299L9.56756 10.2902C9.99728 11.1912 10.5776 12.0136 11.2846 12.7215C11.9912 13.4289 12.8123 14.01 13.7121 14.4407L14.7387 13.5729C15.3177 13.0273 16.0832 12.7225 16.8794 12.7212C17.6696 12.7199 18.4303 13.0176 19.0095 13.5534L19.2617 13.7476C19.4317 13.8785 19.6586 14.0532 19.8862 14.2288C20.1138 14.4043 20.3425 14.5808 20.5158 14.715C20.6024 14.7821 20.6759 14.8391 20.7287 14.8803L20.7941 14.9316L20.8188 14.9514L20.8352 14.965C20.8385 14.9678 20.8443 14.9727 20.8513 14.9789C20.854 14.9813 20.8694 14.9948 20.8885 15.014C21.4724 15.6003 21.8 16.3945 21.8004 17.2214C21.8008 18.0389 21.4812 18.8238 20.9108 19.4083L20.2419 20.1784C20.2257 20.1971 20.2087 20.215 20.1908 20.2321C18.3676 21.9752 15.9357 22.1099 13.5926 21.3873C11.2563 20.6667 8.88114 19.0684 6.92401 17.1155C4.96673 15.1625 3.36178 12.7893 2.62923 10.4542C1.89516 8.11429 2.00955 5.68091 3.72858 3.85309C3.74682 3.83369 3.76602 3.81522 3.78611 3.79773L4.63488 3.05897ZM18.0028 14.7977C17.9806 14.7806 17.9593 14.7623 17.939 14.743C17.654 14.4716 17.2755 14.3205 16.882 14.3212C16.4886 14.3218 16.1105 14.4741 15.8265 14.7464C15.8145 14.7579 15.8021 14.7691 15.7893 14.7799L14.3619 15.9865C14.1334 16.1797 13.8163 16.2292 13.5399 16.115C12.2727 15.5913 11.1215 14.8223 10.1526 13.8521C9.18362 12.882 8.41601 11.7299 7.89387 10.462C7.7803 10.1862 7.82955 9.87021 8.02164 9.64208L9.22373 8.21449C9.23459 8.2016 9.24585 8.18905 9.2575 8.17686C9.52921 7.89274 9.68108 7.51485 9.68154 7.12167C9.68199 6.7285 9.53102 6.35026 9.25997 6.0655C9.24072 6.04527 9.22254 6.02406 9.20551 6.00194L8.98814 5.71968C8.85752 5.55013 8.68315 5.32388 8.50807 5.09693C8.33291 4.86989 8.15732 4.64254 8.02416 4.47067C7.95748 4.38461 7.902 4.31318 7.86269 4.26286L7.83069 4.22211C7.55318 3.95563 7.1842 3.80447 6.79859 3.80028C6.40052 3.79596 6.01674 3.94862 5.73038 4.22522C5.72043 4.23482 5.71024 4.24417 5.69982 4.25324L4.86804 4.97721C3.70995 6.23133 3.52733 7.97177 4.15587 9.97531C4.79063 11.9987 6.22475 14.1575 8.05414 15.9829C9.88368 17.8085 12.0428 19.2349 14.0642 19.8583C16.065 20.4754 17.8041 20.2802 19.0593 19.1001L19.7191 18.3403C19.7309 18.3268 19.7431 18.3137 19.7557 18.3009C20.0407 18.0143 20.2006 17.6264 20.2004 17.2221C20.2002 16.831 20.0503 16.455 19.7827 16.1718L19.7443 16.1416C19.6939 16.1023 19.6224 16.0468 19.5362 15.9801C19.3642 15.8469 19.1366 15.6712 18.9092 15.4958C18.6819 15.3206 18.4553 15.146 18.2855 15.0153L18.0028 14.7977ZM7.85772 4.24871C7.85759 4.24858 7.85785 4.24884 7.85772 4.24871V4.24871ZM7.86882 4.25969C7.86492 4.25591 7.8612 4.25223 7.85772 4.24871L7.86882 4.25969Z" fill="#33363D"/>
</svg>
