<svg viewBox="0 0 24 24" fill="none" xmlns="http://www.w3.org/2000/svg">
<path d="M19.1992 3C20.1932 3.00001 20.9988 3.80587 20.999 4.7998V19.2002C20.999 20.1943 20.1933 21 19.1992 21H4.7998C3.80579 20.9999 3.00001 20.1942 3 19.2002V4.7998C3.00011 3.80585 3.80585 3.00011 4.7998 3H19.1992ZM4.7998 4.59961C4.6895 4.59971 4.59971 4.6895 4.59961 4.7998V19.2002C4.59962 19.3106 4.68944 19.4003 4.7998 19.4004H19.1992C19.3097 19.4004 19.3994 19.3106 19.3994 19.2002V4.7998C19.3992 4.68952 19.3096 4.60059 19.1992 4.60059L4.7998 4.59961ZM11.999 13.2002C13.0861 13.2002 14.156 13.5057 15.0264 14.0859C15.898 14.6671 16.5336 15.5023 16.7754 16.4736C16.8821 16.9024 16.6211 17.3366 16.1924 17.4434C15.7638 17.5499 15.3294 17.2889 15.2227 16.8604C15.0898 16.3265 14.725 15.8079 14.1387 15.417C13.551 15.0253 12.7949 14.7998 11.999 14.7998C11.2034 14.7999 10.4479 15.0254 9.86035 15.417C9.27406 15.8079 8.90829 16.3265 8.77539 16.8604C8.66853 17.2889 8.23431 17.5501 7.80566 17.4434C7.37721 17.3365 7.11604 16.9022 7.22266 16.4736C7.46447 15.5023 8.10097 14.6671 8.97266 14.0859C9.84286 13.5058 10.9121 13.2003 11.999 13.2002ZM11.999 6.60059C13.5454 6.60059 14.7987 7.85408 14.7988 9.40039C14.7988 10.9468 13.5454 12.2002 11.999 12.2002C10.4527 12.2001 9.19922 10.9467 9.19922 9.40039C9.19932 7.85415 10.4528 6.60069 11.999 6.60059ZM11.999 8.2002C11.3364 8.2003 10.7989 8.7378 10.7988 9.40039C10.7988 10.0631 11.3364 10.6005 11.999 10.6006C12.6618 10.6006 13.1992 10.0631 13.1992 9.40039C13.1991 8.73774 12.6617 8.2002 11.999 8.2002Z" fill="#33363D"/>
</svg>
