<svg viewBox="0 0 24 24" fill="none" xmlns="http://www.w3.org/2000/svg">
<path d="M11.999 1.7002C12.2449 1.7002 12.4773 1.81328 12.6289 2.00684C13.7566 3.44619 15.4873 4.37879 17.4492 4.37891H17.4541C18.1951 4.37891 18.5336 4.246 19.3105 3.94043C19.5568 3.84367 19.8351 3.8745 20.0537 4.02344C20.2723 4.17237 20.4032 4.42006 20.4033 4.68457V11.1201C20.4033 15.5952 18.3551 18.3357 16.292 19.9346C15.271 20.7257 14.2533 21.2333 13.4912 21.5439C13.1092 21.6997 12.7882 21.8068 12.5596 21.876C12.4454 21.9105 12.3541 21.9362 12.2891 21.9531C12.2565 21.9616 12.2298 21.9681 12.2109 21.9727L12.1885 21.9785L12.1807 21.9795L12.1787 21.9805H12.1768C12.0613 22.0063 11.9396 22.0065 11.8242 21.9805H11.8232L11.8203 21.9795L11.8135 21.9775L11.79 21.9727C11.7712 21.9681 11.7453 21.9616 11.7129 21.9531C11.6479 21.9361 11.5566 21.9098 11.4424 21.875C11.2138 21.8054 10.8926 21.6983 10.5107 21.542C9.74907 21.2302 8.73228 20.7206 7.71191 19.9287C5.65006 18.3284 3.60257 15.5882 3.60254 11.1201L3.60156 4.68457C3.60168 4.41999 3.73246 4.17235 3.95117 4.02344C4.17009 3.87445 4.44898 3.84325 4.69531 3.94043C5.46892 4.24563 5.80789 4.37891 6.54883 4.37891C8.51086 4.37888 10.2414 3.44618 11.3691 2.00684C11.5208 1.81332 11.7532 1.70024 11.999 1.7002ZM11.999 3.70508C10.6077 5.09907 8.69107 5.9785 6.54883 5.97852C6.00443 5.97852 5.58762 5.917 5.20215 5.81445V11.1201C5.20215 15.0156 6.95464 17.3163 8.69238 18.665C9.57147 19.3473 10.4542 19.7892 11.1172 20.0605C11.4478 20.1958 11.7212 20.2878 11.9082 20.3447C11.9425 20.3552 11.9737 20.3649 12.002 20.373C12.0303 20.3649 12.0623 20.3551 12.0967 20.3447C12.2837 20.2881 12.5572 20.1972 12.8877 20.0625C13.5508 19.7922 14.4334 19.3512 15.3125 18.6699C17.0501 17.3233 18.8027 15.023 18.8027 11.1201V5.81445C18.4167 5.91725 17.9993 5.97852 17.4541 5.97852H17.4492C15.3071 5.97841 13.3903 5.09903 11.999 3.70508ZM15.4453 9.42285C15.764 9.11713 16.2702 9.12779 16.5762 9.44629C16.882 9.76488 16.8722 10.2711 16.5537 10.5771L11.3486 15.5771C11.1947 15.725 10.9878 15.8051 10.7744 15.7998C10.5612 15.7944 10.3592 15.704 10.2129 15.5488L7.41699 12.585C7.11403 12.2635 7.12885 11.7572 7.4502 11.4541C7.7716 11.151 8.27791 11.166 8.58105 11.4873L10.8223 13.8643L15.4453 9.42285Z" fill="#33363D"/>
</svg>
