<svg viewBox="0 0 24 24" fill="none" xmlns="http://www.w3.org/2000/svg">
<path d="M17.1982 3C19.2969 2.99995 20.998 4.70117 20.998 6.7998C20.998 8.89849 19.2969 10.5996 17.1982 10.5996C16.5352 10.5996 15.9117 10.4304 15.3691 10.1318L10.1309 15.3701C10.3283 15.7287 10.4689 16.1227 10.542 16.54H13.457C13.7695 14.7561 15.3248 13.4005 17.1982 13.4004C19.2969 13.4004 20.999 15.1015 20.999 17.2002C20.9989 19.2987 19.2968 21 17.1982 21C15.4245 20.9998 13.9353 19.7841 13.5166 18.1406H10.4824C10.0638 19.7843 8.57378 21 6.7998 21C4.70127 20.9999 3.00006 19.2987 3 17.2002C3 15.1016 4.70123 13.4005 6.7998 13.4004C7.65459 13.4004 8.44328 13.6828 9.07812 14.1592L14.1582 9.08008C13.8073 8.61287 13.5624 8.06199 13.457 7.46289H10.541C10.2273 9.24545 8.6723 10.5996 6.7998 10.5996C4.70123 10.5995 3 8.8984 3 6.7998C3.00021 4.70138 4.70135 3.00013 6.7998 3C8.57516 2.99998 10.0661 4.21769 10.4834 5.86328H13.5156C13.9329 4.21778 15.423 3.00013 17.1982 3ZM6.7998 15C5.58485 15.0001 4.59961 15.9853 4.59961 17.2002C4.59968 18.415 5.58489 19.4003 6.7998 19.4004C7.88059 19.4004 8.7765 18.6201 8.96191 17.5928C8.93557 17.5135 8.92094 17.4289 8.9209 17.3408C8.9209 17.2248 8.94578 17.1142 8.99023 17.0146C8.89602 15.8865 7.95235 15 6.7998 15ZM17.1982 15C16.2133 15.0001 15.3799 15.6475 15.0996 16.54H16.999C17.4409 16.54 17.7988 16.899 17.7988 17.3408C17.7986 17.7825 17.4407 18.1406 16.999 18.1406H15.2119C15.5647 18.8844 16.3203 19.4003 17.1982 19.4004C18.4132 19.4004 19.3983 18.4151 19.3984 17.2002C19.3984 15.9852 18.4133 15 17.1982 15ZM6.7998 4.60059C5.58497 4.60071 4.59981 5.58506 4.59961 6.7998C4.59961 8.01471 5.58485 8.99991 6.7998 9C7.78388 8.99999 8.61724 8.35398 8.89844 7.46289H6.99902C6.55729 7.46278 6.19922 7.10485 6.19922 6.66309C6.19933 6.22142 6.55735 5.86339 6.99902 5.86328H8.78809C8.43599 5.11745 7.67932 4.60058 6.7998 4.60059ZM17.1982 4.59961C15.9834 4.59975 14.9982 5.58496 14.998 6.7998C14.998 8.01477 15.9833 8.99993 17.1982 9C18.4133 8.99997 19.3984 8.01483 19.3984 6.7998C19.3984 5.58484 18.4132 4.59958 17.1982 4.59961Z" fill="#33363D"/>
</svg>
