<svg viewBox="0 0 24 24" fill="none" xmlns="http://www.w3.org/2000/svg">
<path d="M2 12C2 17.5228 6.47715 22 12 22C17.5228 22 22 17.5228 22 12C22 6.47715 17.5228 2 12 2C6.47715 2 2 6.47715 2 12Z" fill="#256EF4"/>
<path fill-rule="evenodd" clip-rule="evenodd" d="M15.7533 8.33927C16.1181 8.58854 16.2117 9.08634 15.9625 9.45114L11.8625 15.4511C11.7282 15.6477 11.5133 15.7742 11.2763 15.7963C11.0394 15.8185 10.8048 15.7339 10.6364 15.5656L8.13488 13.0656C7.82236 12.7533 7.82221 12.2468 8.13453 11.9343C8.44685 11.6218 8.95338 11.6216 9.2659 11.9339L11.0854 13.7523L14.6414 8.54843C14.8907 8.18364 15.3885 8.08999 15.7533 8.33927Z" fill="white"/>
</svg>
