<svg viewBox="0 0 24 24" fill="none" xmlns="http://www.w3.org/2000/svg">
<path d="M18.6309 4.23486C18.9433 3.92265 19.4494 3.92252 19.7617 4.23486C20.0741 4.54722 20.0739 5.05329 19.7617 5.36572L13.1289 11.9985L19.7656 18.6353C20.078 18.9477 20.0781 19.4547 19.7656 19.7671C19.4533 20.0794 18.9472 20.0792 18.6348 19.7671L11.998 13.1294L5.36133 19.7671C5.04891 20.0792 4.54281 20.0794 4.23047 19.7671C3.91804 19.4547 3.91806 18.9477 4.23047 18.6353L10.8662 11.9985L4.23438 5.36572C3.92215 5.05329 3.92202 4.54722 4.23438 4.23486C4.54673 3.92252 5.05281 3.92265 5.36523 4.23486L11.998 10.8677L18.6309 4.23486Z" fill="#33363D"/>
</svg>
