<svg viewBox="0 0 24 24" fill="none" xmlns="http://www.w3.org/2000/svg">
<path d="M11.2932 3.30705C11.6837 2.91653 12.3169 2.91653 12.7074 3.30705L15.5358 6.13548C15.9264 6.52601 15.9264 7.15917 15.5358 7.54969L12.7074 10.3781C12.3169 10.7686 11.6837 10.7686 11.2932 10.3781L8.46477 7.54969C8.07424 7.15917 8.07424 6.526 8.46477 6.13548L11.2932 3.30705Z" fill="#33363D"/>
<path d="M6.2932 8.50676C6.68372 8.11624 7.31688 8.11624 7.70741 8.50676L10.5358 11.3352C10.9264 11.7257 10.9264 12.3589 10.5358 12.7494L7.70741 15.5778C7.31688 15.9684 6.68372 15.9684 6.2932 15.5778L3.46477 12.7494C3.07424 12.3589 3.07424 11.7257 3.46477 11.3352L6.2932 8.50676Z" fill="#33363D"/>
<path d="M16.2932 8.50676C16.6837 8.11624 17.3169 8.11624 17.7074 8.50676L20.5358 11.3352C20.9264 11.7257 20.9264 12.3589 20.5358 12.7494L17.7074 15.5778C17.3169 15.9684 16.6837 15.9684 16.2932 15.5778L13.4648 12.7494C13.0742 12.3589 13.0742 11.7257 13.4648 11.3352L16.2932 8.50676Z" fill="#33363D"/>
<path d="M11.2932 13.607C11.6837 13.2164 12.3169 13.2164 12.7074 13.607L15.5358 16.4354C15.9264 16.8259 15.9264 17.4591 15.5358 17.8496L12.7074 20.678C12.3169 21.0685 11.6837 21.0685 11.2932 20.678L8.46477 17.8496C8.07424 17.4591 8.07424 16.8259 8.46477 16.4354L11.2932 13.607Z" fill="#33363D"/>
</svg>
