<svg viewBox="0 0 24 24" fill="none" xmlns="http://www.w3.org/2000/svg">
<rect x="22" y="2" width="20" height="20" rx="10" transform="rotate(90 22 2)" fill="#CDD1D5"/>
<path d="M15.9355 6.93457C16.248 6.62235 16.7541 6.62222 17.0664 6.93457C17.3788 7.24692 17.3786 7.75299 17.0664 8.06543L13.1309 12.001L17.0645 15.9346C17.3769 16.247 17.3769 16.753 17.0645 17.0654C16.752 17.3778 16.246 17.3778 15.9336 17.0654L12 13.1318L8.06641 17.0654C7.75399 17.3778 7.24797 17.3778 6.93555 17.0654C6.62313 16.753 6.62313 16.247 6.93555 15.9346L10.8691 12.001L6.93359 8.06543C6.62137 7.75299 6.62124 7.24692 6.93359 6.93457C7.24595 6.62222 7.75202 6.62235 8.06445 6.93457L12 10.8701L15.9355 6.93457Z" fill="#33363D"/>
</svg>
