<svg viewBox="0 0 24 24" fill="none" xmlns="http://www.w3.org/2000/svg">
<path d="M13.5 2C13.7121 2 13.9154 2.08441 14.0654 2.23438L19.7646 7.93457C19.9146 8.08455 19.999 8.28792 19.999 8.5V20.2002C19.999 21.1943 19.1933 22 18.1992 22H5.7998C4.80578 21.9999 4 21.1942 4 20.2002V3.7998C4.00011 2.80585 4.80585 2.00011 5.7998 2H13.5ZM7.99902 16C7.55735 16.0001 7.19932 16.3581 7.19922 16.7998C7.19922 17.2416 7.55729 17.5995 7.99902 17.5996H14.999C15.4409 17.5996 15.7988 17.2416 15.7988 16.7998C15.7987 16.3581 15.4408 16 14.999 16H7.99902ZM7.99902 12.6006C7.55729 12.6007 7.19922 12.9586 7.19922 13.4004C7.19938 13.842 7.55738 14.2001 7.99902 14.2002H11.999C12.4408 14.2002 12.7987 13.8421 12.7988 13.4004C12.7988 12.9586 12.4409 12.6006 11.999 12.6006H7.99902ZM14.2998 7.5C14.2998 7.61046 14.3895 7.7002 14.5 7.7002H17.2686L14.2998 4.73145V7.5Z" fill="#33363D"/>
</svg>
