<svg viewBox="0 0 24 24" fill="none" xmlns="http://www.w3.org/2000/svg">
<path d="M13.5 2C13.7121 2 13.9154 2.08441 14.0654 2.23438L19.7646 7.93457C19.9146 8.08455 19.999 8.28792 19.999 8.5V20.2002C19.999 21.1943 19.1933 22 18.1992 22H5.7998C4.80578 21.9999 4 21.1942 4 20.2002V3.7998C4.00011 2.80585 4.80585 2.00011 5.7998 2H13.5ZM5.7998 3.59961C5.6895 3.59971 5.59971 3.6895 5.59961 3.7998V20.2002C5.59961 20.3106 5.68944 20.4003 5.7998 20.4004H18.1992C18.3097 20.4004 18.3994 20.3107 18.3994 20.2002V9.2998H14.5C13.5059 9.2998 12.7002 8.49411 12.7002 7.5V3.59961H5.7998ZM14.9404 10.5488C15.1896 10.1842 15.687 10.09 16.0518 10.3389C16.4165 10.5881 16.5108 11.0864 16.2617 11.4512L12.1611 17.4512C12.0268 17.6476 11.8121 17.7738 11.5752 17.7959C11.3382 17.818 11.1039 17.7337 10.9355 17.5654L8.43359 15.0654C8.12125 14.7531 8.12136 14.247 8.43359 13.9346C8.74582 13.6222 9.25191 13.6216 9.56445 13.9336L11.3838 15.752L14.9404 10.5488ZM14.2998 7.5C14.2998 7.61046 14.3895 7.7002 14.5 7.7002H17.2686L14.2998 4.73145V7.5Z" fill="#33363D"/>
</svg>
