<svg viewBox="0 0 24 24" fill="none" xmlns="http://www.w3.org/2000/svg">
<path d="M21.1992 15.2002C21.6409 15.2002 21.9988 15.5584 21.999 16V19.2002C21.999 19.642 21.641 20 21.1992 20H2.7998C2.58767 19.9999 2.38436 19.9156 2.23438 19.7656C2.08442 19.6156 1.99995 19.4123 2 19.2002L2.00098 16C2.00119 15.5583 2.35911 15.2002 2.80078 15.2002C3.24261 15.2003 3.60069 15.5591 3.60059 16.001V18.4004H20.3994V16C20.3996 15.5584 20.7575 15.2002 21.1992 15.2002ZM11.999 3C12.4408 3 12.7987 3.35807 12.7988 3.7998V13.5137L16.4229 9.74512C16.7291 9.42698 17.2353 9.41751 17.5537 9.72363C17.872 10.0298 17.8822 10.536 17.5762 10.8545L12.5762 16.0547C12.4253 16.2116 12.2166 16.2998 11.999 16.2998C11.7816 16.2998 11.5736 16.2113 11.4229 16.0547L6.42285 10.8545C6.11673 10.5361 6.1262 10.0299 6.44434 9.72363C6.7628 9.41742 7.26993 9.42669 7.57617 9.74512L11.1992 13.5137V3.7998C11.1993 3.35813 11.5574 3.00011 11.999 3Z" fill="#33363D"/>
</svg>
