<svg viewBox="0 0 24 24" fill="none" xmlns="http://www.w3.org/2000/svg">
<path d="M7.72656 15.5879C8.74983 16.6398 9.78766 17.5538 10.5918 18.2207C10.9933 18.5537 11.335 18.8245 11.5859 19.0176C11.7112 19.114 11.8136 19.1905 11.8887 19.2461C11.9263 19.2739 11.9569 19.2962 11.9795 19.3125L11.999 19.3271L12.0205 19.3125C12.043 19.2963 12.0729 19.2738 12.1104 19.2461C12.1853 19.1906 12.2878 19.1139 12.4131 19.0176C12.6639 18.8247 13.0058 18.5546 13.4072 18.2217C14.2113 17.5549 15.2482 16.6399 16.2715 15.5879C16.3317 15.526 16.3912 15.4631 16.4512 15.4004H18.6133C18.2233 15.8545 17.8206 16.2912 17.4189 16.7041C15.2806 18.9025 13.0963 20.518 12.8799 20.6641L12.4463 20.9561C12.176 21.1381 11.822 21.1383 11.5518 20.9561L11.1191 20.6641L11.1162 20.6621C10.8998 20.515 8.71771 18.9006 6.58008 16.7031C6.17858 16.2904 5.77556 15.8542 5.38574 15.4004H7.54785C7.60765 15.4629 7.6665 15.5262 7.72656 15.5879ZM12.917 9.20508C13.2125 9.17431 13.5012 9.30945 13.666 9.55664L15.4287 12.2002H20.8467C20.7034 12.4746 20.5515 12.7466 20.3877 13.0117C20.2235 13.2774 20.0465 13.5394 19.8633 13.7998H19.5V13.8008H15C14.7327 13.8007 14.4833 13.6666 14.335 13.4443L13.1777 11.71L11.7432 15.2979C11.6432 15.5474 11.4244 15.7301 11.1611 15.7842C10.8978 15.8382 10.6247 15.7564 10.4346 15.5664L8.66895 13.8008L4.5 13.7998H4.13574C3.95251 13.5394 3.77552 13.2774 3.61133 13.0117C3.44751 12.7466 3.29563 12.4745 3.15234 12.2002H9C9.21204 12.2002 9.41543 12.2847 9.56543 12.4346L10.708 13.5771L12.2578 9.70312C12.3681 9.42753 12.6218 9.23597 12.917 9.20508ZM16.1562 3.00098C17.7012 3.06505 19.1649 3.70913 20.2246 4.80469C21.2819 5.89777 21.8509 7.35227 21.7959 8.85352C21.7941 9.43685 21.6902 10.0223 21.5146 10.6006H19.8213C20.0624 9.97871 20.1963 9.38747 20.1963 8.83789C20.1963 8.82748 20.1959 8.81705 20.1963 8.80664C20.2382 7.74758 19.8393 6.70789 19.0742 5.91699C18.313 5.13013 17.2501 4.65337 16.1123 4.60059C15.4095 4.61473 14.7246 4.80319 14.126 5.14551C13.8939 5.27824 13.6396 5.52291 13.377 5.85938C13.1199 6.18868 12.8899 6.56053 12.6914 6.90234C12.5482 7.1488 12.2841 7.30078 11.999 7.30078C11.7142 7.30064 11.4507 7.14864 11.3076 6.90234C11.1091 6.56053 10.8791 6.18868 10.6221 5.85938C10.3594 5.52288 10.1051 5.27825 9.87305 5.14551C9.27441 4.80315 8.5895 4.61474 7.88672 4.60059C6.74891 4.65335 5.68608 5.13015 4.9248 5.91699C4.15976 6.70789 3.76081 7.74757 3.80273 8.80664C3.80314 8.81704 3.80273 8.82748 3.80273 8.83789C3.80274 9.3875 3.93656 9.97871 4.17773 10.6006H2.4834C2.30792 10.0223 2.20494 9.43679 2.20312 8.85352C2.14812 7.35225 2.71707 5.89777 3.77441 4.80469C4.83419 3.70912 6.29783 3.06501 7.84277 3.00098C7.85766 3.00036 7.8728 2.99978 7.8877 3C8.86536 3.0145 9.8241 3.27484 10.667 3.75684C11.1589 4.03813 11.565 4.46655 11.8838 4.875C11.9231 4.92533 11.9613 4.97634 11.999 5.02734C12.0368 4.97624 12.0759 4.92542 12.1152 4.875C12.434 4.46655 12.8402 4.03813 13.332 3.75684C14.1749 3.27488 15.1337 3.01449 16.1113 3C16.1262 2.99979 16.1414 3.00036 16.1562 3.00098Z" fill="#33363D"/>
</svg>
