<svg viewBox="0 0 24 24" fill="none" xmlns="http://www.w3.org/2000/svg">
<path fill-rule="evenodd" clip-rule="evenodd" d="M16.4343 2.43451C16.7467 2.12209 17.2533 2.12209 17.5657 2.43451L21.5657 6.43451C21.7157 6.58454 21.8 6.78802 21.8 7.0002C21.8 7.21237 21.7157 7.41585 21.5657 7.56588L12.5657 16.5659C12.4157 16.7159 12.2122 16.8002 12 16.8002H8C7.55817 16.8002 7.2 16.442 7.2 16.0002V12.0002C7.2 11.788 7.28429 11.5845 7.43431 11.4345L16.4343 2.43451ZM17 4.13157L15.1314 6.0002L18 8.86882L19.8686 7.0002L17 4.13157ZM16.8686 10.0002L14 7.13157L8.8 12.3316V15.2002H11.6686L16.8686 10.0002ZM4.8 4.6002C4.68954 4.6002 4.6 4.68974 4.6 4.8002V19.2002C4.6 19.3107 4.68954 19.4002 4.8 19.4002H19.2C19.3105 19.4002 19.4 19.3107 19.4 19.2002V12.2002C19.4 11.7584 19.7582 11.4002 20.2 11.4002C20.6418 11.4002 21 11.7584 21 12.2002V19.2002C21 20.1943 20.1941 21.0002 19.2 21.0002H4.8C3.80589 21.0002 3 20.1943 3 19.2002V4.8002C3 3.80608 3.80589 3.0002 4.8 3.0002H11.7992C12.241 3.0002 12.5992 3.35837 12.5992 3.8002C12.5992 4.24202 12.241 4.6002 11.7992 4.6002H4.8Z" fill="#33363D"/>
</svg>
