<svg viewBox="0 0 24 24" fill="none" xmlns="http://www.w3.org/2000/svg">
<path fill-rule="evenodd" clip-rule="evenodd" d="M4 2.8C4 2.35817 4.35817 2 4.8 2H19.2002C19.642 2 20.0002 2.35817 20.0002 2.8C20.0002 3.24183 19.642 3.6 19.2002 3.6H4.8C4.35817 3.6 4 3.24183 4 2.8Z" fill="#33363D"/>
<path fill-rule="evenodd" clip-rule="evenodd" d="M16.05 7.08117C15.729 7.3848 15.2226 7.37073 14.919 7.04976L12.8002 4.80986L12.8002 21.2002C12.8002 21.642 12.442 22.0002 12.0002 22.0002C11.5584 22.0002 11.2002 21.642 11.2002 21.2002L11.2002 4.80986L9.08137 7.04976C8.77775 7.37073 8.27141 7.3848 7.95044 7.08117C7.62946 6.77755 7.6154 6.27121 7.91902 5.95024L11.419 2.25024C11.5701 2.0905 11.7803 2 12.0002 2C12.2201 2 12.4303 2.0905 12.5814 2.25024L16.0814 5.95024C16.385 6.27121 16.3709 6.77755 16.05 7.08117Z" fill="#33363D"/>
<path fill-rule="evenodd" clip-rule="evenodd" d="M7.95043 16.919C8.27141 16.6154 8.77775 16.6295 9.08137 16.9504L11.8549 19.8825C11.9338 19.9659 12.0666 19.9659 12.1455 19.8825L14.919 16.9504C15.2226 16.6295 15.729 16.6154 16.05 16.919C16.3709 17.2226 16.385 17.729 16.0814 18.05L13.3078 20.982C12.5977 21.7327 11.4027 21.7327 10.6926 20.982L7.91902 18.05C7.6154 17.729 7.62946 17.2226 7.95043 16.919Z" fill="#33363D"/>
<path fill-rule="evenodd" clip-rule="evenodd" d="M4 21.2C4 20.7582 4.35817 20.4 4.8 20.4H19.2002C19.642 20.4 20.0002 20.7582 20.0002 21.2C20.0002 21.6418 19.642 22 19.2002 22H4.8C4.35817 22 4 21.6418 4 21.2Z" fill="#33363D"/>
</svg>
