<svg viewBox="0 0 24 24" fill="none" xmlns="http://www.w3.org/2000/svg">
<path d="M12 2C17.5228 2 22 6.4772 22 12C22 17.5229 17.5228 22 12 22C6.47715 22 2 17.5228 2 12C2 6.4772 6.47715 2 12 2ZM12 3.59961C7.36081 3.59961 3.59961 7.36085 3.59961 12C3.59961 16.6392 7.36081 20.4004 12 20.4004C16.6391 20.4004 20.4004 16.6392 20.4004 12C20.4004 7.36085 16.6391 3.59961 12 3.59961ZM11.4404 9.04004C11.7528 8.72793 12.2589 8.72787 12.5713 9.04004L15.9658 12.4346C16.2779 12.7469 16.2779 13.2531 15.9658 13.5654C15.6534 13.8778 15.1464 13.8778 14.834 13.5654L12.0059 10.7373L9.17773 13.5654C8.86531 13.8778 8.35832 13.8778 8.0459 13.5654C7.7337 13.2531 7.7337 12.7469 8.0459 12.4346L11.4404 9.04004Z" fill="#33363D"/>
</svg>
