<svg viewBox="0 0 24 24" fill="none" xmlns="http://www.w3.org/2000/svg">
<path d="M12 2C17.5228 2 22 6.4772 22 12C22 17.5229 17.5228 22 12 22C6.47715 22 2 17.5228 2 12C2 6.4772 6.47715 2 12 2ZM12 3.59961C7.36081 3.59961 3.59961 7.36085 3.59961 12C3.59961 16.6392 7.36081 20.4004 12 20.4004C16.6391 20.4004 20.4004 16.6392 20.4004 12C20.4004 7.36085 16.6391 3.59961 12 3.59961ZM10.2354 8.04004C10.5477 7.72784 11.0538 7.72784 11.3662 8.04004L14.7607 11.4346C15.0729 11.747 15.0729 12.2531 14.7607 12.5654L11.3662 15.96C11.0539 16.272 10.5477 16.272 10.2354 15.96C9.92293 15.6475 9.92293 15.1405 10.2354 14.8281L13.0635 12L10.2354 9.17188C9.92293 8.85946 9.92293 8.35246 10.2354 8.04004Z" fill="#33363D"/>
</svg>
