<svg viewBox="0 0 24 24" fill="none" xmlns="http://www.w3.org/2000/svg">
<path d="M12 2C17.5228 2 22 6.4772 22 12C22 17.5229 17.5228 22 12 22C6.47715 22 2 17.5228 2 12C2 6.4772 6.47715 2 12 2ZM12 3.59961C7.36081 3.59961 3.59961 7.36085 3.59961 12C3.59961 16.6392 7.36081 20.4004 12 20.4004C16.6391 20.4004 20.4004 16.6392 20.4004 12C20.4004 7.36085 16.6391 3.59961 12 3.59961ZM11.999 12.7998C12.6768 12.7998 13.3457 12.9503 13.9648 13.2393C14.5836 13.528 15.1388 13.9484 15.5996 14.4707C15.8916 14.802 15.8595 15.3074 15.5283 15.5996C15.1971 15.8918 14.6917 15.8604 14.3994 15.5293C14.0783 15.1653 13.6994 14.8814 13.2881 14.6895C12.877 14.4976 12.4388 14.3994 11.999 14.3994C11.5594 14.3994 11.1219 14.4977 10.7109 14.6895C10.2996 14.8814 9.9208 15.1653 9.59961 15.5293C9.30731 15.8606 8.80104 15.8919 8.46973 15.5996C8.1386 15.3073 8.10721 14.802 8.39941 14.4707C8.86031 13.9483 9.41534 13.5281 10.0342 13.2393C10.6532 12.9504 11.3214 12.7998 11.999 12.7998ZM9 9C9.55228 9 10 9.44772 10 10C10 10.5523 9.55228 11 9 11C8.44772 11 8 10.5523 8 10C8 9.44772 8.44772 9 9 9ZM15 9C15.5523 9 16 9.44772 16 10C16 10.5523 15.5523 11 15 11C14.4477 11 14 10.5523 14 10C14 9.44772 14.4477 9 15 9Z" fill="#256EF4"/>
</svg>
