<svg viewBox="0 0 24 24" fill="none" xmlns="http://www.w3.org/2000/svg">
<path d="M12 2C17.5228 2 22 6.4772 22 12C22 17.5229 17.5228 22 12 22C6.47715 22 2 17.5228 2 12C2 6.4772 6.47715 2 12 2ZM12 3.59961C7.36081 3.59961 3.59961 7.36085 3.59961 12C3.59961 16.6392 7.36081 20.4004 12 20.4004C16.6391 20.4004 20.4004 16.6392 20.4004 12C20.4004 7.36085 16.6391 3.59961 12 3.59961ZM14.3994 13.6709C14.6916 13.3397 15.197 13.3076 15.5283 13.5996C15.8596 13.8919 15.8919 14.3982 15.5996 14.7295C15.1387 15.2519 14.5836 15.6721 13.9648 15.9609C13.3457 16.2499 12.6768 16.3994 11.999 16.3994C11.3215 16.3994 10.6532 16.2497 10.0342 15.9609C9.41543 15.6722 8.86028 15.2518 8.39941 14.7295C8.10711 14.3982 8.13841 13.8919 8.46973 13.5996C8.80104 13.3074 9.30732 13.3396 9.59961 13.6709C9.92074 14.0348 10.2997 14.3188 10.7109 14.5107C11.1219 14.7024 11.5594 14.7998 11.999 14.7998C12.4388 14.7998 12.877 14.7026 13.2881 14.5107C13.6994 14.3188 14.0782 14.0349 14.3994 13.6709ZM9 9C9.55228 9 10 9.44772 10 10C10 10.5523 9.55228 11 9 11C8.44772 11 8 10.5523 8 10C8 9.44772 8.44772 9 9 9ZM15 9C15.5523 9 16 9.44772 16 10C16 10.5523 15.5523 11 15 11C14.4477 11 14 10.5523 14 10C14 9.44772 14.4477 9 15 9Z" fill="#256EF4"/>
</svg>
