<svg viewBox="0 0 24 24" fill="none" xmlns="http://www.w3.org/2000/svg">
<path fill-rule="evenodd" clip-rule="evenodd" d="M3.99922 4.2002C3.00511 4.2002 2.19922 5.00608 2.19922 6.0002V18.0002C2.19922 18.9943 3.00511 19.8002 3.99922 19.8002H19.9992C20.9933 19.8002 21.7992 18.9943 21.7992 18.0002V6.0002C21.7992 5.00608 20.9933 4.2002 19.9992 4.2002H3.99922ZM3.79922 6.0002C3.79922 5.88974 3.88876 5.8002 3.99922 5.8002H8.99924L8.99924 18.2002H3.99922C3.88876 18.2002 3.79922 18.1107 3.79922 18.0002V6.0002ZM10.5992 18.2002H19.9992C20.1097 18.2002 20.1992 18.1107 20.1992 18.0002V6.0002C20.1992 5.88974 20.1097 5.8002 19.9992 5.8002H10.5992L10.5992 18.2002Z" fill="#33363D"/>
</svg>
