<svg viewBox="0 0 24 24" fill="none" xmlns="http://www.w3.org/2000/svg">
<path fill-rule="evenodd" clip-rule="evenodd" d="M11.5843 19.6839C7.92623 17.491 4.61478 18.7882 3.47922 19.6399C3.2368 19.8217 2.91248 19.851 2.64145 19.7154C2.37042 19.5799 2.19922 19.3029 2.19922 18.9999V6.9999C2.19922 6.7481 2.31777 6.51099 2.51922 6.3599C3.99748 5.2512 7.79739 3.81219 11.9654 6.06025C13.7402 4.98484 17.4416 3.93237 21.4108 6.31391C21.6518 6.45849 21.7992 6.71889 21.7992 6.9999V18.9999C21.7992 19.2881 21.6442 19.5541 21.3934 19.6961C21.1426 19.8381 20.8348 19.8342 20.5876 19.6859C16.932 17.4925 13.6219 18.7853 12.4827 19.6373C12.4685 19.648 12.454 19.6583 12.439 19.6682C12.3876 19.7021 12.333 19.7295 12.2765 19.7503C12.1838 19.7846 12.0863 19.8011 11.9891 19.7998C11.9077 19.7988 11.8264 19.7854 11.7482 19.7595C11.7042 19.745 11.6612 19.7265 11.6197 19.7042C11.6077 19.6977 11.5959 19.6909 11.5843 19.6839ZM3.79922 17.6283V7.42493C5.10478 6.63161 7.99164 5.74092 11.1992 7.46506V17.6856C8.23622 16.3833 5.52649 16.864 3.79922 17.6283ZM12.7992 17.6283C14.5265 16.864 17.2362 16.3833 20.1992 17.6856V7.46506C16.9916 5.74092 14.1048 6.63161 12.7992 7.42493V17.6283Z" fill="#33363D"/>
<circle cx="20" cy="7" r="3" fill="#256EF4"/>
<circle cx="20" cy="7" r="4" fill="#256EF4"/>
</svg>
