<svg viewBox="0 0 24 24" fill="none" xmlns="http://www.w3.org/2000/svg">
<path d="M12 2C17.5228 2 22 6.47715 22 12C22 17.5228 17.5228 22 12 22C6.47715 22 2 17.5228 2 12C2 6.47715 6.47715 2 12 2ZM8.74219 15.7998C8.94777 16.6291 9.21694 17.3743 9.5332 18.0068C10.3049 19.55 11.2228 20.2001 11.999 20.2002C12.7754 20.2002 13.694 19.5503 14.4658 18.0068C14.7821 17.3743 15.0503 16.6291 15.2559 15.7998H8.74219ZM16.8994 15.7998C16.66 16.8857 16.3199 17.8748 15.8965 18.7217C15.7209 19.0728 15.5242 19.4086 15.3096 19.7217C17.1207 18.9444 18.6014 17.5483 19.4902 15.7998H16.8994ZM4.50977 15.7998C5.39809 17.5474 6.87764 18.9432 8.6875 19.7207C8.47323 19.408 8.2769 19.0723 8.10156 18.7217C7.67821 17.8749 7.33897 16.8856 7.09961 15.7998H4.50977ZM3.89258 9.7998C3.7027 10.5012 3.59961 11.2386 3.59961 12C3.59961 12.7639 3.70345 13.5036 3.89453 14.207C3.92873 14.2026 3.96361 14.2002 3.99902 14.2002H6.83008C6.74512 13.4911 6.69922 12.7543 6.69922 12C6.69923 11.2456 6.7451 10.5089 6.83008 9.7998H3.89258ZM17.1689 9.7998C17.2539 10.5089 17.2988 11.2457 17.2988 12C17.2988 12.7543 17.2539 13.4911 17.1689 14.2002H19.999C20.0347 14.2002 20.07 14.2025 20.1045 14.207C20.2956 13.5035 20.4004 12.764 20.4004 12C20.4004 11.2386 20.2973 10.5012 20.1074 9.7998H17.1689ZM8.44141 9.7998C8.34916 10.4981 8.29884 11.2354 8.29883 12C8.29883 12.7645 8.34918 13.502 8.44141 14.2002H15.5566C15.6489 13.502 15.6992 12.7645 15.6992 12C15.6992 11.2354 15.6489 10.4981 15.5566 9.7998H8.44141ZM15.3086 4.27734C15.5235 4.59077 15.7207 4.92672 15.8965 5.27832C16.3199 6.12508 16.66 7.11442 16.8994 8.2002H19.4902C18.6013 6.4513 17.1203 5.05454 15.3086 4.27734ZM8.68848 4.27832C6.87808 5.05575 5.39829 6.45221 4.50977 8.2002H7.09961C7.33899 7.11447 7.6782 6.12504 8.10156 5.27832C8.27715 4.92715 8.47385 4.59142 8.68848 4.27832ZM11.999 3.7998C11.2227 3.79991 10.3049 4.45068 9.5332 5.99414C9.21702 6.62651 8.94873 7.37111 8.74316 8.2002H15.2559C15.0503 7.37113 14.782 6.62651 14.4658 5.99414C13.694 4.4505 12.7754 3.7998 11.999 3.7998Z" fill="#33363D"/>
</svg>
