<svg viewBox="0 0 24 24" fill="none" xmlns="http://www.w3.org/2000/svg">
<path d="M22 12C22 17.5235 17.5221 22 12.0009 22C6.47973 22 2 17.5235 2 12C2 6.47645 6.47604 2 12.0009 2C17.5258 2 22 6.4783 22 12Z" fill="white"/>
<path d="M16.7707 11.3037C15.172 10.2233 13.1259 10.6629 12.0509 12.288C11.1559 13.6453 9.80238 13.8152 9.28064 13.8152C7.57059 13.8152 6.4027 12.6185 6.05549 11.3812C6.05178 11.3683 6.04807 11.3572 6.04621 11.3461C6.0425 11.3332 6.04064 11.3184 6.03507 11.3037C5.89767 10.7866 5.86425 10.541 5.86425 9.9925C5.86425 7.0359 8.91672 3.74135 13.3097 3.74135C17.7028 3.74135 20.3857 7.14855 21.0523 9.04329C21.0393 9.0082 21.0282 8.9768 21.017 8.94356C19.7396 5.23719 16.2062 2.57422 12.0472 2.57422C6.81675 2.57422 2.57227 6.79213 2.57227 11.9999C2.57227 16.6536 5.94595 20.6352 10.6286 20.6352C14.3607 20.6352 16.8691 18.5558 18.0184 15.6841C18.6497 14.1144 18.2041 12.2714 16.7707 11.3018" fill="#003964"/>
<path d="M21.105 9.22598C20.5498 7.37741 17.9578 3.74121 13.3049 3.74121C8.91184 3.74121 5.85938 7.03576 5.85938 9.99237C5.85938 10.5408 5.89465 10.7865 6.03019 11.3035C5.97264 11.0764 5.94293 10.8511 5.94293 10.6313C5.94293 7.551 9.04367 5.41619 12.2317 5.41619C16.5486 5.41619 20.0467 8.89541 20.0467 13.1872C20.0467 16.5501 18.0989 19.4642 15.273 20.8622C18.9196 19.551 21.5228 16.0773 21.5228 11.9998C21.5228 11.0339 21.3928 10.1826 21.1069 9.22598" fill="#ED1A3B"/>
</svg>
