<svg viewBox="0 0 24 24" fill="none" xmlns="http://www.w3.org/2000/svg">
<path fill-rule="evenodd" clip-rule="evenodd" d="M11.9977 4.2001C7.68984 4.2001 4.19766 7.69228 4.19766 12.0001V13.1044L7.24248 13.0785C8.24254 13.0699 9.0578 13.8783 9.0578 14.8784V19.6001C9.0578 20.5942 8.25191 21.4001 7.2578 21.4001H4.39766C3.40354 21.4001 2.59766 20.5942 2.59766 19.6001V12.0001C2.59766 6.80862 6.80618 2.6001 11.9977 2.6001C17.1891 2.6001 21.3977 6.80862 21.3977 12.0001V19.6001C21.3977 20.5942 20.5918 21.4001 19.5977 21.4001H16.7361C15.7419 21.4001 14.9361 20.5942 14.9361 19.6001V14.9112C14.9361 13.9171 15.7419 13.1112 16.7361 13.1112H19.7977V12.0001C19.7977 7.69228 16.3055 4.2001 11.9977 4.2001ZM19.7977 14.7112H16.7361C16.6256 14.7112 16.5361 14.8008 16.5361 14.9112V19.6001C16.5361 19.7106 16.6256 19.8001 16.7361 19.8001H19.5977C19.7081 19.8001 19.7977 19.7106 19.7977 19.6001V14.7112ZM4.19766 14.7044V19.6001C4.19766 19.7106 4.2872 19.8001 4.39766 19.8001H7.2578C7.36825 19.8001 7.4578 19.7106 7.4578 19.6001V14.8784C7.4578 14.7673 7.36721 14.6775 7.25609 14.6784L4.19766 14.7044Z" fill="#33363D"/>
</svg>
