<svg viewBox="0 0 24 24" fill="none" xmlns="http://www.w3.org/2000/svg">
<path d="M3.3499 10.4005L11.3499 3.55607C11.7242 3.23587 12.2758 3.23587 12.6501 3.55607L20.6501 10.4005C20.8722 10.5905 21 10.8681 21 11.1604V20.1999C21 20.7522 20.5523 21.1999 20 21.1999H15.25C14.6977 21.1999 14.25 20.7522 14.25 20.1999V15.7001C14.25 15.4239 14.0261 15.2001 13.75 15.2001H10.25C9.97386 15.2001 9.75 15.4239 9.75 15.7001V20.1999C9.75 20.7522 9.30228 21.1999 8.75 21.1999H4C3.44772 21.1999 3 20.7522 3 20.1999V11.1604C3 10.8681 3.12784 10.5905 3.3499 10.4005Z" fill="#33363D"/>
</svg>
