<svg viewBox="0 0 24 24" fill="none" xmlns="http://www.w3.org/2000/svg">
<path d="M12.999 2.6001C13.9931 2.6001 14.7987 3.40588 14.7988 4.3999V5.6001H20.1982C21.1923 5.6001 21.9979 6.40588 21.998 7.3999V18.1997C21.998 19.1938 21.1924 20.0005 20.1982 20.0005H3.7998C2.80578 20.0004 2 19.1938 2 18.1997V7.3999C2.00011 6.40595 2.80585 5.6002 3.7998 5.6001H9.19922V4.3999C9.19932 3.40594 10.0051 2.6002 10.999 2.6001H12.999ZM3.7998 7.19971C3.6895 7.19981 3.59972 7.2896 3.59961 7.3999V18.1997C3.59961 18.3101 3.68944 18.3998 3.7998 18.3999H20.1982C20.3087 18.3999 20.3984 18.3102 20.3984 18.1997V7.3999C20.3983 7.28954 20.3086 7.19971 20.1982 7.19971H14.7988V8.3999C14.7988 9.39401 13.9931 10.1997 12.999 10.1997H10.999C10.005 10.1996 9.19922 9.39395 9.19922 8.3999V7.19971H3.7998ZM9.40234 14.4009C10.5069 14.4009 11.4023 15.2963 11.4023 16.4009V16.8013H5.40234V16.4009C5.40234 15.2963 6.29777 14.4009 7.40234 14.4009H9.40234ZM17.999 14.6001C18.4408 14.6001 18.7987 14.9582 18.7988 15.3999C18.7988 15.8417 18.4409 16.1997 17.999 16.1997H12.999C12.5573 16.1996 12.1992 15.8417 12.1992 15.3999C12.1993 14.9582 12.5574 14.6002 12.999 14.6001H17.999ZM8.45117 11.0005C9.19663 11.0005 9.80155 11.6047 9.80176 12.3501C9.80149 13.0955 9.19659 13.7007 8.45117 13.7007C7.70593 13.7005 7.10183 13.0953 7.10156 12.3501C7.10177 11.6048 7.7059 11.0007 8.45117 11.0005ZM17.999 11.6001C18.4408 11.6001 18.7987 11.9582 18.7988 12.3999C18.7988 12.8417 18.4409 13.1997 17.999 13.1997H12.999C12.5573 13.1996 12.1992 12.8417 12.1992 12.3999C12.1993 11.9582 12.5574 11.6002 12.999 11.6001H17.999ZM10.999 4.19971C10.8887 4.19981 10.7989 4.2896 10.7988 4.3999V8.3999C10.7988 8.51029 10.8887 8.59999 10.999 8.6001H12.999C13.1095 8.6001 13.1992 8.51036 13.1992 8.3999V4.3999C13.1991 4.28954 13.1094 4.19971 12.999 4.19971H10.999Z" fill="#33363D"/>
</svg>
