<svg viewBox="0 0 24 24" fill="none" xmlns="http://www.w3.org/2000/svg">
<path d="M11.999 2.2002C17.4113 2.2002 21.7987 6.5877 21.7988 12V21.7998H11.999C6.58672 21.7997 2.19922 17.4123 2.19922 12C2.19932 6.58776 6.58679 2.2003 11.999 2.2002ZM11.999 3.7998C7.47044 3.79991 3.79893 7.47142 3.79883 12C3.79883 16.5287 7.47038 20.2001 11.999 20.2002H20.1992V12C20.1991 7.47135 16.5277 3.7998 11.999 3.7998ZM7.59766 11.5312C8.14994 11.5312 8.59766 11.979 8.59766 12.5312C8.59766 13.0835 8.14994 13.5312 7.59766 13.5312C7.04537 13.5312 6.59766 13.0835 6.59766 12.5312C6.59766 11.979 7.04537 11.5312 7.59766 11.5312ZM11.9961 11.5312C12.5484 11.5312 12.9961 11.979 12.9961 12.5312C12.9961 13.0835 12.5484 13.5312 11.9961 13.5312C11.4438 13.5312 10.9961 13.0835 10.9961 12.5312C10.9961 11.979 11.4438 11.5312 11.9961 11.5312ZM16.3945 11.5312C16.9468 11.5312 17.3945 11.979 17.3945 12.5312C17.3945 13.0835 16.9468 13.5312 16.3945 13.5312C15.8422 13.5312 15.3945 13.0835 15.3945 12.5312C15.3945 11.979 15.8422 11.5312 16.3945 11.5312Z" fill="#33363D"/>
</svg>
