<svg viewBox="0 0 24 24" fill="none" xmlns="http://www.w3.org/2000/svg">
<path d="M4.17285 14.2637C7.91665 12.7094 12.1344 12.759 15.8408 14.4004L15.9336 14.4414C16.9466 14.89 17.5996 15.8941 17.5996 17.002V19.2002C17.5996 19.642 17.2416 20 16.7998 20H2.7998C2.35807 19.9999 2 19.642 2 19.2002V17.0352C2.00009 15.9036 2.68148 14.8831 3.72656 14.4492L4.17285 14.2637ZM15.1924 15.8633C11.8867 14.3995 8.12511 14.3559 4.78613 15.7422L4.33984 15.9268C3.89199 16.1127 3.5997 16.5503 3.59961 17.0352V18.4004H16V17.002C16 16.5272 15.7202 16.0966 15.2861 15.9043L15.1924 15.8633ZM18.499 6C18.9408 6 19.2987 6.35807 19.2988 6.7998V8.7002H21.1992C21.641 8.7002 21.9989 9.05826 21.999 9.5C21.999 9.94183 21.641 10.2998 21.1992 10.2998H19.2988V12.2002C19.2988 12.642 18.9409 13 18.499 13C18.0573 12.9999 17.6992 12.642 17.6992 12.2002V10.2998H15.7998C15.3581 10.2997 15 9.94176 15 9.5C15.0001 9.05833 15.3581 8.7003 15.7998 8.7002H17.6992V6.7998C17.6993 6.35813 18.0574 6.00011 18.499 6ZM9.7998 4C11.8984 4 13.5995 5.70121 13.5996 7.7998C13.5996 9.89849 11.8985 11.5996 9.7998 11.5996C7.70121 11.5995 6 9.89842 6 7.7998C6.00011 5.70128 7.70128 4.00011 9.7998 4ZM9.7998 5.59961C8.58493 5.59971 7.59971 6.58493 7.59961 7.7998C7.59961 9.01477 8.58487 9.99989 9.7998 10C11.0148 10 12 9.01483 12 7.7998C11.9999 6.58487 11.0148 5.59961 9.7998 5.59961Z" fill="#33363D"/>
</svg>
