<svg viewBox="0 0 24 24" fill="none" xmlns="http://www.w3.org/2000/svg">
<path d="M10.7871 17.7603C13.503 15.4484 17.495 15.4485 20.2109 17.7603C20.7104 18.1854 20.998 18.8084 20.998 19.4644V21.0005H10V19.4644C10 18.8085 10.2877 18.1854 10.7871 17.7603ZM10.9785 2.6001C11.1907 2.59451 11.3968 2.67367 11.5508 2.81982L15.7461 6.80518C15.664 6.80081 15.5812 6.79932 15.498 6.79932C14.8869 6.79937 14.304 6.9198 13.7705 7.13623L11.0293 4.53174L4.59961 11.3188V19.3999H8.19922C8.26986 19.3999 8.33808 19.4101 8.40332 19.4272C8.40321 19.4393 8.40235 19.4513 8.40234 19.4634V20.9731C8.33743 20.9902 8.26947 20.9995 8.19922 20.9995H3.7998C3.35807 20.9994 3 20.6415 3 20.1997V10.9995C3.00009 10.7949 3.07903 10.5982 3.21973 10.4497L10.4189 2.8501C10.5649 2.69603 10.7664 2.6058 10.9785 2.6001ZM19.1738 18.978C17.0557 17.1754 13.9423 17.1753 11.8242 18.978C11.6983 19.0852 11.62 19.237 11.6035 19.3999H19.3955C19.3791 19.237 19.2998 19.0852 19.1738 18.978ZM15.498 8.39893C15.913 8.39893 16.3085 8.48284 16.668 8.63525C17.7447 9.0907 18.5 10.1573 18.5 11.3999C18.4999 13.0567 17.1568 14.3999 15.5 14.3999C13.8432 14.3999 12.5001 13.0567 12.5 11.3999C12.5 9.86973 13.6457 8.60747 15.126 8.42334L15.125 8.42236C15.1438 8.42003 15.1627 8.41851 15.1816 8.4165C15.1914 8.41548 15.2012 8.41451 15.2109 8.41357C15.3055 8.40447 15.4012 8.39894 15.498 8.39893ZM15.5 9.99951C14.7268 9.99951 14.0996 10.6267 14.0996 11.3999C14.0997 12.173 14.7268 12.7993 15.5 12.7993C16.2732 12.7993 16.9003 12.173 16.9004 11.3999C16.9004 10.6267 16.2732 9.99951 15.5 9.99951Z" fill="#33363D"/>
</svg>
