<svg viewBox="0 0 24 24" fill="none" xmlns="http://www.w3.org/2000/svg">
<path d="M20.1992 4C21.1933 4 21.9989 4.80578 21.999 5.7998V18.2002C21.999 19.1943 21.1933 20 20.1992 20H3.7998C2.80578 19.9999 2.00001 19.1942 2 18.2002V5.7998C2.0002 4.80593 2.8059 4.00011 3.7998 4H20.1992ZM3.7998 5.60059C3.68956 5.60069 3.59981 5.68958 3.59961 5.7998V18.2002C3.59961 18.3106 3.68944 18.4003 3.7998 18.4004H20.1992C20.3097 18.4004 20.3994 18.3106 20.3994 18.2002V5.7998C20.3993 5.68944 20.3096 5.59961 20.1992 5.59961L3.7998 5.60059ZM18.2002 13.2002C18.6419 13.2003 18.9999 13.5583 19 14C19 14.4418 18.6419 14.7997 18.2002 14.7998H15.2002C14.7584 14.7998 14.4004 14.4418 14.4004 14C14.4005 13.5583 14.7584 13.2002 15.2002 13.2002H18.2002ZM6.40039 10.5996C7.17341 10.5998 7.7998 11.2269 7.7998 12C7.7998 12.7731 7.17341 13.4002 6.40039 13.4004C5.62719 13.4004 5 12.7732 5 12C5 11.2268 5.62719 10.5996 6.40039 10.5996ZM11.4004 10.5996C12.1734 10.5998 12.7998 11.2269 12.7998 12C12.7998 12.7731 12.1734 13.4002 11.4004 13.4004C10.6272 13.4004 10 12.7732 10 12C10 11.2268 10.6272 10.5996 11.4004 10.5996Z" fill="#33363D"/>
</svg>
