<svg viewBox="0 0 24 24" fill="none" xmlns="http://www.w3.org/2000/svg">
<path d="M20.1992 3C20.4113 3 20.6146 3.08441 20.7646 3.23438C20.9146 3.38436 20.999 3.5877 20.999 3.7998V20.2031C20.9989 20.6448 20.6409 21.0029 20.1992 21.0029H12.7998C12.3582 21.0028 12.0002 20.6447 12 20.2031C12 19.7614 12.3581 19.4025 12.7998 19.4023H19.3994V4.59961L12.7998 4.60059C12.3581 4.60048 12 4.24156 12 3.7998C12.0002 3.35822 12.3582 3.00011 12.7998 3H20.1992ZM9.22363 6.44531C9.5299 6.12718 10.0361 6.11771 10.3545 6.42383L15.5547 11.4238C15.7113 11.5746 15.7998 11.7826 15.7998 12C15.7998 12.2176 15.7116 12.4263 15.5547 12.5771L10.3545 17.5771C10.0361 17.8832 9.52984 17.873 9.22363 17.5547C8.91751 17.2363 8.92698 16.7301 9.24512 16.4238L13.0137 12.7998H3.40137C2.95963 12.7997 2.60156 12.4418 2.60156 12C2.60167 11.5583 2.95969 11.2003 3.40137 11.2002H13.0137L9.24512 7.57715C8.92669 7.27091 8.91742 6.76378 9.22363 6.44531Z" fill="currentColor"/>
</svg>
