<svg viewBox="0 0 24 24" fill="none" xmlns="http://www.w3.org/2000/svg">
<path d="M11.1992 3C11.6409 3.00001 11.9988 3.35817 11.999 3.7998C11.999 4.24163 11.641 4.60059 11.1992 4.60059L4.59961 4.59961V19.4023H11.1992C11.641 19.4023 11.999 19.7613 11.999 20.2031C11.9989 20.6448 11.6409 21.0029 11.1992 21.0029H3.7998C3.35817 21.0028 3.00016 20.6447 3 20.2031V3.7998C3.00005 3.5877 3.08439 3.38436 3.23438 3.23438C3.38436 3.0844 3.58771 3.00005 3.7998 3H11.1992ZM14.8213 6.44531C15.1275 6.12683 15.6346 6.11759 15.9531 6.42383L21.1533 11.4238C21.3099 11.5746 21.3984 11.7826 21.3984 12C21.3984 12.2176 21.3101 12.4263 21.1533 12.5771L15.9531 17.5771C15.6346 17.8833 15.1275 17.8732 14.8213 17.5547C14.5154 17.2363 14.5256 16.73 14.8438 16.4238L18.6123 12.7998H9C8.55817 12.7998 8.2002 12.4418 8.2002 12C8.2003 11.5583 8.55824 11.2002 9 11.2002H18.6123L14.8438 7.57715C14.5253 7.27093 14.5151 6.7638 14.8213 6.44531Z" fill="currentColor"/>
</svg>
