<svg viewBox="0 0 24 24" fill="none" xmlns="http://www.w3.org/2000/svg">
<path d="M20.2002 4C21.1942 4.0001 21.9999 4.80585 22 5.7998V18.2002C21.9999 19.1941 21.1941 19.9999 20.2002 20H3.7998C2.80586 19.9999 2.00013 19.1941 2 18.2002V5.7998C2.00025 4.80597 2.80593 4.00011 3.7998 4H20.2002ZM12.4629 15.1533C12.1862 15.3487 11.8167 15.3488 11.54 15.1533L3.59961 9.54297V18.2002C3.59974 18.3105 3.68952 18.4003 3.7998 18.4004H20.2002C20.3105 18.4003 20.4003 18.3105 20.4004 18.2002V9.54004L12.4629 15.1533ZM3.7998 5.60059C3.68959 5.60069 3.59986 5.68962 3.59961 5.7998V7.58398L12.001 13.5205L20.4004 7.58008V5.7998C20.4003 5.6895 20.3105 5.59971 20.2002 5.59961L3.7998 5.60059Z" fill="#33363D"/>
</svg>
