<svg viewBox="0 0 24 24" fill="none" xmlns="http://www.w3.org/2000/svg">
<path d="M8.68945 3.06348C8.87627 2.98444 9.0869 2.979 9.27734 3.04883L14.9805 5.14062L19.8916 3.06348C20.1386 2.95903 20.4219 2.98561 20.6455 3.13379C20.8687 3.28195 21.0028 3.53191 21.0029 3.7998V17.7998C21.0029 18.1119 20.8215 18.3956 20.5381 18.5264L15.3369 20.9268C15.1374 21.0188 14.9082 21.025 14.7041 20.9434L9.02441 18.6709L4.41895 20.7959C3.75644 21.1014 3.00016 20.6172 3 19.8877L3.00195 6C3.00199 5.67866 3.19429 5.38888 3.49023 5.26367L8.68945 3.06348ZM9.79883 17.2568L14.1992 19.0166V6.55762L9.79883 4.94434V17.2568ZM15.7988 6.53125V18.9502L19.4033 17.2881V5.00684L15.7988 6.53125ZM4.60156 6.53027L4.60059 18.9502L8.19922 17.2891V5.00781L4.60156 6.53027Z" fill="#33363D"/>
</svg>
