<svg viewBox="0 0 24 24" fill="none" xmlns="http://www.w3.org/2000/svg">
<path d="M10.8984 2.40039C15.5929 2.40039 19.3984 6.20597 19.3984 10.9004C19.3984 12.9589 18.6658 14.8457 17.4482 16.3164L20.7666 19.6348C21.0785 19.9471 21.0786 20.4533 20.7666 20.7656C20.4542 21.078 19.9472 21.078 19.6348 20.7656L16.3174 17.4482C14.8462 18.6671 12.9582 19.4004 10.8984 19.4004C6.20402 19.4004 2.39844 15.5948 2.39844 10.9004C2.39844 6.20597 6.20402 2.40039 10.8984 2.40039ZM10.8984 4C7.08767 4 3.99805 7.08963 3.99805 10.9004C3.99805 14.7112 7.08767 17.8008 10.8984 17.8008C12.7149 17.8008 14.3655 17.0966 15.5977 15.9492C15.6349 15.8757 15.6847 15.8065 15.7461 15.7451C15.8078 15.6834 15.8773 15.634 15.9512 15.5967C17.0966 14.3649 17.7988 12.7151 17.7988 10.9004C17.7988 7.08963 14.7092 4 10.8984 4ZM10.9033 7.10059C11.3451 7.10069 11.7031 7.45863 11.7031 7.90039V10.1006H13.9014C14.3432 10.1006 14.7012 10.4586 14.7012 10.9004C14.701 11.3421 14.3431 11.7002 13.9014 11.7002H11.7031V13.9004C11.703 14.342 11.345 14.7001 10.9033 14.7002C10.4616 14.7002 10.1037 14.3421 10.1035 13.9004V11.7002H7.90137C7.45973 11.7001 7.10172 11.342 7.10156 10.9004C7.10156 10.4586 7.45963 10.1007 7.90137 10.1006H10.1035V7.90039C10.1035 7.45856 10.4615 7.10059 10.9033 7.10059Z" fill="#33363D"/>
</svg>
