<svg viewBox="0 0 24 24" fill="none" xmlns="http://www.w3.org/2000/svg">
<path d="M4.14355 13.3574C9.05449 10.1417 15.4274 10.2348 20.2422 13.5928C20.7165 13.9237 20.9989 14.4656 20.999 15.0439V19.2002C20.9988 20.1942 20.1932 21 19.1992 21H4.7998C3.80589 20.9999 3.00017 20.1941 3 19.2002V15.0791C3 14.4722 3.30584 13.9059 3.81348 13.5732L4.14355 13.3574ZM19.3262 14.9053C15.0473 11.9212 9.38381 11.8385 5.01953 14.6963L4.69043 14.9111C4.634 14.9481 4.59961 15.0116 4.59961 15.0791V19.2002C4.59978 19.3104 4.68954 19.3993 4.7998 19.3994H19.1992C19.3096 19.3994 19.3992 19.3105 19.3994 19.2002V15.0439C19.3993 14.9886 19.3716 14.9369 19.3262 14.9053ZM12 2C14.2091 2 16 3.79086 16 6C16 8.20914 14.2091 10 12 10C9.79086 10 8 8.20914 8 6C8 3.79086 9.79086 2 12 2ZM12 3.59961C10.6745 3.59961 9.59961 4.67452 9.59961 6C9.59961 7.32548 10.6745 8.40039 12 8.40039C13.3255 8.40039 14.4004 7.32548 14.4004 6C14.4004 4.67452 13.3255 3.59961 12 3.59961Z" fill="#33363D"/>
</svg>
