<svg viewBox="0 0 24 24" fill="none" xmlns="http://www.w3.org/2000/svg">
<path d="M10.3291 3.98584C10.5456 3.98543 10.7533 4.07283 10.9043 4.22803L12.3359 5.69971H20.1992C21.1933 5.69977 21.999 6.50641 21.999 7.50049V18.1997C21.999 19.1938 21.1933 20.0004 20.1992 20.0005H3.79785C2.80391 20.0005 1.99734 19.1946 1.99707 18.2007L1.99609 5.79834C1.99599 4.80547 2.8001 4.0004 3.79297 3.99854L10.3291 3.98584ZM3.7959 5.59814C3.68558 5.59835 3.59569 5.68802 3.5957 5.79834L3.59766 18.2007C3.59792 18.3109 3.68756 18.3999 3.79785 18.3999H20.1992C20.3096 18.3998 20.3994 18.3101 20.3994 18.1997V7.50049C20.3994 7.39007 20.3096 7.30035 20.1992 7.30029H11.9971C11.7812 7.30016 11.5743 7.21286 11.4238 7.05811L9.99316 5.58643L3.7959 5.59814ZM15.001 9.69971C15.4427 9.69981 15.8008 10.0587 15.8008 10.5005V12.2007H17.499C17.9409 12.2007 18.2988 12.5587 18.2988 13.0005C18.2987 13.4422 17.9408 13.8003 17.499 13.8003H15.8008V15.5005C15.8006 15.9421 15.4426 16.3002 15.001 16.3003C14.5592 16.3003 14.2013 15.9422 14.2012 15.5005V13.8003H12.499C12.0574 13.8002 11.6994 13.4421 11.6992 13.0005C11.6992 12.5587 12.0573 12.2008 12.499 12.2007H14.2012V10.5005C14.2012 10.0587 14.5591 9.69971 15.001 9.69971Z" fill="#33363D"/>
</svg>
