<svg viewBox="0 0 24 24" fill="none" xmlns="http://www.w3.org/2000/svg">
<path d="M19.5244 13.75C19.773 13.3848 20.2705 13.2905 20.6357 13.5391C21.0007 13.7877 21.0952 14.2852 20.8467 14.6504L16.7637 20.6504C16.6296 20.8473 16.414 20.9737 16.1768 20.9961C15.9397 21.0183 15.7046 20.934 15.5361 20.7656L13.0352 18.2656C12.7228 17.9533 12.7229 17.4472 13.0352 17.1348C13.3474 16.8224 13.8535 16.8218 14.166 17.1338L15.9844 18.9512L19.5244 13.75ZM11.4287 11.3203C13.8087 11.3203 15.9391 12.3901 17.3691 14.0801L16.4189 15.4795C15.2889 13.9296 13.4786 12.9199 11.4287 12.9199C8.2788 12.92 5.66929 15.2804 5.2793 18.3203H11.2891C11.3991 18.7201 11.6093 19.0995 11.9092 19.3994L12.4287 19.9199H4.42871C3.9889 19.9198 3.62907 19.5599 3.62891 19.1201C3.62891 14.8202 7.1288 11.3204 11.4287 11.3203ZM10.999 3C13.0976 3 14.7987 4.70121 14.7988 6.7998C14.7988 8.89848 13.0977 10.5996 10.999 10.5996C8.90043 10.5995 7.19922 8.89842 7.19922 6.7998C7.19932 4.70128 8.9005 3.00011 10.999 3ZM10.999 4.59961C9.78415 4.59971 8.79893 5.58494 8.79883 6.7998C8.79883 8.01476 9.78409 8.99989 10.999 9C12.214 9 13.1992 8.01483 13.1992 6.7998C13.1991 5.58487 12.214 4.59961 10.999 4.59961Z" fill="#33363D"/>
</svg>
