<svg viewBox="0 0 24 24" fill="none" xmlns="http://www.w3.org/2000/svg">
<path d="M11.5996 3C12.0411 3.00026 12.3993 3.35823 12.3994 3.7998C12.3994 4.24147 12.0412 4.59935 11.5996 4.59961H4.7998C4.6895 4.59971 4.59971 4.6895 4.59961 4.7998L4.60156 19.2002C4.60157 19.3106 4.69131 19.4004 4.80176 19.4004H19.1992C19.3096 19.4003 19.3994 19.3106 19.3994 19.2002V12.4004C19.3994 11.9586 19.7574 11.6006 20.1992 11.6006C20.641 11.6006 20.999 11.9586 20.999 12.4004V19.2002C20.999 20.1943 20.1933 20.9999 19.1992 21H4.80176C3.80771 21 3.00107 20.1942 3.00098 19.2002L3 4.7998C3.0001 3.80586 3.80584 3.00011 4.7998 3H11.5996ZM20.1992 3C20.641 3 20.9989 3.35807 20.999 3.7998V9.2002C20.999 9.64202 20.641 10 20.1992 10C19.7574 10 19.3994 9.64202 19.3994 9.2002V5.73145L11.5645 13.5654C11.252 13.8778 10.746 13.8778 10.4336 13.5654C10.1213 13.253 10.1213 12.747 10.4336 12.4346L18.2676 4.59961H14.7988C14.3572 4.5994 13.999 4.2415 13.999 3.7998C13.9991 3.3582 14.3572 3.00021 14.7988 3H20.1992Z" fill="currentColor"/>
</svg>
