<svg viewBox="0 0 24 24" fill="none" xmlns="http://www.w3.org/2000/svg">
<path d="M6.7998 4C7.24157 4 7.5995 4.35807 7.59961 4.7998V19.2002C7.59961 19.642 7.24163 20 6.7998 20C6.35807 19.9999 6 19.642 6 19.2002V4.7998C6.00011 4.35813 6.35813 4.00011 6.7998 4ZM17.665 4.20508C17.9935 3.90976 18.4994 3.93633 18.7949 4.26465C19.0904 4.593 19.0636 5.09896 18.7354 5.39453L11.3955 12L18.7354 18.6055C19.0637 18.901 19.0903 19.407 18.7949 19.7354C18.4994 20.0637 17.9934 20.0903 17.665 19.7949L9.66504 12.5947C9.49647 12.443 9.40039 12.2268 9.40039 12C9.40039 11.7732 9.49647 11.557 9.66504 11.4053L17.665 4.20508Z" fill="#33363D"/>
</svg>
