<svg viewBox="0 0 24 24" fill="none" xmlns="http://www.w3.org/2000/svg">
<path d="M17.2002 4C17.6419 4.00011 17.9999 4.35813 18 4.7998V19.2002C18 19.642 17.6419 19.9999 17.2002 20C16.7584 20 16.4004 19.642 16.4004 19.2002V4.7998C16.4005 4.35807 16.7584 4 17.2002 4ZM5.20508 4.26465C5.50057 3.93633 6.00655 3.90976 6.33496 4.20508L14.335 11.4053C14.5035 11.557 14.5996 11.7732 14.5996 12C14.5996 12.2268 14.5035 12.443 14.335 12.5947L6.33496 19.7949C6.00655 20.0903 5.5006 20.0637 5.20508 19.7354C4.90968 19.407 4.93634 18.901 5.26465 18.6055L12.6045 12L5.26465 5.39453C4.9364 5.09896 4.9096 4.593 5.20508 4.26465Z" fill="#33363D"/>
</svg>
