<svg viewBox="0 0 24 24" fill="none" xmlns="http://www.w3.org/2000/svg">
<path d="M12 2C17.5228 2 22 6.4772 22 12C22 17.5229 17.5228 22 12 22C6.47715 22 2 17.5228 2 12C2 6.4772 6.47715 2 12 2ZM12 3.59961C7.36081 3.59961 3.59961 7.36085 3.59961 12C3.59961 16.6392 7.36081 20.4004 12 20.4004C16.6391 20.4004 20.4004 16.6392 20.4004 12C20.4004 7.36085 16.6391 3.59961 12 3.59961ZM12.9004 10.4307C13.0108 10.4307 13.1004 10.5205 13.1006 10.6309V15.5938H13.7998C13.9103 15.5938 14 15.6835 14 15.7939V16.5938C14 16.7042 13.9103 16.7939 13.7998 16.7939H10.2002C10.0897 16.7939 10 16.7042 10 16.5938V15.7939C10 15.6835 10.0897 15.5938 10.2002 15.5938H11.3008V11.8311C11.3007 11.7206 11.211 11.6309 11.1006 11.6309H10.3994C10.289 11.6309 10.1992 11.5411 10.1992 11.4307V10.6309C10.1994 10.5205 10.2891 10.4307 10.3994 10.4307H12.9004ZM11.8994 7.04102C12.5621 7.04112 13.0996 7.57853 13.0996 8.24121C13.0995 8.9038 12.562 9.4413 11.8994 9.44141C11.2367 9.44141 10.6993 8.90386 10.6992 8.24121C10.6992 7.57847 11.2367 7.04102 11.8994 7.04102Z" fill="#33363D"/>
</svg>
