<svg viewBox="0 0 24 24" fill="none" xmlns="http://www.w3.org/2000/svg">
<path d="M17.1992 2C17.641 2 17.9989 2.35807 17.999 2.7998V7H20.2031C21.1972 7 22.0028 7.80578 22.0029 8.7998V18.2002C22.0029 18.642 21.645 19 21.2031 19H17.999V21.2002C17.999 21.642 17.641 22 17.1992 22H6.99902C6.55729 21.9999 6.19922 21.642 6.19922 21.2002V19H2.7998C2.58766 18.9999 2.38436 18.9157 2.23438 18.7656C2.0844 18.6156 2 18.4123 2 18.2002L2.00293 8.7998C2.00323 7.80593 2.80888 7.00005 3.80273 7H6V2.7998C6.00011 2.35813 6.35813 2.00011 6.7998 2H17.1992ZM7.79883 20.4004H16.3994V14.7998H7.79883V20.4004ZM3.80273 8.59961C3.69239 8.59966 3.60264 8.68946 3.60254 8.7998L3.60059 17.4004H6.19922V14C6.19932 13.5583 6.55735 13.2003 6.99902 13.2002H17.1992C17.4113 13.2002 17.6146 13.2846 17.7646 13.4346C17.9146 13.5846 17.999 13.7879 17.999 14V17.4004H20.4033V8.7998C20.4032 8.68944 20.3135 8.59961 20.2031 8.59961H3.80273ZM7.59961 7H16.3994V3.59961H7.59961V7Z" fill="#33363D"/>
</svg>
