<svg viewBox="0 0 24 24" fill="none" xmlns="http://www.w3.org/2000/svg">
<path d="M12.0459 2.6001C15.3853 2.6001 18.3197 4.32465 20 6.92725V4.00049C20 3.55873 20.3581 3.20079 20.7998 3.20068C21.2416 3.20068 21.5996 3.55866 21.5996 4.00049V9.00049C21.5995 9.44218 21.2415 9.80029 20.7998 9.80029H15.7998C15.3582 9.80019 15.0002 9.44212 15 9.00049C15 8.55873 15.3581 8.20079 15.7998 8.20068H18.9004C17.5583 5.81453 14.9927 4.19971 12.0459 4.19971C7.7072 4.19974 4.19727 7.6969 4.19727 12.0005C4.19748 16.3039 7.70733 19.8003 12.0459 19.8003C15.9831 19.8003 19.2395 16.9195 19.8066 13.1704C19.8727 12.7336 20.2809 12.4334 20.7178 12.4995C21.1543 12.5658 21.4547 12.973 21.3887 13.4097C20.7039 17.936 16.7795 21.3999 12.0459 21.3999C6.83213 21.3999 2.59787 17.1959 2.59766 12.0005C2.59766 6.80481 6.832 2.60013 12.0459 2.6001Z" fill="#33363D"/>
</svg>
