<svg viewBox="0 0 24 24" fill="none" xmlns="http://www.w3.org/2000/svg">
<path d="M12 2C13.6871 2 15.2758 2.41945 16.6699 3.15723L15.7598 4.48926C14.6283 3.92175 13.352 3.59961 12 3.59961C7.36081 3.59961 3.59961 7.36081 3.59961 12C3.59961 16.6392 7.36081 20.4004 12 20.4004C16.6392 20.4004 20.4004 16.6392 20.4004 12C20.4004 10.4818 19.9946 9.05913 19.29 7.83008L20.2764 6.3877C21.3637 7.98799 22 9.91946 22 12C22 17.5228 17.5228 22 12 22C6.47715 22 2 17.5228 2 12C2 6.47715 6.47715 2 12 2ZM18.0215 4.01562C18.4516 4.34048 18.8527 4.70108 19.2246 5.08984L18.2988 6.44531C17.9411 6.04002 17.5452 5.66985 17.1162 5.33984L18.0215 4.01562Z" fill="#33363D"/>
<path fill-rule="evenodd" clip-rule="evenodd" d="M19.4505 3.33922C19.8153 3.58845 19.909 4.08624 19.6598 4.45106L12.8281 14.4511C12.6938 14.6476 12.4789 14.7742 12.2419 14.7963C12.0049 14.8185 11.7703 14.7339 11.6019 14.5656L7.43364 10.3989C7.12116 10.0866 7.12106 9.58002 7.43342 9.26754C7.74578 8.95506 8.25231 8.95496 8.56479 9.26732L12.051 12.7522L18.3387 3.5485C18.5879 3.18368 19.0857 3.08998 19.4505 3.33922Z" fill="#256EF4"/>
</svg>
