<svg viewBox="0 0 24 24" fill="none" xmlns="http://www.w3.org/2000/svg">
<path d="M12.8955 1.6001C13.259 1.6001 13.5765 1.84524 13.6689 2.19678L14.166 4.08643L15.9434 4.81787L17.2383 3.7124C17.5557 3.44114 18.028 3.45918 18.3232 3.75439L20.2432 5.67432C20.5373 5.96845 20.5567 6.43871 20.2881 6.75635L19.1875 8.05908L19.9014 9.78271L21.7949 10.2651C22.1494 10.3554 22.3975 10.6747 22.3975 11.0405V12.938C22.3974 13.3022 22.1513 13.6207 21.7988 13.7124L19.8936 14.2085L19.1787 15.9351L20.2881 17.2427C20.5573 17.5603 20.5376 18.0313 20.2432 18.3257L18.3232 20.2456C18.0228 20.546 17.54 20.5594 17.2236 20.2759L17.1699 20.228C17.1354 20.1972 17.0855 20.1523 17.0244 20.0981C16.9018 19.9894 16.734 19.842 16.5537 19.6851C16.345 19.5033 16.1325 19.3206 15.9551 19.1733L14.2148 19.894L13.7334 21.7964C13.6435 22.1512 13.324 22.3997 12.958 22.3999H11.0381C10.6718 22.3999 10.3515 22.1514 10.2617 21.7964L9.78223 19.894L8.09375 19.1997L6.74316 20.3003C6.42502 20.5596 5.96208 20.5358 5.67188 20.2456L3.75195 18.3257C3.4522 18.0259 3.43861 17.5445 3.7207 17.228L4.83887 15.9731L4.11621 14.2583L2.18652 13.7319C1.8389 13.6368 1.59781 13.3209 1.59766 12.9604V11.0405C1.59766 10.6688 1.8538 10.3457 2.21582 10.2612L4.08984 9.82373L4.79395 8.09424L3.69629 6.74463C3.43794 6.42646 3.46213 5.96414 3.75195 5.67432L5.67188 3.75439C5.97146 3.45481 6.45296 3.4406 6.76953 3.72217L8.02832 4.84229L9.73926 4.12061L10.2461 2.19678C10.3386 1.84533 10.6561 1.6001 11.0195 1.6001H12.8955ZM11.1865 4.90869C11.1234 5.14865 10.9522 5.34544 10.7236 5.44189L8.18457 6.51221C7.90037 6.63201 7.57225 6.57851 7.3418 6.37354L6.26953 5.41943L5.39355 6.29541L6.33398 7.45264C6.51807 7.67922 6.56409 7.98885 6.4541 8.25928L5.41602 10.8101C5.31819 11.0504 5.11009 11.2285 4.85742 11.2876L3.19727 11.6753V12.3491L4.91309 12.8179C5.15005 12.8826 5.34404 13.0525 5.43945 13.2788L6.50977 15.8169C6.6297 16.1014 6.57557 16.4302 6.37012 16.6606L5.41797 17.729L6.29199 18.603L7.45215 17.6587C7.67965 17.4734 7.99036 17.4269 8.26172 17.5386L10.7627 18.5679C10.997 18.6643 11.1723 18.8662 11.2344 19.1118L11.6611 20.8003H12.335L12.7627 19.1128C12.8247 18.8681 12.9983 18.6665 13.2314 18.5698L15.7764 17.5161C16.0315 17.4105 16.3232 17.4434 16.5479 17.604C16.7977 17.7826 17.2481 18.1678 17.6045 18.478C17.6451 18.5133 17.6847 18.5485 17.7236 18.5825L18.5908 17.7153L17.6426 16.5972C17.4487 16.3685 17.399 16.0499 17.5137 15.7729L18.5684 13.228C18.6643 12.9965 18.8629 12.8234 19.1055 12.7603L20.7979 12.3198V11.6626L19.1182 11.2349C18.8737 11.1727 18.6728 10.9991 18.5762 10.7661L17.5225 8.22119C17.408 7.94469 17.4573 7.62752 17.6504 7.39893L18.5918 6.28564L17.7148 5.40869L16.6113 6.35205C16.3831 6.54695 16.0647 6.59803 15.7871 6.48389L13.1885 5.41455C12.9568 5.31911 12.7834 5.12075 12.7197 4.87842L12.2783 3.19971H11.6357L11.1865 4.90869ZM11.999 8.20068C14.0978 8.20068 15.7988 9.90176 15.7988 12.0005C15.7987 14.0991 14.0977 15.8003 11.999 15.8003C9.90048 15.8002 8.19938 14.099 8.19922 12.0005C8.19922 9.90183 9.90038 8.20079 11.999 8.20068ZM11.999 9.80029C10.784 9.8004 9.79883 10.7855 9.79883 12.0005C9.79899 13.2154 10.7841 14.2006 11.999 14.2007C13.214 14.2007 14.1991 13.2154 14.1992 12.0005C14.1992 10.7854 13.2141 9.80029 11.999 9.80029Z" fill="#33363D"/>
</svg>
