<svg viewBox="0 0 24 24" fill="none" xmlns="http://www.w3.org/2000/svg">
<path d="M20.2002 3.00098C20.6419 3.00108 20.9999 3.35911 21 3.80078V11.8008C21 12.2425 20.6419 12.6005 20.2002 12.6006C19.7584 12.6006 19.4004 12.2426 19.4004 11.8008V5.71582L5.54785 19.3994H11.7998C12.2416 19.3994 12.5996 19.7574 12.5996 20.1992C12.5995 20.641 12.2416 20.999 11.7998 20.999H3.7998C3.35813 20.9989 3.00011 20.6409 3 20.1992V12.1992C3 11.7575 3.35807 11.3995 3.7998 11.3994C4.24163 11.3994 4.59961 11.7574 4.59961 12.1992V18.0859L18.252 4.60059H12.2002C11.7584 4.60059 11.4004 4.24261 11.4004 3.80078C11.4005 3.35904 11.7584 3.00098 12.2002 3.00098H20.2002Z" fill="#33363D"/>
</svg>
