<svg viewBox="0 0 24 24" fill="none" xmlns="http://www.w3.org/2000/svg">
<path d="M12 2.00049C17.5228 2.00049 22 6.47769 22 12.0005C22 12.942 21.8701 13.8547 21.626 14.7202C21.5467 15.001 21.3203 15.2159 21.0361 15.2817C20.7517 15.3475 20.4533 15.2533 20.2588 15.0356C19.5801 14.2763 18.5956 13.8003 17.499 13.8003C15.4557 13.8004 13.7988 15.4571 13.7988 17.5005C13.7989 18.597 14.275 19.5816 15.0342 20.2603C15.2518 20.4548 15.347 20.7522 15.2812 21.0366C15.2155 21.321 14.9997 21.5472 14.7188 21.6265C13.8535 21.8704 12.9412 22.0005 12 22.0005C6.47715 22.0005 2 17.5233 2 12.0005C2 6.47769 6.47715 2.00049 12 2.00049ZM12 3.6001C7.36081 3.6001 3.59961 7.36134 3.59961 12.0005C3.59961 16.6397 7.36081 20.4009 12 20.4009C12.3463 20.4009 12.6876 20.38 13.0225 20.3394C12.5012 19.5189 12.1993 18.5446 12.1992 17.5005C12.1992 14.5735 14.572 12.2008 17.499 12.2007C18.5432 12.2007 19.5174 12.5027 20.3379 13.0239C20.3786 12.6887 20.4004 12.3472 20.4004 12.0005C20.4004 7.36134 16.6391 3.6001 12 3.6001ZM8.52441 14.4771C9.18707 14.4772 9.72461 15.0146 9.72461 15.6772C9.7245 16.3398 9.187 16.8773 8.52441 16.8774C7.86174 16.8774 7.32432 16.3399 7.32422 15.6772C7.32422 15.0145 7.86167 14.4771 8.52441 14.4771ZM7.17676 9.45459C7.83934 9.4547 8.37685 9.9922 8.37695 10.6548C8.37695 11.3175 7.83941 11.8549 7.17676 11.855C6.51402 11.855 5.97656 11.3175 5.97656 10.6548C5.97667 9.99213 6.51408 9.45459 7.17676 9.45459ZM15.876 7.12354C16.5385 7.12364 17.076 7.66021 17.0762 8.32275C17.0762 8.98543 16.5386 9.52284 15.876 9.52295C15.2132 9.52295 14.6758 8.9855 14.6758 8.32275C14.6759 7.66015 15.2133 7.12354 15.876 7.12354ZM10.8525 5.77686C11.5152 5.77696 12.0527 6.31437 12.0527 6.97705C12.0526 7.63964 11.5151 8.17714 10.8525 8.17725C10.1899 8.17725 9.65245 7.6397 9.65234 6.97705C9.65234 6.31431 10.1898 5.77686 10.8525 5.77686Z" fill="#33363D"/>
</svg>
