<svg viewBox="0 0 24 24" fill="none" xmlns="http://www.w3.org/2000/svg">
<path fill-rule="evenodd" clip-rule="evenodd" d="M4.6 4.6V7C4.6 7.44183 4.24183 7.8 3.8 7.8C3.35817 7.8 3 7.44183 3 7V4.3C3 3.58203 3.58203 3 4.3 3H19.6997C20.4177 3 20.9997 3.58203 20.9997 4.3V7C20.9997 7.44183 20.6415 7.8 20.1997 7.8C19.7579 7.8 19.3997 7.44183 19.3997 7V4.6H12.8001L12.801 19.3997H16.1992C16.641 19.3997 16.9992 19.7579 16.9992 20.1997C16.9992 20.6415 16.641 20.9997 16.1992 20.9997H7.79922C7.35739 20.9997 6.99922 20.6415 6.99922 20.1997C6.99922 19.7579 7.35739 19.3997 7.79922 19.3997H11.201L11.2001 4.6H4.6Z" fill="#33363D"/>
</svg>
