<svg viewBox="0 0 24 24" fill="none" xmlns="http://www.w3.org/2000/svg">
<path fill-rule="evenodd" clip-rule="evenodd" d="M3 3.80098C3 3.35915 3.35817 3.00098 3.8 3.00098H19.1992C20.1933 3.00098 20.9992 3.80686 20.9992 4.80098V8.0002C20.9992 8.99431 20.1933 9.8002 19.1992 9.8002H9.79922V19.2002C9.79922 20.1943 8.99333 21.0002 7.99922 21.0002H4.8C3.80589 21.0002 3 20.1943 3 19.2002V3.80098ZM9.33059 8.2002H19.1992C19.3097 8.2002 19.3992 8.11065 19.3992 8.0002V4.80098C19.3992 4.69052 19.3097 4.60098 19.1992 4.60098H5.73137L9.33059 8.2002ZM4.6 5.73235V19.2002C4.6 19.3107 4.68954 19.4002 4.8 19.4002H7.99922C8.10968 19.4002 8.19922 19.3107 8.19922 19.2002V9.33157L4.6 5.73235Z" fill="#33363D"/>
</svg>
