<svg viewBox="0 0 24 24" fill="none" xmlns="http://www.w3.org/2000/svg">
<path d="M21.1992 15.2002C21.641 15.2002 21.9989 15.5583 21.999 16V19.2002C21.999 19.642 21.641 20 21.1992 20H2.7998C2.58767 19.9999 2.38436 19.9156 2.23438 19.7656C2.0844 19.6156 2 19.4123 2 19.2002L2.00098 16C2.00108 15.5582 2.35904 15.2002 2.80078 15.2002C3.24248 15.2003 3.60048 15.5584 3.60059 16V18.4004H20.3994V16C20.3995 15.5583 20.7575 15.2002 21.1992 15.2002ZM11.999 3C12.2166 3 12.4253 3.08829 12.5762 3.24512L17.5762 8.44531C17.8824 8.7638 17.8722 9.27093 17.5537 9.57715C17.2353 9.88307 16.729 9.87284 16.4229 9.55469L12.7988 5.78613V15.5C12.7988 15.9418 12.4409 16.2998 11.999 16.2998C11.5573 16.2997 11.1992 15.9418 11.1992 15.5V5.78613L7.57617 9.55469C7.26995 9.87316 6.76282 9.88335 6.44434 9.57715C6.12585 9.27091 6.11662 8.7638 6.42285 8.44531L11.4229 3.24512C11.5736 3.08852 11.7816 3.00005 11.999 3Z" fill="#33363D"/>
</svg>
