<svg viewBox="0 0 24 24" fill="none" xmlns="http://www.w3.org/2000/svg">
<path d="M10.2002 13C10.6419 13.0001 10.9999 13.3581 11 13.7998V20.2002C10.9999 20.6419 10.6419 20.9999 10.2002 21H3.7998C3.35813 20.9999 3.00011 20.6419 3 20.2002V13.7998C3.00011 13.3581 3.35813 13.0001 3.7998 13H10.2002ZM20.2002 13C20.6419 13.0001 20.9999 13.3581 21 13.7998V20.2002C20.9999 20.6419 20.6419 20.9999 20.2002 21H13.7998C13.3581 20.9999 13.0001 20.6419 13 20.2002V13.7998C13.0001 13.3581 13.3581 13.0001 13.7998 13H20.2002ZM4.59961 19.4004H9.40039V14.5996H4.59961V19.4004ZM14.5996 19.4004H19.4004V14.5996H14.5996V19.4004ZM10.2002 3C10.6419 3.00011 10.9999 3.35813 11 3.7998V10.2002C10.9999 10.6419 10.6419 10.9999 10.2002 11H3.7998C3.35813 10.9999 3.00011 10.6419 3 10.2002V3.7998C3.00011 3.35813 3.35813 3.00011 3.7998 3H10.2002ZM20.2002 3C20.6419 3.00011 20.9999 3.35813 21 3.7998V10.2002C20.9999 10.6419 20.6419 10.9999 20.2002 11H13.7998C13.3581 10.9999 13.0001 10.6419 13 10.2002V3.7998C13.0001 3.35813 13.3581 3.00011 13.7998 3H20.2002ZM4.59961 9.40039H9.40039V4.59961H4.59961V9.40039ZM14.5996 9.40039H19.4004V4.59961H14.5996V9.40039Z" fill="#33363D"/>
</svg>
