<svg viewBox="0 0 24 24" fill="none" xmlns="http://www.w3.org/2000/svg">
<path d="M19.8672 13.8677C20.0881 13.8677 20.2676 14.0472 20.2676 14.2681V16.4819H20.7988C21.0197 16.4819 21.1992 16.6605 21.1992 16.8813V17.3755C21.1992 17.5964 21.0197 17.7759 20.7988 17.7759H20.2676V20.8003C20.2673 21.021 20.088 21.1997 19.8672 21.1997H19.1768C18.956 21.1997 18.7766 21.021 18.7764 20.8003V14.2681C18.7764 14.0472 18.9558 13.8677 19.1768 13.8677H19.8672ZM20.2666 17.5757C20.1561 17.5757 20.0664 17.6654 20.0664 17.7759V20.8003C20.0663 20.897 19.9975 20.9771 19.9062 20.9956H19.9072C19.9984 20.9771 20.0672 20.8969 20.0674 20.8003V17.7759C20.0674 17.6654 20.1571 17.5757 20.2676 17.5757H20.2666ZM17.9883 14.5649C18.2078 14.5649 18.391 14.7435 18.3857 14.9692C18.3616 15.9844 18.1542 16.9387 17.665 17.7866C17.175 18.6359 16.4101 19.3659 15.2939 19.9429C15.1191 20.0332 14.9066 19.9803 14.792 19.8247L14.418 19.3169C14.2697 19.1155 14.3424 18.8363 14.5547 18.7222C15.8933 18.0029 16.6252 17.1042 16.8496 15.8589H15.0547C14.8339 15.8587 14.6553 15.6793 14.6553 15.4585V14.9644C14.6554 14.7437 14.834 14.5651 15.0547 14.5649H17.9883ZM17.9873 14.7651C18.0978 14.7651 18.1882 14.8549 18.1855 14.9653C18.1383 16.9475 17.3746 18.6417 15.2012 19.7651C15.1797 19.7762 15.1566 19.782 15.1338 19.7847C15.157 19.7821 15.1804 19.7764 15.2021 19.7651C17.3758 18.6416 18.1394 16.9468 18.1865 14.9644C18.189 14.8541 18.0986 14.7651 17.9883 14.7651H17.9873ZM11.999 3.80029C14.7286 3.80029 17.1549 5.0587 18.8789 6.51416C19.7448 7.24516 20.4566 8.04397 20.958 8.79736C21.438 9.5186 21.7988 10.3084 21.7988 11.0005C21.7988 11.5029 21.6113 12.0069 21.3506 12.4614C21.1307 12.8447 20.641 12.9772 20.2578 12.7573C19.8749 12.5375 19.7425 12.0486 19.9619 11.6655C20.1477 11.3417 20.1992 11.1182 20.1992 11.0005C20.1992 10.7925 20.0569 10.3316 19.626 9.68408C19.2165 9.0688 18.6094 8.38074 17.8467 7.73682C16.3134 6.44237 14.2398 5.3999 11.999 5.3999C9.75822 5.39996 7.68465 6.44236 6.15137 7.73682C5.38868 8.38073 4.7815 9.06882 4.37207 9.68408C3.94127 10.3315 3.79883 10.7926 3.79883 11.0005C3.79892 11.2085 3.94131 11.6696 4.37207 12.3169C4.78152 12.9322 5.38867 13.6203 6.15137 14.2642C7.68464 15.5586 9.75827 16.6 11.999 16.6001C12.4407 16.6001 12.7986 16.9583 12.7988 17.3999C12.7988 17.8417 12.4409 18.2007 11.999 18.2007C9.26946 18.2006 6.84313 16.9423 5.11914 15.4868C4.2532 14.7557 3.54144 13.9561 3.04004 13.2026C2.56025 12.4816 2.19929 11.6924 2.19922 11.0005C2.19922 10.3084 2.56008 9.5186 3.04004 8.79736C3.54142 8.04394 4.25326 7.24519 5.11914 6.51416C6.84314 5.05869 9.26941 3.80035 11.999 3.80029ZM19.8662 14.0679C19.9767 14.0679 20.0664 14.1576 20.0664 14.2681V16.4819C20.0666 16.5923 20.1562 16.6821 20.2666 16.6821H20.7979C20.9082 16.6821 20.9979 16.771 20.998 16.8813V17.3755C20.998 17.4859 20.9083 17.5757 20.7979 17.5757H20.7988C20.9093 17.5757 20.999 17.4859 20.999 17.3755V16.8813C20.999 16.7709 20.9093 16.6812 20.7988 16.6812H20.2676C20.1573 16.6812 20.0676 16.5922 20.0674 16.4819V14.2681C20.0674 14.1576 19.9776 14.0679 19.8672 14.0679H19.8662ZM11.999 6.96045C14.2737 6.96045 16.1738 8.73879 16.1738 11.0005C16.1737 13.2621 14.2737 15.0405 11.999 15.0405C9.72448 15.0404 7.82433 13.262 7.82422 11.0005C7.82422 8.73886 9.72441 6.96055 11.999 6.96045ZM11.999 8.56006C10.5459 8.56016 9.42383 9.68344 9.42383 11.0005C9.42394 12.3175 10.546 13.4398 11.999 13.4399C13.4522 13.4399 14.5741 12.3175 14.5742 11.0005C14.5742 9.68338 13.4522 8.56006 11.999 8.56006Z" fill="#33363D"/>
</svg>
