<svg viewBox="0 0 24 24" fill="none" xmlns="http://www.w3.org/2000/svg">
<path d="M11.998 5.7002C16.5175 5.7002 20.584 8.18238 21.8545 11.5576C21.9789 11.8885 21.9969 12.2598 21.8848 12.6143C21.1099 15.0622 18.0558 18.2998 11.998 18.2998C5.91669 18.2996 2.92064 14.7467 2.13477 12.6416C2.00672 12.2985 2.00536 11.9315 2.11133 11.5986C2.66321 9.86509 4.03948 8.39152 5.7832 7.36133C7.535 6.32641 9.71843 5.70028 11.998 5.7002ZM11.998 7.2998C10.0025 7.29989 8.10004 7.85013 6.59668 8.73828C5.0852 9.63127 4.03661 10.8282 3.63672 12.084C3.6364 12.085 3.63591 12.0862 3.63574 12.0869C4.20492 13.6042 6.62802 16.7 11.998 16.7002C17.4324 16.7002 19.8162 13.8465 20.3594 12.1328C20.3593 12.1313 20.3588 12.1273 20.3564 12.1211C19.3771 9.51951 16.0275 7.2998 11.998 7.2998ZM11.999 8.2002C14.0976 8.2002 15.7987 9.90141 15.7988 12C15.7988 14.0987 14.0977 15.7998 11.999 15.7998C9.90043 15.7997 8.19922 14.0986 8.19922 12C8.19932 9.90147 9.9005 8.2003 11.999 8.2002ZM11.999 9.7998C10.7842 9.79991 9.79893 10.7851 9.79883 12C9.79883 13.215 10.7841 14.2001 11.999 14.2002C13.2141 14.2002 14.1992 13.215 14.1992 12C14.1991 10.7851 13.214 9.7998 11.999 9.7998Z" fill="#33363D"/>
</svg>
