<svg viewBox="0 0 24 24" fill="none" xmlns="http://www.w3.org/2000/svg">
<path d="M3 3C3.31242 2.68758 3.81942 2.68758 4.13184 3L21.001 19.8682C21.3133 20.1805 21.3132 20.6876 21.001 21C20.6886 21.3124 20.1816 21.3124 19.8691 21L16.4688 17.5996L16.4678 17.6006L15.1875 16.3184L14.0596 15.1904V15.1914L12.8818 14.0127L9.98438 11.1152V11.1162L8.80664 9.93945V9.9375L7.25488 8.38574L7.25391 8.38672L6.06738 7.2002L6.06836 7.19922L3 4.13086C2.68782 3.81843 2.68769 3.31235 3 3ZM6.52148 8.78516C6.50398 8.79573 6.48614 8.80574 6.46875 8.81641C5.02269 9.70321 4.02444 10.8673 3.63672 12.0869C4.19795 13.5856 6.61199 16.7002 12 16.7002C12.8199 16.7002 13.57 16.6336 14.2549 16.5176L15.5996 17.8623C14.5422 18.1378 13.3453 18.2998 12 18.2998C5.62155 18.2998 2.62773 14.3893 2.03125 12.3262C1.99156 12.1888 1.98978 12.0428 2.02539 11.9043C2.46833 10.1828 3.72466 8.69865 5.36133 7.625L6.52148 8.78516ZM12 5.7002C16.6464 5.7002 20.8267 8.3281 21.9609 11.8594C22.0058 11.9991 22.0109 12.1484 21.9766 12.291C21.6552 13.6249 20.621 15.2608 18.751 16.4893L17.5918 15.3291C19.2078 14.3597 20.063 13.0716 20.3613 12.1309C19.3859 9.52809 16.0411 7.2998 12 7.2998C11.2433 7.2998 10.5001 7.37879 9.78711 7.52539L8.46875 6.20703C9.58401 5.88069 10.7783 5.7002 12 5.7002ZM9.80176 12.0654C9.8358 13.2283 10.7707 14.1622 11.9336 14.1963L13.3057 15.5684C12.8982 15.7176 12.4582 15.7998 11.999 15.7998C9.90045 15.7997 8.19925 14.0986 8.19922 12C8.19924 11.5406 8.2803 11.1 8.42969 10.6924L9.80176 12.0654ZM11.999 8.2002C14.0976 8.2002 15.7987 9.90141 15.7988 12C15.7988 12.4588 15.7173 12.8985 15.5684 13.3057L14.1953 11.9326C14.1602 10.7706 13.2267 9.83673 12.0645 9.80273L10.6924 8.42969C11.0997 8.28056 11.5401 8.20022 11.999 8.2002Z" fill="#33363D"/>
</svg>
