<svg viewBox="0 0 25 24" fill="none" xmlns="http://www.w3.org/2000/svg">
<path d="M16.333 5.5H8.33301C5.50501 5.5 4.09001 5.5 3.21201 6.379C2.33301 7.257 2.33301 8.672 2.33301 11.5V15C2.33301 17.828 2.33301 19.243 3.21201 20.121C4.09001 21 5.50501 21 8.33301 21H16.333C19.161 21 20.576 21 21.454 20.121C22.333 19.243 22.333 17.828 22.333 15V11.5C22.333 8.672 22.333 7.257 21.454 6.379C20.576 5.5 19.161 5.5 16.333 5.5Z" stroke="currentColor" stroke-width="1.5"/>
<path d="M12.833 9L10.333 13H14.333L11.833 17M9.33301 5.5V4.75C9.33301 4.048 9.33301 3.697 9.16401 3.444C9.09122 3.33522 8.99779 3.24179 8.88901 3.169C8.63601 3 8.28501 3 7.58301 3C6.88101 3 6.53001 3 6.27701 3.169C6.16823 3.24179 6.07479 3.33522 6.00201 3.444C5.83301 3.697 5.83301 4.048 5.83301 4.75V5.5M18.833 5.5V4.75C18.833 4.048 18.833 3.697 18.664 3.444C18.5912 3.33522 18.4978 3.24179 18.389 3.169C18.136 3 17.785 3 17.083 3C16.381 3 16.03 3 15.777 3.169C15.6679 3.24168 15.5741 3.33512 15.501 3.444C15.333 3.697 15.333 4.048 15.333 4.75V5.5" stroke="white" stroke-width="1.5" stroke-linecap="round" stroke-linejoin="round"/>
</svg>
