<svg  viewBox="0 0 24 24" fill="none" xmlns="http://www.w3.org/2000/svg">
<path d="M18 6C17.953 4.447 17.78 3.52 17.138 2.879C16.258 2 14.842 2 12.01 2H8.007C5.175 2 3.759 2 2.88 2.879C2 3.757 2 5.172 2 8V16C2 18.828 2 20.243 2.88 21.121C3.76 21.999 5.175 22 8.007 22H12.011C14.842 22 16.258 22 17.138 21.121C17.78 20.48 17.953 19.554 18 18" stroke="black" stroke-width="1.5" stroke-linecap="round" stroke-linejoin="round"/>
<path d="M20.242 11.742L21.419 10.565C21.689 10.295 21.825 10.159 21.897 10.013C21.9641 9.87603 21.999 9.72553 21.999 9.573C21.999 9.42047 21.9641 9.26997 21.897 9.133C21.825 8.987 21.689 8.851 21.419 8.581C21.149 8.311 21.013 8.175 20.867 8.103C20.73 8.03589 20.5795 8.001 20.427 8.001C20.2745 8.001 20.124 8.03589 19.987 8.103C19.841 8.175 19.706 8.311 19.435 8.581L18.258 9.758M20.242 11.742L14.976 17.008L12 18L12.992 15.024L18.258 9.758M20.242 11.742L18.258 9.758M5 19H6L7.25 16.5L8.5 19H9.5M6 6H14M6 10H12" stroke="black" stroke-width="1.5" stroke-linecap="round" stroke-linejoin="round"/>
</svg>
