<svg  viewBox="0 0 24 24" fill="none" xmlns="http://www.w3.org/2000/svg">
<path d="M12 8.5C12.2652 8.5 12.5196 8.39464 12.7071 8.20711C12.8946 8.01957 13 7.76522 13 7.5C13 7.23478 12.8946 6.98043 12.7071 6.79289C12.5196 6.60536 12.2652 6.5 12 6.5M12 8.5C11.7348 8.5 11.4804 8.39464 11.2929 8.20711C11.1054 8.01957 11 7.76522 11 7.5C11 7.23478 11.1054 6.98043 11.2929 6.79289C11.4804 6.60536 11.7348 6.5 12 6.5M12 8.5V6.5M10 12.5H14M16.5 20V20.01M13.5 20V20.01M18 18H6C5.46957 18 4.96086 18.2107 4.58579 18.5858C4.21071 18.9609 4 19.4696 4 20C4 20.5304 4.21071 21.0391 4.58579 21.4142C4.96086 21.7893 5.46957 22 6 22H18C18.5304 22 19.0391 21.7893 19.4142 21.4142C19.7893 21.0391 20 20.5304 20 20C20 19.4696 19.7893 18.9609 19.4142 18.5858C19.0391 18.2107 18.5304 18 18 18ZM9 13.5V13C9 12.4696 9.21071 11.9609 9.58579 11.5858C9.96086 11.2107 10.4696 11 11 11H13C13.5304 11 14.0391 11.2107 14.4142 11.5858C14.7893 11.9609 15 12.4696 15 13V13.5H9Z" stroke="black" stroke-width="1.5" stroke-linecap="round" stroke-linejoin="round"/>
<path d="M20 20V8C20 5.172 20 3.757 19.121 2.879C18.243 2 16.828 2 14 2H10C7.172 2 5.757 2 4.879 2.879C4 3.757 4 5.172 4 8V20" stroke="black" stroke-width="1.5" stroke-linecap="round" stroke-linejoin="round"/>
</svg>
