<svg  viewBox="0 0 24 24" fill="none" xmlns="http://www.w3.org/2000/svg">
<path d="M3 22V7C3 4.643 3 3.464 3.732 2.732C4.464 2 5.643 2 8 2H11C13.357 2 14.536 2 15.268 2.732C16 3.464 16 4.643 16 7V22" stroke="black" stroke-width="1.5"/>
<path d="M2 22H17M3 11H16" stroke="black" stroke-width="1.5" stroke-linecap="round"/>
<path d="M21 8.5271L21.447 8.3051C21.717 8.1721 21.851 8.1051 21.925 7.9861C22 7.8661 22 7.7181 22 7.4201V6.7261C22 6.0831 22 5.7611 21.826 5.6131C21.7707 5.56604 21.7059 5.53158 21.636 5.5121C21.414 5.4501 21.143 5.6291 20.602 5.9861C19.907 6.4441 19.56 6.6731 19.338 7.0001C19.2649 7.10873 19.2026 7.22429 19.152 7.3451C19 7.7081 19 8.1201 19 8.9471V10.5801C19 10.8121 19.19 11.0001 19.425 11.0001C19.5941 11.0006 19.7595 10.9506 19.9001 10.8565C20.0406 10.7625 20.1499 10.6286 20.214 10.4721L21 8.5271Z" stroke="black" stroke-width="1.5" stroke-linejoin="round"/>
<path d="M19.478 11C19.678 12.386 20.145 13.97 19.955 15.38C19.784 16.657 18.773 17.688 17.443 17.941C17.133 18 16.755 18 16 18" stroke="black" stroke-width="1.5" stroke-linejoin="round"/>
<path d="M10.2498 14L8.30384 15.917C8.06684 16.174 7.94784 16.302 8.02184 16.401C8.09484 16.5 8.30884 16.5 8.73684 16.5H10.2618C10.6908 16.5 10.9048 16.5 10.9778 16.599C11.0518 16.699 10.9328 16.826 10.6958 17.083L8.73684 19" stroke="black" stroke-width="1.5" stroke-linecap="round" stroke-linejoin="round"/>
</svg>
