<svg  viewBox="0 0 24 24" fill="none" xmlns="http://www.w3.org/2000/svg">
<path d="M12 21C7.286 21 4.929 21 3.464 19.535C2 18.072 2 15.715 2 11V7.944C2 6.128 2 5.22 2.38 4.538C2.65114 4.05208 3.05208 3.65114 3.538 3.38C4.22 3 5.128 3 6.944 3C8.108 3 8.69 3 9.2 3.191C10.363 3.627 10.843 4.684 11.368 5.733L12 7M8 7H16.75C18.857 7 19.91 7 20.667 7.506C20.9943 7.72474 21.2753 8.00575 21.494 8.333C22 9.09 22 10.143 22 12.25" stroke="black" stroke-width="1.5" stroke-linecap="round"/>
<path d="M22 15H15M22 18H15M17.5 21H15" stroke="black" stroke-width="1.5" stroke-linecap="round" stroke-linejoin="round"/>
</svg>
