<svg  viewBox="0 0 24 24" fill="none" xmlns="http://www.w3.org/2000/svg">
<path d="M22 15.422V18.5C22 18.966 22 19.199 21.924 19.383C21.8223 19.6275 21.6277 19.8217 21.383 19.923C21.199 20 20.966 20 20.5 20C20.034 20 19.801 20 19.617 19.924C19.3725 19.8223 19.1783 19.6277 19.077 19.383C19 19.199 19 18.966 19 18.5C19 18.034 19 17.801 18.924 17.617C18.8223 17.3725 18.6277 17.1783 18.383 17.077C18.199 17 17.966 17 17.5 17H6.5C6.034 17 5.801 17 5.617 17.076C5.37246 17.1777 5.17826 17.3723 5.077 17.617C5 17.801 5 18.034 5 18.5C5 18.966 5 19.199 4.924 19.383C4.82229 19.6275 4.62773 19.8217 4.383 19.923C4.199 20 3.966 20 3.5 20C3.034 20 2.801 20 2.617 19.924C2.37246 19.8223 2.17826 19.6277 2.077 19.383C2 19.199 2 18.966 2 18.5V15.422C2 14.22 2 13.619 2.172 13.052C2.344 12.485 2.677 11.985 3.344 10.985L4 10L4.962 7.692C5.707 5.902 6.08 5.008 6.836 4.504C7.592 4 8.56 4 10.5 4H13.5C15.439 4 16.408 4 17.164 4.504C17.92 5.008 18.293 5.903 19.038 7.692L20 10L20.656 10.985C21.323 11.985 21.656 12.485 21.828 13.052C22 13.619 22 14.22 22 15.422Z" stroke="currentColor" stroke-width="1.5" stroke-linecap="round" stroke-linejoin="round"/>
<path d="M2 8.5L4 10L5.761 10.44C5.921 10.48 6.08267 10.5 6.246 10.5H17.754C17.9173 10.5 18.079 10.48 18.239 10.44L20 10L22 8.5" stroke="currentColor" stroke-width="1.5" stroke-linecap="round" stroke-linejoin="round"/>
<path d="M18 14V14.01M6 14V14.01" stroke="currentColor" stroke-width="2" stroke-linecap="round" stroke-linejoin="round"/>
</svg>
