<svg  viewBox="0 0 24 24" fill="none" xmlns="http://www.w3.org/2000/svg">
<path d="M2 10C2.78 6.184 5.67 3.13 9.406 2.09C9.72 2.003 9.876 1.959 9.961 2.052C10.046 2.146 9.983 2.3 9.859 2.61L9 4.5M14 2C17.816 2.78 20.87 5.67 21.91 9.406C21.997 9.72 22.041 9.876 21.948 9.961C21.854 10.046 21.7 9.983 21.39 9.859L19.5 9M22 14C21.22 17.816 18.33 20.87 14.594 21.91C14.28 21.997 14.124 22.041 14.039 21.948C13.954 21.854 14.017 21.7 14.141 21.39L15 19.5M10 22C6.184 21.22 3.13 18.33 2.09 14.594C2.003 14.28 1.959 14.124 2.052 14.039C2.146 13.954 2.3 14.017 2.61 14.141L4.5 15" stroke="black" stroke-width="1.5" stroke-linecap="round"/>
<path d="M12 11.0992C10.687 11.9992 9.099 13.7792 8.5 16.5002M9.375 14.1042C7.303 9.31016 11.483 7.69316 14.664 7.51316C15.048 7.49116 15.24 7.48016 15.377 7.62016C15.515 7.76016 15.507 7.96016 15.491 8.35816C15.36 11.6742 14.038 16.2362 9.375 14.1042Z" stroke="black" stroke-width="1.5" stroke-linecap="round" stroke-linejoin="round"/>
</svg>
