<svg  viewBox="0 0 24 24" fill="none" xmlns="http://www.w3.org/2000/svg">
<path d="M19 9.5V8.3C18.992 5.497 18.905 4.011 17.967 3.054C16.933 2 15.269 2 11.942 2H10.059C6.731 2 5.068 2 4.034 3.054C3 4.108 3 5.806 3 9.2V13.8C3 17.194 3 18.891 4.034 19.946C4.952 20.882 6.366 20.986 9 20.998" stroke="black" stroke-width="1.5" stroke-linecap="round"/>
<path d="M18.675 19.689L21 22M20 16.5C20 15.3065 19.5259 14.1619 18.682 13.318C17.8381 12.4741 16.6935 12 15.5 12C14.3065 12 13.1619 12.4741 12.318 13.318C11.4741 14.1619 11 15.3065 11 16.5C11 17.6935 11.4741 18.8381 12.318 19.682C13.1619 20.5259 14.3065 21 15.5 21C16.6935 21 17.8381 20.5259 18.682 19.682C19.5259 18.8381 20 17.6935 20 16.5Z" stroke="black" stroke-width="1.5" stroke-linecap="round" stroke-linejoin="round"/>
<path d="M7 7H15M7 11H10" stroke="black" stroke-width="1.5" stroke-linecap="round"/>
</svg>
