<svg  viewBox="0 0 24 24" fill="none" xmlns="http://www.w3.org/2000/svg">
<path d="M11.5 21C7.022 21 4.782 21 3.391 19.609C2 18.218 2 15.979 2 11.5C2 7.022 2 4.782 3.391 3.391C4.782 2 7.021 2 11.5 2C15.978 2 18.218 2 19.609 3.391C21 4.782 21 7.021 21 11.5" stroke="black" stroke-width="1.5" stroke-linecap="round"/>
<path d="M2 7H21" stroke="black" stroke-width="1.5" stroke-linejoin="round"/>
<path d="M10 16H11M6 16H7M10 12H14M6 12H7M20.4 20.4L22 22M21.2 17.6C21.2 16.6452 20.8207 15.7295 20.1456 15.0544C19.4705 14.3793 18.5548 14 17.6 14C16.6452 14 15.7295 14.3793 15.0544 15.0544C14.3793 15.7295 14 16.6452 14 17.6C14 18.5548 14.3793 19.4705 15.0544 20.1456C15.7295 20.8207 16.6452 21.2 17.6 21.2C18.5548 21.2 19.4705 20.8207 20.1456 20.1456C20.8207 19.4705 21.2 18.5548 21.2 17.6Z" stroke="black" stroke-width="1.5" stroke-linecap="round" stroke-linejoin="round"/>
</svg>
