<svg  viewBox="0 0 24 24" fill="none" xmlns="http://www.w3.org/2000/svg">
<path d="M11 6.008H17M11 10H17M11 14H14M19 22C19.5304 22 20.0391 21.7893 20.4142 21.4142C20.7893 21.0391 21 20.5304 21 20V8C21 5.172 21 3.757 20.121 2.879C19.243 2 17.828 2 15 2H13C10.172 2 8.757 2 7.879 2.879C7 3.757 7 5.172 7 8V18M19 22C18.4696 22 17.9609 21.7893 17.5858 21.4142C17.2107 21.0391 17 20.5304 17 20C17 19.057 17 18.586 16.707 18.293C16.414 18 15.943 18 15 18H7M19 22H5C4.46957 22 3.96086 21.7893 3.58579 21.4142C3.21071 21.0391 3 20.5304 3 20C3 19.057 3 18.586 3.293 18.293C3.586 18 4.057 18 5 18H7" stroke="black" stroke-width="1.5" stroke-linecap="round" stroke-linejoin="round"/>
</svg>
