<svg  viewBox="0 0 24 24" fill="none" xmlns="http://www.w3.org/2000/svg">
<path d="M15.5 15L17.5 17M15 21.5C16.862 21.5 17.794 21.5 18.54 21.229C19.1574 21.0041 19.7181 20.6468 20.1827 20.1821C20.6472 19.7173 21.0044 19.1565 21.229 18.539C21.5 17.794 21.5 16.862 21.5 15M9 21.5C7.138 21.5 6.207 21.5 5.46 21.229C4.84257 21.0041 4.28188 20.6468 3.81732 20.1821C3.35277 19.7173 2.99563 19.1565 2.771 18.539C2.5 17.794 2.5 16.862 2.5 15M9 2.5C7.138 2.5 6.207 2.5 5.46 2.771C4.84257 2.99586 4.28188 3.35321 3.81732 3.81793C3.35277 4.28266 2.99563 4.84349 2.771 5.461C2.5 6.207 2.5 7.138 2.5 9.001M15 2.5C16.862 2.5 17.794 2.5 18.54 2.77C19.1574 2.99486 19.7181 3.35221 20.1827 3.81693C20.6472 4.28166 21.0044 4.84249 21.229 5.46C21.5 6.206 21.5 7.137 21.5 9M16.5 11.5C16.5 10.3065 16.0259 9.16193 15.182 8.31802C14.3381 7.47411 13.1935 7 12 7C10.8065 7 9.66193 7.47411 8.81802 8.31802C7.97411 9.16193 7.5 10.3065 7.5 11.5C7.5 12.6935 7.97411 13.8381 8.81802 14.682C9.66193 15.5259 10.8065 16 12 16C13.1935 16 14.3381 15.5259 15.182 14.682C16.0259 13.8381 16.5 12.6935 16.5 11.5Z" stroke="black" stroke-width="1.5" stroke-linecap="round" stroke-linejoin="round"/>
</svg>
