<svg  viewBox="0 0 24 24" fill="none" xmlns="http://www.w3.org/2000/svg">
<path d="M6 9C5.068 9 4.602 9 4.235 8.848C3.99218 8.74749 3.77155 8.6001 3.58572 8.41428C3.3999 8.22845 3.25251 8.00782 3.152 7.765C3 7.398 3 6.932 3 6C3 5.068 3 4.602 3.152 4.235C3.25251 3.99218 3.3999 3.77155 3.58572 3.58572C3.77155 3.3999 3.99218 3.25251 4.235 3.152C4.602 3 5.068 3 6 3H18C18.932 3 19.398 3 19.765 3.152C20.0078 3.25251 20.2284 3.3999 20.4143 3.58572C20.6001 3.77155 20.7475 3.99218 20.848 4.235C21 4.602 21 5.068 21 6C21 6.932 21 7.398 20.848 7.765C20.7475 8.00782 20.6001 8.22845 20.4143 8.41428C20.2284 8.6001 20.0078 8.74749 19.765 8.848C19.398 9 18.932 9 18 9M6 9H18M6 9C5.068 9 4.602 9 4.235 9.152C3.99218 9.25251 3.77155 9.3999 3.58572 9.58572C3.3999 9.77155 3.25251 9.99218 3.152 10.235C3 10.602 3 11.068 3 12C3 12.932 3 13.398 3.152 13.765C3.25251 14.0078 3.3999 14.2284 3.58572 14.4143C3.77155 14.6001 3.99218 14.7475 4.235 14.848C4.602 15 5.068 15 6 15M18 9C18.932 9 19.398 9 19.765 9.152C20.0078 9.25251 20.2284 9.3999 20.4143 9.58572C20.6001 9.77155 20.7475 9.99218 20.848 10.235C21 10.602 21 11.068 21 12C21 12.932 21 13.398 20.848 13.765C20.7475 14.0078 20.6001 14.2284 20.4143 14.4143C20.2284 14.6001 20.0078 14.7475 19.765 14.848C19.398 15 18.932 15 18 15M6 15H18M6 15C5.068 15 4.602 15 4.235 15.152C3.99218 15.2525 3.77155 15.3999 3.58572 15.5857C3.3999 15.7716 3.25251 15.9922 3.152 16.235C3 16.602 3 17.068 3 18C3 18.932 3 19.398 3.152 19.765C3.25251 20.0078 3.3999 20.2284 3.58572 20.4143C3.77155 20.6001 3.99218 20.7475 4.235 20.848C4.602 21 5.068 21 6 21H18C18.932 21 19.398 21 19.765 20.848C20.0078 20.7475 20.2284 20.6001 20.4143 20.4143C20.6001 20.2284 20.7475 20.0078 20.848 19.765C21 19.398 21 18.932 21 18C21 17.068 21 16.602 20.848 16.235C20.7475 15.9922 20.6001 15.7716 20.4143 15.5857C20.2284 15.3999 20.0078 15.2525 19.765 15.152C19.398 15 18.932 15 18 15M6 6H6.01M6 12H6.01M6 18H6.01M9 6H9.01M9 12H9.01M9 18H9.01" stroke="black" stroke-width="1.5" stroke-linecap="round" stroke-linejoin="round"/>
</svg>
