<svg  viewBox="0 0 24 24" fill="none" xmlns="http://www.w3.org/2000/svg">
<path d="M21 5.63176C20.4605 5.23299 19.8074 5.01779 19.1365 5.01779C18.4656 5.01779 17.8125 5.23299 17.273 5.63176C16.9394 5.87362 16.5371 6.00235 16.125 5.99911C15.713 5.99587 15.3128 5.86084 14.983 5.61376C13.847 4.79476 12.393 4.79476 11.273 5.61376C10.571 6.11576 9.685 6.11576 9 5.61376M3 9.37676C3.55928 9.77559 4.22908 9.98995 4.916 9.98995C5.60292 9.98995 6.27272 9.77559 6.832 9.37676C7.17226 9.13197 7.58083 9.00027 8 9.00027C8.41917 9.00027 8.82774 9.13197 9.168 9.37676C10.337 10.1948 11.848 10.2138 13 9.39476M21 14.6228C20.4605 14.224 19.8074 14.0088 19.1365 14.0088C18.4656 14.0088 17.8125 14.224 17.273 14.6228C16.9447 14.8678 16.5461 15.0001 16.1365 15.0001C15.7269 15.0001 15.3283 14.8678 15 14.6228C13.864 13.8048 12.393 13.7858 11.273 14.6048C10.571 15.1068 9.685 15.1068 9 14.6048M3 18.3768C3.55928 18.7756 4.22908 18.99 4.916 18.99C5.60292 18.99 6.27272 18.7756 6.832 18.3768C7.17226 18.132 7.58083 18.0003 8 18.0003C8.41917 18.0003 8.82774 18.132 9.168 18.3768C10.337 19.1948 11.848 19.2138 13 18.3948" stroke="black" stroke-width="1.5" stroke-linecap="round"/>
</svg>
