<svg  viewBox="0 0 24 24" fill="none" xmlns="http://www.w3.org/2000/svg">
<path d="M6.99805 15H10.427M6.99805 11H14.998M13.498 2H8.49805C8.30106 2 8.10601 2.0388 7.92402 2.11418C7.74203 2.18956 7.57667 2.30005 7.43739 2.43934C7.2981 2.57863 7.18761 2.74399 7.11223 2.92597C7.03685 3.10796 6.99805 3.30302 6.99805 3.5C6.99805 3.69698 7.03685 3.89204 7.11223 4.07403C7.18761 4.25601 7.2981 4.42137 7.43739 4.56066C7.57667 4.69995 7.74203 4.81044 7.92402 4.88582C8.10601 4.9612 8.30106 5 8.49805 5H13.498C13.695 5 13.8901 4.9612 14.0721 4.88582C14.2541 4.81044 14.4194 4.69995 14.5587 4.56066C14.698 4.42137 14.8085 4.25601 14.8839 4.07403C14.9592 3.89204 14.998 3.69698 14.998 3.5C14.998 3.30302 14.9592 3.10796 14.8839 2.92597C14.8085 2.74399 14.698 2.57863 14.5587 2.43934C14.4194 2.30005 14.2541 2.18956 14.0721 2.11418C13.8901 2.0388 13.695 2 13.498 2Z" stroke="black" stroke-width="1.5" stroke-linecap="round" stroke-linejoin="round"/>
<path d="M18.9971 13V9.48302C18.9971 6.65402 18.9971 5.24002 18.1181 4.36102C17.4781 3.72102 16.5511 3.54702 14.9981 3.50002M13.9961 22H8.99609C6.16809 22 4.75309 22 3.87509 21.12C2.99609 20.242 2.99609 18.828 2.99609 16V9.48202C2.99609 6.65302 2.99609 5.23902 3.87509 4.36002C4.51609 3.72002 5.44309 3.54602 6.99609 3.49902M20.9971 19H17.9971M17.9971 19H14.9971M17.9971 19V22M17.9971 19V16" stroke="black" stroke-width="1.5" stroke-linecap="round" stroke-linejoin="round"/>
</svg>
