<svg  viewBox="0 0 24 24" fill="none" xmlns="http://www.w3.org/2000/svg">
<path d="M20 16V8C20 5.172 20 3.757 19.121 2.879C18.243 2 16.828 2 14 2H10C7.172 2 5.757 2 4.879 2.879C4 3.757 4 5.172 4 8V16C4 18.828 4 20.243 4.879 21.121C5.757 22 7.172 22 10 22H14C16.828 22 18.243 22 19.121 21.121C20 20.243 20 18.828 20 16Z" stroke="currentColor" stroke-width="1.5" stroke-linecap="round" stroke-linejoin="round"/>
<path d="M7.5 11L8.5 12L10.5 9.5M13 17H16M13 11H16M15.5 2H8.5C8.5 3.414 8.5 4.121 8.94 4.56C9.379 5 10.086 5 11.5 5H12.5C13.914 5 14.621 5 15.06 4.56C15.5 4.121 15.5 3.414 15.5 2Z" stroke="currentColor" stroke-width="1.5" stroke-linecap="round" stroke-linejoin="round"/>
<path d="M8.49023 16.8672H8.50023" stroke="currentColor" stroke-width="2" stroke-linecap="round" stroke-linejoin="round"/>
</svg>
