<svg  viewBox="0 0 24 24" fill="none" xmlns="http://www.w3.org/2000/svg">
<path d="M7 15H10.429M7 11H15M13.5 2H8.5C8.30302 2 8.10796 2.0388 7.92597 2.11418C7.74399 2.18956 7.57863 2.30005 7.43934 2.43934C7.30005 2.57863 7.18956 2.74399 7.11418 2.92597C7.0388 3.10796 7 3.30302 7 3.5C7 3.69698 7.0388 3.89204 7.11418 4.07403C7.18956 4.25601 7.30005 4.42137 7.43934 4.56066C7.57863 4.69995 7.74399 4.81044 7.92597 4.88582C8.10796 4.9612 8.30302 5 8.5 5H13.5C13.8978 5 14.2794 4.84196 14.5607 4.56066C14.842 4.27936 15 3.89782 15 3.5C15 3.10218 14.842 2.72064 14.5607 2.43934C14.2794 2.15804 13.8978 2 13.5 2Z" stroke="black" stroke-width="1.5" stroke-linecap="round" stroke-linejoin="round"/>
<path d="M19 12V9.48302C19 6.65402 19 5.24002 18.121 4.36102C17.48 3.72102 16.554 3.54702 15 3.50002M11 22H9C6.172 22 4.757 22 3.879 21.12C3 20.243 3 18.829 3 16V9.48202C3 6.65302 3 5.23902 3.879 4.36002C4.52 3.72002 5.447 3.54602 6.999 3.49902M15.737 21.653L14 22L14.347 20.263C14.417 19.911 14.591 19.587 14.846 19.333L18.911 15.267C18.9955 15.1824 19.0959 15.1152 19.2064 15.0694C19.3169 15.0235 19.4354 15 19.555 15C19.6746 15 19.7931 15.0235 19.9036 15.0694C20.0141 15.1152 20.1145 15.1824 20.199 15.267L20.733 15.801C20.8177 15.8855 20.8848 15.9859 20.9307 16.0964C20.9765 16.2069 21.0001 16.3254 21.0001 16.445C21.0001 16.5647 20.9765 16.6831 20.9307 16.7936C20.8848 16.9041 20.8177 17.0045 20.733 17.089L16.668 21.154C16.4146 21.4097 16.0903 21.5835 15.737 21.653Z" stroke="black" stroke-width="1.5" stroke-linecap="round" stroke-linejoin="round"/>
</svg>
