<svg viewBox="0 0 64 64" fill="none" xmlns="http://www.w3.org/2000/svg">
<path d="M32.0007 5.3335C17.2807 5.3335 5.33398 17.2802 5.33398 32.0002C5.33398 46.7202 17.2807 58.6668 32.0007 58.6668C46.7207 58.6668 58.6673 46.7202 58.6673 32.0002C58.6673 17.2802 46.7207 5.3335 32.0007 5.3335ZM32.0007 53.3335C20.2407 53.3335 10.6673 43.7602 10.6673 32.0002C10.6673 20.2402 20.2407 10.6668 32.0007 10.6668C43.7607 10.6668 53.334 20.2402 53.334 32.0002C53.334 43.7602 43.7607 53.3335 32.0007 53.3335ZM44.2407 20.2135L26.6673 37.7868L19.7607 30.9068L16.0007 34.6668L26.6673 45.3335L48.0007 24.0002L44.2407 20.2135Z" fill="currentColor"/>
</svg>
