<svg viewBox="0 0 73 63" fill="none" xmlns="http://www.w3.org/2000/svg">
<path d="M8.3 53.59C7.80125 53.2453 7.33488 52.8559 6.90667 52.4267C3 48.5233 3 42.2367 3 29.6667C3 17.0967 3 10.81 6.90667 6.90667C10.8133 3.00333 17.0967 3 29.6667 3H43C55.57 3 61.8567 3 65.76 6.90667C69.6633 10.8133 69.6667 17.0967 69.6667 29.6667C69.6667 42.2367 69.6667 48.5233 65.76 52.4267C65.3289 52.86 64.8644 53.2478 64.3667 53.59" stroke="#15A756" stroke-width="6" stroke-linecap="round"/>
<path d="M25.2875 49.4205C22.4075 51.1771 14.8509 54.7605 19.4542 59.2438C21.7009 61.4338 24.2009 63.0005 27.3542 63.0005H45.3175C48.4642 63.0005 50.9675 61.4338 53.2175 59.2438C57.8175 54.7605 50.2609 51.1771 47.3809 49.4205C44.0503 47.4002 40.2296 46.332 36.3342 46.332C32.4389 46.332 28.6181 47.4002 25.2875 49.4205Z" fill="#15A756"/>
<path d="M44.6667 29.6663C44.6667 31.8765 43.7887 33.9961 42.2259 35.5589C40.6631 37.1217 38.5435 37.9997 36.3333 37.9997C34.1232 37.9997 32.0036 37.1217 30.4408 35.5589C28.878 33.9961 28 31.8765 28 29.6663C28 27.4562 28.878 25.3366 30.4408 23.7738C32.0036 22.211 34.1232 21.333 36.3333 21.333C38.5435 21.333 40.6631 22.211 42.2259 23.7738C43.7887 25.3366 44.6667 27.4562 44.6667 29.6663Z" fill="#15A756"/>
</svg>
