<svg viewBox="0 0 22 22" fill="none" xmlns="http://www.w3.org/2000/svg">
<mask id="path-1-inside-1_393_25979" fill="white">
<path d="M0 4C0 1.79086 1.79086 0 4 0H18C20.2091 0 22 1.79086 22 4V18C22 20.2091 20.2091 22 18 22H4C1.79086 22 0 20.2091 0 18V4Z"/>
</mask>
<path d="M4 1H18V-1H4V1ZM21 4V18H23V4H21ZM18 21H4V23H18V21ZM1 18V4H-1V18H1ZM4 21C2.34315 21 1 19.6569 1 18H-1C-1 20.7614 1.23858 23 4 23V21ZM21 18C21 19.6569 19.6569 21 18 21V23C20.7614 23 23 20.7614 23 18H21ZM18 1C19.6569 1 21 2.34315 21 4H23C23 1.23858 20.7614 -1 18 -1V1ZM4 -1C1.23858 -1 -1 1.23858 -1 4H1C1 2.34315 2.34315 1 4 1V-1Z" fill="#CDD1D5" mask="url(#path-1-inside-1_393_25979)"/>
<path d="M14.9395 4.48877V9.7915H17.0488V10.7583H14.9395V17.5112H13.7969V4.48877H14.9395ZM11.5703 5.89502C11.5703 9.58643 9.8418 12.9409 5.59375 15.0356L4.94922 14.1274C8.31836 12.4502 10.1494 9.94531 10.4131 6.86182H5.5498V5.89502H11.5703Z" fill="#1E2124"/>
</svg>
