<svg viewBox="0 0 32 32" fill="none" xmlns="http://www.w3.org/2000/svg">
<path d="M4.03119 21.9067L8.51563 18.4774C8.25921 17.6986 8.12056 16.8654 8.12056 15.9987C8.12056 15.1321 8.25921 14.2989 8.51563 13.5201L4.03119 10.0908C3.15656 11.869 2.66602 13.8738 2.66602 15.9987C2.66602 18.1237 3.15656 20.1284 4.03119 21.9067Z" fill="#FBBC05"/>
<path d="M8.51178 13.5207C9.54644 10.3781 12.4985 8.12056 15.9955 8.12056C17.8743 8.12056 19.5713 8.78723 20.9046 9.87814L24.7834 5.99935C22.4197 3.93874 19.3894 2.66602 15.9955 2.66602C10.7265 2.66602 6.19611 5.68214 4.02734 10.0914L8.51178 13.5207Z" fill="#EA4335"/>
<path d="M15.9973 29.3321C10.7268 29.3321 6.1954 26.3143 4.02734 21.903L8.50995 18.4663C9.54132 21.6147 12.4962 23.8775 15.9973 23.8775C17.7105 23.8775 19.2285 23.4741 20.4306 22.7154L24.6879 26.0114C22.3574 28.1783 19.2495 29.3321 15.9973 29.3321Z" fill="#34A853"/>
<path d="M15.9961 13.5752H28.4203C28.6022 14.3631 28.7234 15.2116 28.7234 15.9994C28.7234 20.3452 27.1335 23.737 24.6867 26.0121L20.4294 22.7161C21.8214 21.8376 22.7899 20.4828 23.1476 18.7267H15.9961V13.5752Z" fill="#4285F4"/>
</svg>
