<svg viewBox="0 0 40 40" fill="none" xmlns="http://www.w3.org/2000/svg">
<path d="M5.0385 27.384L10.644 23.0974C10.3235 22.1239 10.1502 21.0825 10.1502 19.9992C10.1502 18.9158 10.3235 17.8744 10.644 16.9009L5.0385 12.6143C3.94521 14.837 3.33203 17.343 3.33203 19.9992C3.33203 22.6553 3.94521 25.1613 5.0385 27.384Z" fill="#9FA6AD"/>
<path d="M10.6446 16.9009C11.9379 12.9726 15.628 10.1507 19.9993 10.1507C22.3477 10.1507 24.469 10.984 26.1356 12.3477L30.9841 7.49919C28.0296 4.92343 24.2417 3.33252 19.9993 3.33252C13.413 3.33252 7.75002 7.10268 5.03906 12.6143L10.6446 16.9009Z" fill="#636B74"/>
<path d="M20.0015 36.6662C13.4134 36.6662 7.74913 32.8939 5.03906 27.3798L10.6423 23.084C11.9315 27.0194 15.6251 29.848 20.0015 29.848C22.143 29.848 24.0405 29.3437 25.5431 28.3954L30.8647 32.5153C27.9516 35.2239 24.0667 36.6662 20.0015 36.6662Z" fill="#636B74"/>
<path d="M20.002 16.9683H35.5323C35.7595 17.9531 35.911 19.0137 35.911 19.9986C35.911 25.4307 33.9237 29.6705 30.8652 32.5144L25.5435 28.3944C27.2835 27.2963 28.4942 25.6028 28.9413 23.4077H20.002V16.9683Z" fill="#9FA6AD"/>
</svg>
