<svg viewBox="0 0 64 64" fill="none" xmlns="http://www.w3.org/2000/svg">
<path d="M22.667 47.9998C27.5017 42.7892 36.4457 42.5438 41.3337 47.9998M37.1737 31.9998C37.1737 34.9465 34.851 37.3332 31.9817 37.3332C29.115 37.3332 26.7897 34.9465 26.7897 31.9998C26.7897 29.0532 29.115 26.6665 31.9817 26.6665C34.8483 26.6665 37.1763 29.0532 37.1763 31.9998H37.1737Z" stroke="#5856D6" stroke-width="4"/>
<path d="M25.3335 10.6719C18.2828 10.6985 14.5095 10.9439 12.0668 13.2585C9.3335 15.8479 9.3335 20.0159 9.3335 28.3519V40.9839C9.3335 49.3199 9.3335 53.4905 12.0668 56.0772C14.8002 58.6692 19.2002 58.6692 28.0002 58.6692H36.0002C44.8002 58.6692 49.2002 58.6692 51.9335 56.0799C54.6668 53.4879 54.6668 49.3199 54.6668 40.9865V28.3519C54.6668 20.0159 54.6668 15.8479 51.9335 13.2585C49.4908 10.9439 45.7202 10.6985 38.6668 10.6719" stroke="currentColor" stroke-width="4"/>
<path d="M26.0586 9.68525C26.3146 8.57859 26.4426 8.02392 26.688 7.57325C26.993 7.03702 27.408 6.57138 27.9057 6.20692C28.4034 5.84246 28.9727 5.58743 29.576 5.45859C30.1173 5.33325 30.7466 5.33325 32 5.33325C33.2533 5.33325 33.8826 5.33325 34.424 5.45859C35.0273 5.58743 35.5965 5.84246 36.0942 6.20692C36.592 6.57138 37.007 7.03702 37.312 7.57325C37.5573 8.02658 37.6853 8.57859 37.9413 9.68525L38.1626 10.6453C38.616 12.6053 38.8426 13.5866 38.5013 14.3413C38.2687 14.8421 37.8904 15.2613 37.416 15.5439C36.6666 15.9999 35.552 15.9999 33.328 15.9999H30.672C28.448 15.9999 27.3333 15.9999 26.584 15.5466C26.1091 15.2632 25.7308 14.8431 25.4986 14.3413C25.1573 13.5866 25.384 12.6079 25.8373 10.6453L26.0586 9.68525Z" stroke="currentColor" stroke-width="4"/>
</svg>
