<svg viewBox="0 0 40 40" fill="none" xmlns="http://www.w3.org/2000/svg">
<path d="M0 20C0 8.95431 8.95431 0 20 0C31.0457 0 40 8.95431 40 20C40 31.0457 31.0457 40 20 40C8.95431 40 0 31.0457 0 20Z" fill="#9FA6AD"/>
<g clip-path="url(#clip0_3523_23296)">
<path fill-rule="evenodd" clip-rule="evenodd" d="M20.0001 9.7334C13.9246 9.7334 9 13.5381 9 18.2306C9 21.149 10.9047 23.7217 13.8052 25.2519L12.5848 29.71C12.477 30.1039 12.9275 30.4179 13.2735 30.1896L18.623 26.659C19.0745 26.7025 19.5332 26.728 20.0001 26.728C26.0751 26.728 31 22.9234 31 18.2306C31 13.5381 26.0751 9.7334 20.0001 9.7334Z" fill="white"/>
</g>
<defs>
<clipPath id="clip0_3523_23296">
<rect width="22" height="22" fill="white" transform="translate(9 9)"/>
</clipPath>
</defs>
</svg>
