<svg width="64" height="64" viewBox="0 0 64 64" fill="none" xmlns="http://www.w3.org/2000/svg">
<path d="M15.9998 58.6667C14.5332 58.6667 13.2781 58.145 12.2345 57.1014C11.1909 56.0579 10.6683 54.8019 10.6665 53.3334V26.6668C10.6665 25.2001 11.1892 23.945 12.2345 22.9014C13.2798 21.8579 14.5349 21.3352 15.9998 21.3334H18.6665V16.0001C18.6665 12.3112 19.9669 9.16719 22.5678 6.56808C25.1687 3.96897 28.3127 2.66853 31.9998 2.66675C35.6869 2.66497 38.8318 3.96542 41.4345 6.56808C44.0372 9.17075 45.3367 12.3147 45.3332 16.0001V21.3334H47.9998C49.4665 21.3334 50.7225 21.8561 51.7678 22.9014C52.8132 23.9468 53.3349 25.2019 53.3332 26.6668V53.3334C53.3332 54.8001 52.8114 56.0561 51.7678 57.1014C50.7243 58.1468 49.4683 58.6685 47.9998 58.6667H15.9998ZM15.9998 53.3334H47.9998V26.6668H15.9998V53.3334ZM31.9998 45.3334C33.4665 45.3334 34.7225 44.8116 35.7678 43.7681C36.8132 42.7245 37.3349 41.4685 37.3332 40.0001C37.3314 38.5316 36.8096 37.2765 35.7678 36.2348C34.7261 35.193 33.4701 34.6703 31.9998 34.6668C30.5296 34.6632 29.2745 35.1859 28.2345 36.2348C27.1945 37.2836 26.6718 38.5388 26.6665 40.0001C26.6612 41.4614 27.1838 42.7174 28.2345 43.7681C29.2852 44.8188 30.5403 45.3405 31.9998 45.3334ZM23.9998 21.3334H39.9998V16.0001C39.9998 13.7779 39.2221 11.889 37.6665 10.3334C36.1109 8.77786 34.2221 8.00008 31.9998 8.00008C29.7776 8.00008 27.8887 8.77786 26.3332 10.3334C24.7776 11.889 23.9998 13.7779 23.9998 16.0001V21.3334Z" fill="#5856D6"/>
</svg>
