<svg viewBox="0 0 90 100" fill="none" xmlns="http://www.w3.org/2000/svg">
<g clip-path="url(#clip0_2736_21150)">
<path d="M75.6579 77.8735C75.329 77.8735 74.9342 77.8075 74.6711 77.6093L60.7895 69.1549C60 68.6925 59.6711 67.7018 60 66.7771C60.9869 64.3993 61.4474 61.8233 61.4474 59.1153C61.4474 48.9435 54.2105 40.2909 44.2105 38.5736C43.2895 38.4415 42.6316 37.5829 42.6316 36.6582V20.3438C42.6316 19.8154 42.829 19.287 43.2895 18.8907C43.6842 18.4944 44.2105 18.3623 44.7369 18.4283C65.6579 20.4759 81.3816 37.9792 81.3816 59.1153C81.3816 65.324 80.0658 71.2024 77.4342 76.7507C77.1711 77.213 76.7763 77.6093 76.25 77.7414C76.0526 77.7414 75.8553 77.8075 75.7237 77.8075L75.6579 77.8735ZM64.079 66.645L74.8026 73.1839C76.6447 68.7586 77.5658 64.003 77.5658 59.1153C77.5658 40.6872 64.3421 25.2975 46.4474 22.5234V35.073C57.4342 37.715 65.2632 47.5565 65.2632 59.0492C65.2632 61.6252 64.8684 64.1351 64.079 66.5789V66.645Z" fill="#ABE9CA"/>
<path d="M71.6449 82.497C64.6054 91.9422 53.2896 98.0188 40.658 98.0188C36.1186 98.0188 31.7107 97.2262 27.6975 95.7731L33.0922 80.5155C35.4607 81.3742 38.0265 81.8365 40.658 81.8365C47.5001 81.8365 53.6186 78.7982 57.7633 73.9766L71.6449 82.431V82.497Z" fill="white" fill-opacity="0.5"/>
<path d="M40.6581 100C35.987 100 31.3818 99.2078 27.0397 97.6226C26.0528 97.2923 25.5265 96.1695 25.8555 95.1787L31.2502 79.9211C31.4476 79.4588 31.7765 79.0625 32.237 78.7983C32.6976 78.6001 33.2239 78.5341 33.6844 78.7322C35.9213 79.5248 38.2239 79.9211 40.5923 79.9211C46.5792 79.9211 52.3028 77.2791 56.2502 72.7217C56.8423 71.9951 57.8949 71.863 58.6844 72.3254L72.566 80.7798C73.0265 81.044 73.3555 81.5063 73.4213 82.0347C73.5528 82.5632 73.4213 83.0915 73.0923 83.5539C65.3292 93.9238 53.487 99.8683 40.5923 99.8683L40.6581 100ZM30.1318 94.5843C33.5528 95.575 37.0397 96.1034 40.6581 96.1034C51.6449 96.1034 61.7765 91.3478 68.816 82.9595L58.0923 76.4205C53.487 81.11 47.237 83.7521 40.6581 83.7521C38.487 83.7521 36.316 83.4879 34.2765 82.8934L30.1318 94.5182V94.5843Z" fill="#91FBC8"/>
<path d="M27.6975 97.7548C27.6975 97.7548 27.2369 97.7548 27.0396 97.6227C15.5922 93.5276 6.31589 84.2145 2.30274 72.6558C1.97379 71.665 2.5001 70.5421 3.48695 70.2119L18.6843 64.8618C19.1448 64.6637 19.6712 64.7297 20.1317 64.9279C20.5922 65.126 20.9212 65.5223 21.1185 66.0507C23.158 71.9292 27.8948 76.6848 33.7501 78.7984C34.2106 78.9966 34.6054 79.3268 34.8685 79.7892C35.0659 80.2515 35.1317 80.7799 34.9343 81.2423L29.5396 96.4999C29.2764 97.2925 28.5527 97.7548 27.7633 97.7548H27.6975ZM6.57905 73.1842C10.2633 82.233 17.5659 89.5646 26.5133 93.3295L30.658 81.7046C25.1317 79.1947 20.658 74.7033 18.158 69.1551L6.57905 73.2502V73.1842Z" fill="#91FBC8"/>
<path d="M4.07895 73.9103C3.28947 73.9103 2.56579 73.4479 2.30263 72.6553C0.789474 68.362 0 63.8046 0 59.115C0 51.5192 2.10526 44.0556 6.05263 37.6487C6.57895 36.724 7.76316 36.4598 8.68421 37.0542C9.60526 37.5826 9.86842 38.7716 9.27631 39.6963C5.65789 45.5087 3.81579 52.2458 3.81579 59.115C3.81579 62.6817 4.3421 66.1824 5.32895 69.5509L16.9079 65.4558C16.3816 63.4083 16.1184 61.2947 16.1184 59.115C16.1184 47.6223 23.9474 37.7808 34.9342 35.1388V22.5893C26.8421 23.8442 19.4079 27.8072 13.75 33.8838C13.0263 34.6764 11.8421 34.6764 11.0526 33.9499C10.2632 33.2233 10.2632 32.0344 10.9868 31.2418C17.7632 23.9763 26.9079 19.4188 36.7105 18.4941C37.2368 18.4941 37.7632 18.6262 38.1579 18.9565C38.5526 19.3528 38.8158 19.8151 38.8158 20.4096V36.724C38.8158 37.6487 38.1579 38.4413 37.2368 38.6395C27.2368 40.3568 20 49.0093 20 59.1811C20 61.5589 20.3947 63.8706 21.1842 66.0503C21.5132 67.041 20.9868 68.1639 20 68.4941L4.80263 73.8442C4.80263 73.8442 4.40789 73.9763 4.14474 73.9763L4.07895 73.9103Z" fill="#91FBC8"/>
<path d="M30.3948 90.0267C29.8685 90.0267 29.408 89.8286 29.0132 89.4983C28.6185 89.102 28.4211 88.6397 28.4211 88.1113C28.4211 87.9792 28.4211 87.8471 28.4211 87.715C28.4211 87.5829 28.4211 87.4508 28.5527 87.3847C28.5527 87.2526 28.6843 87.1866 28.7501 87.0545C28.8159 86.9224 28.8817 86.8563 29.0132 86.7903C29.4738 86.3279 30.1317 86.1298 30.7238 86.2619C30.8554 86.2619 30.9869 86.3279 31.1185 86.394C31.2501 86.46 31.3159 86.5261 31.4475 86.5921C31.579 86.6582 31.6448 86.7242 31.7106 86.8563C31.7764 86.9224 31.908 87.0545 31.9738 87.1205C32.0396 87.2526 32.1054 87.3187 32.1711 87.4508C32.1711 87.5829 32.2369 87.715 32.3027 87.781C32.3027 87.9131 32.3027 88.0452 32.3027 88.1773C32.3027 88.7057 32.1054 89.1681 31.7106 89.5644C31.3159 89.9607 30.8554 90.0928 30.329 90.0928L30.3948 90.0267Z" fill="#91FBC8"/>
<path d="M23.2236 86.7905C22.3026 86.1961 22.0394 85.0732 22.6315 84.1485C23.2236 83.2238 24.4078 82.9596 25.2631 83.5541C26.1841 84.1485 26.4473 85.2714 25.8552 86.1961C25.4605 86.7905 24.8684 87.0547 24.2105 87.0547C23.8815 87.0547 23.4868 86.9887 23.1578 86.7245L23.2236 86.7905ZM17.6315 82.2331C16.9078 81.5065 16.9078 80.2516 17.6315 79.525C18.3552 78.7984 19.6052 78.7984 20.3289 79.525C21.0526 80.2516 21.0526 81.5065 20.3289 82.2331C19.9341 82.6294 19.4736 82.7615 18.9473 82.7615C18.4868 82.7615 17.9605 82.5633 17.5657 82.2331H17.6315ZM13.092 76.5527C12.4999 75.628 12.7631 74.4391 13.6841 73.9107C14.6052 73.3163 15.7894 73.6465 16.3157 74.5052C16.9078 75.4299 16.6447 76.6188 15.7236 77.1472C15.7236 77.1472 15.0657 77.4774 14.7368 77.4774C14.0789 77.4774 13.4868 77.1472 13.092 76.5527Z" fill="#91FBC8"/>
<path d="M11.7763 71.2687C11.25 71.2687 10.7895 71.0705 10.3947 70.7403C10.1974 70.5421 10.0658 70.344 9.99999 70.1458C9.9342 69.9477 9.86841 69.6835 9.86841 69.4193C9.86841 68.8909 10.0658 68.4285 10.4605 68.0322C11.1842 67.3057 12.4342 67.3057 13.1579 68.0322C13.5526 68.3625 13.75 68.8909 13.75 69.4193C13.75 69.6835 13.75 69.9477 13.6184 70.1458C13.4868 70.344 13.3553 70.6082 13.2237 70.7403C12.8947 71.0705 12.3684 71.2687 11.8421 71.2687H11.7763Z" fill="#91FBC8"/>
<path d="M11.7763 71.2682C10.9868 71.2682 10.2631 70.8059 9.99996 70.0133C9.53943 68.7583 9.21049 67.4373 8.88154 66.0503C8.68417 64.9935 9.34207 64.0027 10.3289 63.7385C11.3815 63.5404 12.3684 64.2009 12.6315 65.1916C12.8947 66.3805 13.2236 67.5034 13.6184 68.6262C13.9473 69.617 13.421 70.7398 12.4342 71.0701C12.2368 71.1361 12.0394 71.2022 11.7763 71.2022V71.2682ZM10.0657 59.9076C10.0657 59.9076 10.0657 59.9076 9.99996 59.9076C8.94733 59.9076 8.09207 58.9829 8.15785 57.9261C8.15785 56.5391 8.35522 55.218 8.55259 53.897C8.74996 52.8402 9.7368 52.1137 10.7236 52.3118C11.7763 52.51 12.5 53.5007 12.3026 54.4915C12.1052 55.6804 11.9736 56.8693 11.9736 58.0582C11.9736 59.115 11.1184 59.9076 10.0657 59.9076ZM12.5657 48.7451C12.5657 48.7451 12.0394 48.7451 11.7763 48.613C10.7894 48.2167 10.3947 47.0278 10.7894 46.1031C11.3157 44.8482 11.9736 43.6593 12.6315 42.4704C13.1579 41.5457 14.3421 41.2815 15.2631 41.8099C16.1842 42.3383 16.4473 43.5272 15.921 44.4519C15.3289 45.5087 14.7368 46.5655 14.2763 47.6883C13.9473 48.4149 13.2894 48.8112 12.5 48.8112L12.5657 48.7451ZM19.0789 39.2339C18.6184 39.2339 18.0921 39.0357 17.6973 38.6394C16.9736 37.9129 16.9736 36.6579 17.6973 35.9314C18.2236 35.403 18.6842 34.9406 19.2105 34.4783C20 33.7517 21.1842 33.8838 21.9079 34.6764C22.6315 35.469 22.5 36.6579 21.7105 37.3845C21.25 37.7808 20.7894 38.1771 20.3947 38.6394C20 39.0357 19.5394 39.1678 19.0131 39.1678L19.0789 39.2339Z" fill="#91FBC8"/>
<path d="M52.8946 89.5644C52.3683 89.5644 51.842 89.4323 51.3157 89.2342C49.8025 88.5737 48.8157 87.1206 48.8157 85.4693V57.0017C48.8157 53.5671 51.5788 50.793 54.9999 50.793H83.8157C87.2367 50.793 89.9999 53.5671 89.9999 57.0017V77.8075C89.9999 81.2421 87.2367 84.0162 83.8157 84.0162H60.1973H60.0657L55.7894 88.3095C54.9999 89.1021 54.013 89.4984 52.9604 89.4984L52.8946 89.5644ZM55.0657 54.6239C53.7499 54.6239 52.6973 55.6807 52.6973 57.0017V85.4693C52.6973 85.4693 52.6973 85.6014 52.8288 85.6675C52.9604 85.6675 53.0262 85.6675 53.092 85.6675L57.3683 81.3742C58.1578 80.5816 59.1446 80.1853 60.263 80.1853H83.8815C85.1973 80.1853 86.2499 79.1285 86.2499 77.8075V57.0017C86.2499 55.6807 85.1973 54.6239 83.8815 54.6239H55.0657Z" fill="#22E563"/>
<path d="M79.9999 62.3514H58.8815C57.8289 62.3514 56.9736 61.4928 56.9736 60.436C56.9736 59.3792 57.8289 58.5205 58.8815 58.5205H79.9999C81.0526 58.5205 81.9078 59.3792 81.9078 60.436C81.9078 61.4928 81.0526 62.3514 79.9999 62.3514Z" fill="#22E563"/>
<path d="M74.2764 70.0135H58.8159C57.7632 70.0135 56.908 69.1549 56.908 68.0981C56.908 67.0413 57.7632 66.1826 58.8159 66.1826H74.2764C75.329 66.1826 76.1843 67.0413 76.1843 68.0981C76.1843 69.1549 75.329 70.0135 74.2764 70.0135Z" fill="#22E563"/>
<path d="M32.9605 1.91504H61.7763C64.1447 1.91504 66.0526 3.83049 66.0526 6.2083V34.6759C66.0526 36.5914 63.75 37.5161 62.4342 36.1951L58.1579 31.9018C57.7632 31.5055 57.2368 31.2413 56.6447 31.2413H33.0263C30.6579 31.2413 28.75 29.3259 28.75 26.9481V6.2083C28.75 3.83049 30.6579 1.91504 33.0263 1.91504H32.9605Z" fill="#19ACAE"/>
<path d="M63.8815 38.7715C62.8289 38.7715 61.7763 38.3752 61.0526 37.5826L56.7763 33.2893C56.7763 33.2893 56.7105 33.2893 56.6447 33.2893H33.0263C29.6052 33.2893 26.842 30.5152 26.842 27.0806V6.20872C26.842 2.77411 29.6052 0 33.0263 0H61.842C65.2631 0 68.0263 2.77411 68.0263 6.20872V34.6764C68.0263 36.3276 67.0394 37.7807 65.5263 38.4412C64.9999 38.6394 64.4736 38.7715 63.9473 38.7715H63.8815ZM32.9605 3.83091C31.6447 3.83091 30.592 4.88771 30.592 6.20872V27.0145C30.592 28.3355 31.6447 29.3923 32.9605 29.3923H56.5789C57.6315 29.3923 58.6841 29.7886 59.4736 30.5812L63.7499 34.8745C63.7499 34.8745 63.8815 35.0066 64.0131 34.8745C64.1447 34.8745 64.1447 34.7424 64.1447 34.6764V6.20872C64.1447 4.88771 63.092 3.83091 61.7763 3.83091H32.9605Z" fill="#22E563"/>
<path d="M57.9606 11.5585H36.8422C35.7896 11.5585 34.9343 10.6998 34.9343 9.643C34.9343 8.58619 35.7896 7.72754 36.8422 7.72754H57.9606C59.0133 7.72754 59.8685 8.58619 59.8685 9.643C59.8685 10.6998 59.0133 11.5585 57.9606 11.5585Z" fill="#22E563"/>
<path d="M57.9606 19.2206H36.8422C35.7896 19.2206 34.9343 18.3619 34.9343 17.3051C34.9343 16.2483 35.7896 15.3896 36.8422 15.3896H57.9606C59.0133 15.3896 59.8685 16.2483 59.8685 17.3051C59.8685 18.3619 59.0133 19.2206 57.9606 19.2206Z" fill="#22E563"/>
<path d="M50.7895 26.9481H36.7763C35.7237 26.9481 34.8684 26.0894 34.8684 25.0326C34.8684 23.9758 35.7237 23.1172 36.7763 23.1172H50.7895C51.8421 23.1172 52.6974 23.9758 52.6974 25.0326C52.6974 26.0894 51.8421 26.9481 50.7895 26.9481Z" fill="#22E563"/>
</g>
<defs>
<clipPath id="clip0_2736_21150">
<rect width="90" height="100" fill="white"/>
</clipPath>
</defs>
</svg>
