<svg viewBox="0 0 80 80" fill="none" xmlns="http://www.w3.org/2000/svg">
<g clip-path="url(#clip0_2736_21033)">
<path d="M78.4676 15.3765H30.0132C29.4848 15.3765 29.0092 15.1123 28.6922 14.6367L20.9775 2.37781C20.6605 1.90225 20.6605 1.321 20.9775 0.792602C21.2946 0.264201 21.7701 0 22.2985 0H78.4148C79.2602 0 79.9471 0.686922 79.9471 1.53236V13.8441C79.9471 14.6896 79.2602 15.3765 78.4148 15.3765H78.4676ZM30.8586 12.3118H76.9353V3.06473H25.0991L30.8586 12.3118Z" fill="#9578FF"/>
<path d="M30.0132 15.3765H1.53236C0.686922 15.3765 0 14.6896 0 13.8441V1.53236C0 0.686922 0.686922 0 1.53236 0H22.2985C22.8269 0 23.3025 0.264201 23.6195 0.739762L31.3342 13.0515C31.6513 13.5271 31.6513 14.1083 31.3342 14.6367C31.07 15.1123 30.5416 15.4293 30.0132 15.4293V15.3765ZM3.06473 12.3118H27.2127L21.4531 3.06473H3.06473V12.3118Z" fill="#9578FF"/>
<path d="M78.4676 79.9998H1.53236C0.686922 79.9998 0 79.3129 0 78.4674V13.8439C0 12.9984 0.686922 12.3115 1.53236 12.3115H78.4148C79.2602 12.3115 79.9472 12.9984 79.9472 13.8439V64.6233C79.9472 65.4687 79.2602 66.1557 78.4148 66.1557C77.5694 66.1557 76.8824 65.4687 76.8824 64.6233V15.3763H3.06473V76.8822H76.8824V70.7527C76.8824 69.9073 77.5694 69.2204 78.4148 69.2204C79.2602 69.2204 79.9472 69.9073 79.9472 70.7527V78.4674C79.9472 79.3129 79.2602 79.9998 78.4148 79.9998H78.4676Z" fill="#9578FF"/>
<path d="M70.7529 7.71498C70.7529 6.86954 71.4398 6.18262 72.2853 6.18262C73.1307 6.18262 73.8176 6.86954 73.8176 7.71498C73.8176 8.56042 73.1307 9.24735 72.2853 9.24735C71.4398 9.24735 70.7529 8.56042 70.7529 7.71498ZM64.6235 7.71498C64.6235 6.86954 65.3104 6.18262 66.1558 6.18262C67.0013 6.18262 67.6882 6.86954 67.6882 7.71498C67.6882 8.56042 67.0013 9.24735 66.1558 9.24735C65.3104 9.24735 64.6235 8.56042 64.6235 7.71498ZM58.4412 7.71498C58.4412 6.86954 59.1281 6.18262 59.9735 6.18262C60.819 6.18262 61.5059 6.86954 61.5059 7.71498C61.5059 8.56042 60.819 9.24735 59.9735 9.24735C59.1281 9.24735 58.4412 8.56042 58.4412 7.71498Z" fill="#9578FF"/>
<path d="M18.9697 9.24735H7.71474C6.8693 9.24735 6.18237 8.56042 6.18237 7.71498C6.18237 6.86954 6.8693 6.18262 7.71474 6.18262H18.9697C19.8151 6.18262 20.5021 6.86954 20.5021 7.71498C20.5021 8.56042 19.8151 9.24735 18.9697 9.24735Z" fill="#9578FF"/>
<path d="M19.7094 70.7529H10.7794C9.93399 70.7529 9.24707 70.0659 9.24707 69.2205C9.24707 68.3751 9.93399 67.6881 10.7794 67.6881H19.0753L28.9564 57.807C29.5377 57.2258 30.5417 57.2258 31.1229 57.807C31.7041 58.3883 31.7041 59.3922 31.1229 59.9735L20.7662 70.3301C20.502 70.5943 20.0793 70.8057 19.6566 70.8057L19.7094 70.7529Z" fill="#8F99FF"/>
<path d="M10.7796 72.2847C12.4722 72.2847 13.8443 70.9126 13.8443 69.22C13.8443 67.5274 12.4722 66.1553 10.7796 66.1553C9.08697 66.1553 7.71484 67.5274 7.71484 69.22C7.71484 70.9126 9.08697 72.2847 10.7796 72.2847Z" fill="#272C87"/>
<path d="M10.7795 73.8172C8.24314 73.8172 6.18237 71.7565 6.18237 69.2201C6.18237 66.6838 8.24314 64.623 10.7795 64.623C13.3158 64.623 15.3766 66.6838 15.3766 69.2201C15.3766 71.7565 13.3158 73.8172 10.7795 73.8172ZM10.7795 67.6878C9.93403 67.6878 9.2471 68.3747 9.2471 69.2201C9.2471 70.0656 9.93403 70.7525 10.7795 70.7525C11.6249 70.7525 12.3118 70.0656 12.3118 69.2201C12.3118 68.3747 11.6249 67.6878 10.7795 67.6878Z" fill="#8F99FF"/>
<path d="M69.2207 70.753H57.226C56.8033 70.753 56.4334 70.5944 56.1163 70.2774L45.7597 59.9207C45.1784 59.3395 45.1784 58.3355 45.7597 57.7543C46.3409 57.173 47.3449 57.173 47.9261 57.7543L57.8072 67.6354H69.1679C70.0133 67.6354 70.7002 68.3223 70.7002 69.1678C70.7002 70.0132 70.0133 70.7001 69.1679 70.7001L69.2207 70.753Z" fill="#8F99FF"/>
<path d="M69.2207 72.2847C70.9133 72.2847 72.2855 70.9126 72.2855 69.22C72.2855 67.5274 70.9133 66.1553 69.2207 66.1553C67.5281 66.1553 66.156 67.5274 66.156 69.22C66.156 70.9126 67.5281 72.2847 69.2207 72.2847Z" fill="#272C87"/>
<path d="M69.2206 73.8172C66.6843 73.8172 64.6235 71.7565 64.6235 69.2201C64.6235 66.6838 66.6843 64.623 69.2206 64.623C71.757 64.623 73.8177 66.6838 73.8177 69.2201C73.8177 71.7565 71.757 73.8172 69.2206 73.8172ZM69.2206 67.6878C68.3752 67.6878 67.6883 68.3747 67.6883 69.2201C67.6883 70.0656 68.3752 70.7525 69.2206 70.7525C70.0661 70.7525 70.753 70.0656 70.753 69.2201C70.753 68.3747 70.0661 67.6878 69.2206 67.6878Z" fill="#8F99FF"/>
<path d="M45.0197 35.4029C44.6498 35.4029 44.2271 35.2444 43.9101 34.9274C43.3288 34.3461 43.3288 33.3422 43.9101 32.7609L54.2667 22.4043C54.5309 22.1401 54.9536 21.9287 55.3764 21.9287H67.3711C68.2165 21.9287 68.9034 22.6156 68.9034 23.4611C68.9034 24.3065 68.2165 24.9934 67.3711 24.9934H56.0104L46.1293 34.8745C45.8123 35.1916 45.4424 35.3501 45.0197 35.3501V35.4029Z" fill="#8F99FF"/>
<path d="M67.3714 26.5787C69.064 26.5787 70.4361 25.2066 70.4361 23.5139C70.4361 21.8213 69.064 20.4492 67.3714 20.4492C65.6788 20.4492 64.3066 21.8213 64.3066 23.5139C64.3066 25.2066 65.6788 26.5787 67.3714 26.5787Z" fill="#272C87"/>
<path d="M67.3713 28.1112C64.8349 28.1112 62.7742 26.0504 62.7742 23.5141C62.7742 20.9778 64.8349 18.917 67.3713 18.917C69.9076 18.917 71.9684 20.9778 71.9684 23.5141C71.9684 26.0504 69.9076 28.1112 67.3713 28.1112ZM67.3713 21.9817C66.5258 21.9817 65.8389 22.6686 65.8389 23.5141C65.8389 24.3595 66.5258 25.0465 67.3713 25.0465C68.2167 25.0465 68.9036 24.3595 68.9036 23.5141C68.9036 22.6686 68.2167 21.9817 67.3713 21.9817Z" fill="#8F99FF"/>
<path d="M30.383 35.4028C30.0131 35.4028 29.5904 35.2443 29.2733 34.9273L19.3922 25.0462H11.0963C10.2509 25.0462 9.56396 24.3593 9.56396 23.5138C9.56396 22.6684 10.2509 21.9814 11.0963 21.9814H20.0263C20.449 21.9814 20.8189 22.14 21.136 22.457L31.4926 32.8137C32.0739 33.3949 32.0739 34.3989 31.4926 34.9801C31.1756 35.2972 30.8057 35.4557 30.383 35.4557V35.4028Z" fill="#8F99FF"/>
<path d="M11.1494 26.5787C12.842 26.5787 14.2142 25.2066 14.2142 23.5139C14.2142 21.8213 12.842 20.4492 11.1494 20.4492C9.45684 20.4492 8.08472 21.8213 8.08472 23.5139C8.08472 25.2066 9.45684 26.5787 11.1494 26.5787Z" fill="#272C87"/>
<path d="M11.1493 28.1112C8.61301 28.1112 6.55225 26.0504 6.55225 23.5141C6.55225 20.9778 8.61301 18.917 11.1493 18.917C13.6857 18.917 15.7464 20.9778 15.7464 23.5141C15.7464 26.0504 13.6857 28.1112 11.1493 28.1112ZM11.1493 21.9817C10.3039 21.9817 9.61698 22.6686 9.61698 23.5141C9.61698 24.3595 10.3039 25.0465 11.1493 25.0465C11.9948 25.0465 12.6817 24.3595 12.6817 23.5141C12.6817 22.6686 11.9948 21.9817 11.1493 21.9817Z" fill="#8F99FF"/>
<path d="M37.8336 35.4025C36.9882 35.4025 36.3013 34.7155 36.3013 33.8701V26.631C36.3013 25.7856 36.9882 25.0986 37.8336 25.0986C38.6791 25.0986 39.366 25.7856 39.366 26.631V33.8701C39.366 34.7155 38.6791 35.4025 37.8336 35.4025Z" fill="#8F99FF"/>
<path d="M37.8336 67.6886C36.9882 67.6886 36.3013 67.0017 36.3013 66.1562V58.4415C36.3013 57.5961 36.9882 56.9092 37.8336 56.9092C38.6791 56.9092 39.366 57.5961 39.366 58.4415V66.1562C39.366 67.0017 38.6791 67.6886 37.8336 67.6886Z" fill="#8F99FF"/>
<path d="M37.8335 73.8178C37.8335 73.8178 37.4108 73.8178 37.2523 73.7121C37.0938 73.6592 36.8824 73.5007 36.7767 73.395C36.4597 73.1308 36.354 72.7081 36.354 72.2854C36.354 72.1797 36.354 72.074 36.354 71.9684C36.354 71.8627 36.354 71.757 36.4597 71.6513C36.4597 71.5456 36.5654 71.4928 36.6182 71.3871C36.671 71.2814 36.7239 71.2286 36.8296 71.1758C36.8824 71.1229 36.9881 71.0172 37.0409 70.9644C37.0938 70.9116 37.1994 70.8587 37.3051 70.8059C37.4108 70.8059 37.5165 70.753 37.5693 70.7002C37.7807 70.7002 37.992 70.7002 38.1506 70.7002C38.2562 70.7002 38.3619 70.7002 38.4148 70.8059C38.5204 70.8059 38.5733 70.9116 38.679 70.9644C38.7847 71.0172 38.8375 71.0701 38.8903 71.1758C39.1545 71.44 39.3659 71.8627 39.3659 72.2854C39.3659 72.3911 39.3659 72.4968 39.3659 72.6024C39.3659 72.7081 39.3131 72.8138 39.2602 72.9195C39.2602 73.0252 39.1545 73.078 39.1017 73.1837C39.0489 73.2894 38.996 73.3422 38.8903 73.395C38.5733 73.7121 38.2034 73.8706 37.7807 73.8706L37.8335 73.8178Z" fill="#8F99FF"/>
<path d="M37.8335 21.9817C37.8335 21.9817 37.4108 21.9817 37.2523 21.876C37.0938 21.8232 36.8824 21.6647 36.7767 21.559C36.4597 21.242 36.354 20.8721 36.354 20.4494C36.354 20.3437 36.354 20.238 36.354 20.1323C36.354 20.0266 36.354 19.921 36.4597 19.8681C36.4597 19.7624 36.5654 19.7096 36.6182 19.6039C36.671 19.4982 36.7239 19.4454 36.8296 19.3926C36.8824 19.3397 36.9881 19.234 37.0409 19.1812C37.0938 19.1284 37.1994 19.0755 37.3051 19.0227C37.4108 19.0227 37.5165 18.9698 37.5693 18.917C37.7807 18.917 37.992 18.917 38.1506 18.917C38.2562 18.917 38.3619 18.9698 38.4148 19.0227C38.5204 19.0227 38.5733 19.1284 38.679 19.1812C38.7847 19.234 38.8375 19.2869 38.8903 19.3926C38.9432 19.4454 39.0489 19.5511 39.1017 19.6039C39.1545 19.7096 39.2074 19.7624 39.2602 19.8681C39.2602 19.9738 39.3131 20.0266 39.3659 20.1323C39.3659 20.238 39.3659 20.3437 39.3659 20.4494C39.3659 20.555 39.3659 20.6607 39.3659 20.7664C39.3659 20.8721 39.3131 20.9778 39.2602 21.0306C39.2602 21.1363 39.1545 21.1891 39.1017 21.2948C39.0489 21.4005 38.996 21.4533 38.8903 21.559C38.5733 21.8232 38.2034 21.9817 37.7807 21.9817H37.8335Z" fill="#8F99FF"/>
<path d="M14.6368 35.4026H8.08461C7.23917 35.4026 6.55225 34.7157 6.55225 33.8703C6.55225 33.0248 7.23917 32.3379 8.08461 32.3379H14.6368C15.4822 32.3379 16.1692 33.0248 16.1692 33.8703C16.1692 34.7157 15.4822 35.4026 14.6368 35.4026Z" fill="#8F99FF"/>
<path d="M8.45442 43.593H1.90224C1.0568 43.593 0.369873 42.9061 0.369873 42.0607C0.369873 41.2152 1.0568 40.5283 1.90224 40.5283H8.45442C9.29986 40.5283 9.98678 41.2152 9.98678 42.0607C9.98678 42.9061 9.29986 43.593 8.45442 43.593Z" fill="#8F99FF"/>
<path d="M8.45442 59.9729H1.90224C1.0568 59.9729 0.369873 59.286 0.369873 58.4406C0.369873 57.5951 1.0568 56.9082 1.90224 56.9082H8.45442C9.29986 56.9082 9.98678 57.5951 9.98678 58.4406C9.98678 59.286 9.29986 59.9729 8.45442 59.9729Z" fill="#8F99FF"/>
<path d="M14.6367 51.7835H9.61684C8.7714 51.7835 8.08447 51.0966 8.08447 50.2511C8.08447 49.4057 8.7714 48.7188 9.61684 48.7188H14.6367C15.4821 48.7188 16.169 49.4057 16.169 50.2511C16.169 51.0966 15.4821 51.7835 14.6367 51.7835Z" fill="#8F99FF"/>
<path d="M78.0977 35.4026H71.5455C70.7001 35.4026 70.0132 34.7157 70.0132 33.8703C70.0132 33.0248 70.7001 32.3379 71.5455 32.3379H78.0977C78.9432 32.3379 79.6301 33.0248 79.6301 33.8703C79.6301 34.7157 78.9432 35.4026 78.0977 35.4026Z" fill="#8F99FF"/>
<path d="M71.9154 43.593H65.3632C64.5177 43.593 63.8308 42.9061 63.8308 42.0607C63.8308 41.2152 64.5177 40.5283 65.3632 40.5283H71.9154C72.7608 40.5283 73.4477 41.2152 73.4477 42.0607C73.4477 42.9061 72.7608 43.593 71.9154 43.593Z" fill="#8F99FF"/>
<path d="M71.9154 59.9729H65.3632C64.5177 59.9729 63.8308 59.286 63.8308 58.4406C63.8308 57.5951 64.5177 56.9082 65.3632 56.9082H71.9154C72.7608 56.9082 73.4477 57.5951 73.4477 58.4406C73.4477 59.286 72.7608 59.9729 71.9154 59.9729Z" fill="#8F99FF"/>
<path d="M78.0976 51.7835H73.0778C72.2323 51.7835 71.5454 51.0966 71.5454 50.2511C71.5454 49.4057 72.2323 48.7188 73.0778 48.7188H78.0976C78.943 48.7188 79.63 49.4057 79.63 50.2511C79.63 51.0966 78.943 51.7835 78.0976 51.7835Z" fill="#8F99FF"/>
<path d="M32.7082 29.3264H24.4122C23.5668 29.3264 22.8799 28.6395 22.8799 27.7941C22.8799 26.9486 23.5668 26.2617 24.4122 26.2617H32.7082C33.5536 26.2617 34.2405 26.9486 34.2405 27.7941C34.2405 28.6395 33.5536 29.3264 32.7082 29.3264Z" fill="#8F99FF"/>
<path d="M52.0477 66.6311H45.0199C44.1745 66.6311 43.4875 65.9442 43.4875 65.0988C43.4875 64.2533 44.1745 63.5664 45.0199 63.5664H52.0477C52.8931 63.5664 53.58 64.2533 53.58 65.0988C53.58 65.9442 52.8931 66.6311 52.0477 66.6311Z" fill="#8F99FF"/>
<path d="M24.3592 65.5745H19.4979C18.6525 65.5745 17.9656 64.8876 17.9656 64.0421C17.9656 63.1967 18.6525 62.5098 19.4979 62.5098H24.3592C25.2047 62.5098 25.8916 63.1967 25.8916 64.0421C25.8916 64.8876 25.2047 65.5745 24.3592 65.5745Z" fill="#8F99FF"/>
<path d="M17.4371 30.2244C17.4371 30.2244 17.0144 30.2244 16.8559 30.1187C16.6974 30.0659 16.486 29.9074 16.3803 29.8017C16.0633 29.5375 15.9048 29.1148 15.9048 28.6921C15.9048 28.2693 16.0633 27.8995 16.3803 27.5824C16.9616 27.0012 17.9656 27.0012 18.5468 27.5824C18.811 27.8466 19.0224 28.2693 19.0224 28.6921C19.0224 29.1148 18.8638 29.4847 18.5468 29.8017C18.2298 30.1187 17.8599 30.2773 17.4371 30.2773V30.2244Z" fill="#8F99FF"/>
<path d="M31.2814 73.8177H26.2616C25.4162 73.8177 24.7292 73.1307 24.7292 72.2853C24.7292 71.4399 25.4162 70.7529 26.2616 70.7529H31.2814C32.1269 70.7529 32.8138 71.4399 32.8138 72.2853C32.8138 73.1307 32.1269 73.8177 31.2814 73.8177Z" fill="#8F99FF"/>
<path d="M31.2815 66.1556H30.3832C29.5378 66.1556 28.8508 65.4686 28.8508 64.6232C28.8508 63.7777 29.5378 63.0908 30.3832 63.0908H31.2815C32.1269 63.0908 32.8138 63.7777 32.8138 64.6232C32.8138 65.4686 32.1269 66.1556 31.2815 66.1556Z" fill="#8F99FF"/>
<path d="M50.3568 21.6643H43.0648C42.2194 21.6643 41.5325 20.9774 41.5325 20.132C41.5325 19.2865 42.2194 18.5996 43.0648 18.5996H50.3568C51.2022 18.5996 51.8891 19.2865 51.8891 20.132C51.8891 20.9774 51.2022 21.6643 50.3568 21.6643Z" fill="#8F99FF"/>
<path d="M52.6815 73.8177H43.5402C42.6947 73.8177 42.0078 73.1307 42.0078 72.2853C42.0078 71.4399 42.6947 70.7529 43.5402 70.7529H52.6815C53.527 70.7529 54.2139 71.4399 54.2139 72.2853C54.2139 73.1307 53.527 73.8177 52.6815 73.8177Z" fill="#8F99FF"/>
<path d="M53.0514 53.8443C52.206 53.8443 51.519 53.1573 51.519 52.3119V40.0001C51.519 39.1547 52.206 38.4678 53.0514 38.4678C53.8969 38.4678 54.5838 39.1547 54.5838 40.0001V52.3119C54.5838 53.1573 53.8969 53.8443 53.0514 53.8443Z" fill="#8F99FF"/>
<path d="M40.7396 53.8446C39.8942 53.8446 39.2073 53.1577 39.2073 52.3122V46.1828C39.2073 45.3373 39.8942 44.6504 40.7396 44.6504H43.8044C44.6498 44.6504 45.3367 45.3373 45.3367 46.1828C45.3367 47.0282 44.6498 47.7151 43.8044 47.7151H42.272V52.3122C42.272 53.1577 41.5851 53.8446 40.7396 53.8446Z" fill="#8F99FF"/>
<path d="M43.8571 47.662H40.7924C39.9469 47.662 39.26 46.975 39.26 46.1296V40.0001C39.26 39.1547 39.9469 38.4678 40.7924 38.4678H43.8571C46.3934 38.4678 48.4542 40.5285 48.4542 43.0649C48.4542 45.6012 46.3934 47.662 43.8571 47.662ZM42.3247 44.5972H43.8571C44.7025 44.5972 45.3895 43.9103 45.3895 43.0649C45.3895 42.2194 44.7025 41.5325 43.8571 41.5325H42.3247V44.5972Z" fill="#8F99FF"/>
<path d="M26.8954 53.8442C26.8954 53.8442 26.5784 53.8442 26.4199 53.7913C25.6273 53.5271 25.1517 52.6817 25.4159 51.8891L29.2732 39.5773C29.5374 38.7847 30.3829 38.3092 31.1755 38.5734C31.9681 38.8376 32.4437 39.683 32.1795 40.4756L28.3221 52.7874C28.1108 53.4215 27.5295 53.8442 26.8426 53.8442H26.8954Z" fill="#8F99FF"/>
<path d="M34.6102 53.8442C33.9761 53.8442 33.342 53.4215 33.1307 52.7874L29.2733 40.4756C29.0091 39.683 29.4847 38.7847 30.2773 38.5734C31.0699 38.3092 31.9682 38.7847 32.1795 39.5773L36.0369 51.8891C36.3011 52.6817 35.8255 53.58 35.0329 53.7913C34.8744 53.7913 34.7159 53.8442 34.5573 53.8442H34.6102Z" fill="#8F99FF"/>
<path d="M32.9721 50.4622H28.5863C27.7409 50.4622 27.054 49.7753 27.054 48.9298C27.054 48.0844 27.7409 47.3975 28.5863 47.3975H32.9721C33.8175 47.3975 34.5044 48.0844 34.5044 48.9298C34.5044 49.7753 33.8175 50.4622 32.9721 50.4622Z" fill="#8F99FF"/>
<path d="M65.3632 59.9734H14.6366C13.7912 59.9734 13.1042 59.2865 13.1042 58.441V33.8175C13.1042 32.9721 13.7912 32.2852 14.6366 32.2852H65.416C66.2614 32.2852 66.9484 32.9721 66.9484 33.8175V58.441C66.9484 59.2865 66.2614 59.9734 65.416 59.9734H65.3632ZM16.169 56.9087H63.8308V35.3499H16.169V56.9087Z" fill="url(#paint0_linear_2736_21033)"/>
<path d="M78.4677 63.8311C77.6222 63.8311 76.9353 63.1441 76.9353 62.2987V27.7941C76.9353 26.9486 77.6222 26.2617 78.4677 26.2617C79.3131 26.2617 80 26.9486 80 27.7941V62.2987C80 63.1441 79.3131 63.8311 78.4677 63.8311Z" fill="#9578FF"/>
<path d="M1.53236 63.8311C0.686922 63.8311 0 63.1441 0 62.2987V27.7941C0 26.9486 0.686922 26.2617 1.53236 26.2617C2.37781 26.2617 3.06473 26.9486 3.06473 27.7941V62.2987C3.06473 63.1441 2.37781 63.8311 1.53236 63.8311Z" fill="#9578FF"/>
</g>
<defs>
<linearGradient id="paint0_linear_2736_21033" x1="40.0263" y1="32.2852" x2="40.0263" y2="59.9734" gradientUnits="userSpaceOnUse">
<stop stop-color="#6469C7"/>
<stop offset="1" stop-color="#9A83FF"/>
</linearGradient>
<clipPath id="clip0_2736_21033">
<rect width="80" height="80" fill="white"/>
</clipPath>
</defs>
</svg>
