<svg viewBox="0 0 75 80" fill="none" xmlns="http://www.w3.org/2000/svg">
<g clip-path="url(#clip0_2736_21101)">
<path d="M40.262 80C18.0595 80 0 62.0753 0 40.0264C0 37.0126 0.318697 33.9458 1.00921 31.0377C1.22167 30.1917 2.01841 29.7158 2.86827 29.8744C3.71813 30.0859 4.19618 30.879 4.03683 31.725C3.39943 34.4217 3.08074 37.2241 3.08074 40.0264C3.08074 59.8546 18.9093 76.1401 38.7217 76.9332V3.11963C26.0269 3.64838 14.3414 10.6808 7.96742 21.7317C7.17068 23.1593 6.42705 24.5869 5.84278 26.1203C5.52408 26.9134 4.6211 27.2835 3.82436 26.9663C3.02762 26.649 2.65581 25.7502 2.9745 24.957C3.66501 23.3179 4.40864 21.7317 5.31161 20.1983C12.4823 7.71976 25.8676 0 40.262 0C41.1119 0 41.8024 0.687376 41.8024 1.53338V78.4666C41.8024 79.3126 41.1119 80 40.262 80Z" fill="url(#paint0_linear_2736_21101)"/>
<path d="M40.2619 79.9997C39.9432 79.9997 39.5714 79.8939 39.3059 79.6296C38.8809 79.3123 29.2669 71.3282 26.7704 59.3255C25.5488 53.4564 24.9114 46.7412 24.9114 39.9204C24.9114 33.0995 25.5488 26.4372 26.7704 20.5152C29.2138 8.61831 38.8809 0.687048 39.3059 0.369798C39.9432 -0.158953 40.9525 -0.0532031 41.4836 0.581298C42.0148 1.2158 41.9085 2.22043 41.2712 2.74918C41.1649 2.80205 32.0821 10.3632 29.7981 21.2555C28.6295 26.9131 27.9921 33.4167 27.9921 40.0261C27.9921 46.6355 28.6295 53.0863 29.7981 58.7968C32.0289 69.689 41.1649 77.2502 41.2712 77.303C41.9085 77.8318 42.0148 78.8364 41.4836 79.4709C41.1649 79.841 40.74 80.0526 40.2619 80.0526V79.9997Z" fill="url(#paint1_linear_2736_21101)"/>
<path d="M26.2395 71.4344C25.9208 71.4344 25.549 71.3287 25.2834 71.0643C20.7154 67.363 17.6878 63.5032 16.1474 59.5904C13.8103 53.6155 12.5886 46.8475 12.5886 39.9737C12.5886 33.1 13.8103 26.332 16.1474 20.3571C17.6347 16.4972 20.7154 12.6373 25.1771 8.98894C25.8145 8.46019 26.8238 8.56594 27.3549 9.20044C27.8861 9.83494 27.7798 10.8396 27.1424 11.3683C23.0525 14.6994 20.3436 18.1363 19.0157 21.4675C16.8379 27.0722 15.6694 33.4701 15.6694 39.9737C15.6694 46.4774 16.8379 52.8753 19.0157 58.48C20.3436 61.864 23.1056 65.3009 27.2487 68.6849C27.8861 69.2137 27.9923 70.2183 27.4611 70.8528C27.1424 71.2229 26.7175 71.4344 26.2395 71.4344Z" fill="url(#paint2_linear_2736_21101)"/>
<path d="M33.3569 12.2141C33.3569 12.2141 33.3569 12.2141 33.3038 12.2141C27.5142 11.9498 22.1494 11.3153 17.3159 10.3106C16.7316 10.2049 16.2535 9.72901 16.0942 9.14739C15.988 8.56576 16.2004 7.93126 16.6785 7.56114C23.5836 2.59088 31.7635 0 40.262 0C41.1119 0 41.8024 0.687376 41.8024 1.53338C41.8024 2.37938 41.1119 3.06675 40.262 3.06675C33.6756 3.06675 27.3548 4.75876 21.7776 7.98414C25.3895 8.56576 29.3732 8.93589 33.4632 9.14739C34.313 9.14739 34.9504 9.88764 34.9504 10.7865C34.9504 11.6325 34.2068 12.267 33.4101 12.267L33.3569 12.2141Z" fill="url(#paint3_linear_2736_21101)"/>
<path d="M40.2621 26.649C27.8329 26.649 15.7224 25.1685 6.21463 22.419C5.73659 22.3133 5.36478 21.9432 5.20543 21.5202C5.04608 21.0972 5.04608 20.5684 5.31166 20.1983C8.17993 15.2809 12.1105 10.8923 16.7316 7.56114C23.5836 2.59088 31.7635 0 40.2621 0C41.1119 0 41.8025 0.687376 41.8025 1.53338C41.8025 2.37938 41.1119 3.06675 40.2621 3.06675C32.4009 3.06675 24.8584 5.49901 18.5376 10.0463C14.8195 12.7429 11.5263 16.1269 9.02979 19.9868C18.0064 22.3133 29.0015 23.5823 40.2621 23.5823C41.1119 23.5823 41.8025 24.2697 41.8025 25.1157C41.8025 25.9617 41.1119 26.649 40.2621 26.649Z" fill="url(#paint4_linear_2736_21101)"/>
<path d="M40.2621 80.0007C31.7635 80.0007 23.5837 77.4098 16.7317 72.4396C16.2536 72.0694 15.9881 71.4878 16.1474 70.8533C16.2536 70.2717 16.7317 69.7958 17.3691 69.6901C24.0617 68.3682 32.0291 67.6279 40.3153 67.6279C41.1651 67.6279 41.8556 68.3153 41.8556 69.1613C41.8556 70.0073 41.1651 70.6947 40.3153 70.6947C33.7288 70.6947 27.408 71.1706 21.7777 72.0166C27.408 75.2419 33.7288 76.9339 40.3153 76.9339C41.1651 76.9339 41.8556 77.6213 41.8556 78.4673C41.8556 79.3133 41.1651 80.0007 40.3153 80.0007H40.2621Z" fill="url(#paint5_linear_2736_21101)"/>
<path d="M40.2621 80.0005C31.7635 80.0005 23.5836 77.4096 16.7317 72.4393C12.1105 69.1082 8.12683 64.7724 5.31168 59.8551C5.09921 59.4321 5.0461 58.9562 5.20545 58.5332C5.36479 58.1102 5.73661 57.74 6.21465 57.6343C15.7756 54.8848 27.886 53.4043 40.2621 53.4043C41.112 53.4043 41.8025 54.0917 41.8025 54.9377C41.8025 55.7837 41.112 56.4711 40.2621 56.4711C28.9484 56.4711 17.9533 57.74 9.02981 60.0666C11.5263 63.9264 14.8195 67.3104 18.5376 70.0071C24.9115 74.5543 32.4009 76.9866 40.2621 76.9866C41.112 76.9866 41.8025 77.674 41.8025 78.52C41.8025 79.366 41.112 80.0533 40.2621 80.0533V80.0005Z" fill="url(#paint6_linear_2736_21101)"/>
<path d="M40.262 41.5599H1.54037C0.69051 41.5599 0 40.8725 0 40.0265C0 39.1805 0.69051 38.4932 1.54037 38.4932H40.262C41.1119 38.4932 41.8024 39.1805 41.8024 40.0265C41.8024 40.8725 41.1119 41.5599 40.262 41.5599Z" fill="url(#paint7_linear_2736_21101)"/>
<path d="M40.262 80C39.4122 80 38.7217 79.3126 38.7217 78.4666V1.53338C38.7217 0.687376 39.4122 0 40.262 0C41.1119 0 41.8024 0.687376 41.8024 1.53338V78.4666C41.8024 79.3126 41.1119 80 40.262 80Z" fill="url(#paint8_linear_2736_21101)"/>
<path d="M47.7513 20.5153H42.2273C41.8023 20.5153 41.4305 20.3567 41.1118 20.0923L32.2414 11.315C31.6572 10.7334 31.6572 9.72878 32.2414 9.14716C32.8257 8.56553 33.8349 8.56553 34.4192 9.14716L42.8115 17.5014H47.6982C48.5481 17.5014 49.2386 18.1888 49.2386 19.0348C49.2386 19.8808 48.5481 20.5682 47.6982 20.5682L47.7513 20.5153Z" fill="#58A8FF"/>
<path d="M53.9129 34.6335H35.9597C35.5348 34.6335 35.1629 34.4748 34.8442 34.2105L25.9739 25.4332C25.3896 24.8516 25.3896 23.8469 25.9739 23.2653C26.5581 22.6837 27.5673 22.6837 28.1516 23.2653L36.544 31.6196H53.8598C54.7097 31.6196 55.4002 32.307 55.4002 33.153C55.4002 33.999 54.7097 34.6863 53.8598 34.6863L53.9129 34.6335Z" fill="#0ADCBF"/>
<path d="M47.7515 50.3367H35.0036C34.5787 50.3367 34.2069 50.1781 33.8882 49.8609L25.0178 41.0836C24.4335 40.502 24.4335 39.4973 25.0178 38.9157C25.6021 38.3341 26.6113 38.3341 27.1956 38.9157L35.5879 47.27H47.6984C48.5482 47.27 49.2388 47.9573 49.2388 48.8033C49.2388 49.6493 48.5482 50.3367 47.6984 50.3367H47.7515Z" fill="#80D8D4"/>
<path d="M53.9128 65.9354H36.1189C35.6939 65.9354 35.3221 65.7767 35.0034 65.4595L26.133 56.6822C25.5488 56.1006 25.5488 55.096 26.133 54.5143C26.7173 53.9327 27.7265 53.9327 28.3108 54.5143L36.7031 62.8686H53.8597C54.7095 62.8686 55.4 63.556 55.4 64.402C55.4 65.248 54.7095 65.9354 53.8597 65.9354H53.9128Z" fill="url(#paint9_linear_2736_21101)"/>
<path d="M33.3569 14.8048C30.8074 14.8048 28.7358 12.7426 28.7358 10.2046C28.7358 7.66662 30.8074 5.60449 33.3569 5.60449C35.9065 5.60449 37.9781 7.66662 37.9781 10.2046C37.9781 12.7426 35.9065 14.8048 33.3569 14.8048ZM33.3569 8.61837C32.5071 8.61837 31.8166 9.30575 31.8166 10.1517C31.8166 10.9978 32.5071 11.6851 33.3569 11.6851C34.2068 11.6851 34.8973 10.9978 34.8973 10.1517C34.8973 9.30575 34.2068 8.61837 33.3569 8.61837Z" fill="#58A8FF"/>
<path d="M27.3018 29.0284C24.7522 29.0284 22.6807 26.9663 22.6807 24.4283C22.6807 21.8903 24.7522 19.8281 27.3018 19.8281C29.8513 19.8281 31.9229 21.8903 31.9229 24.4283C31.9229 26.9663 29.8513 29.0284 27.3018 29.0284ZM27.3018 22.8949C26.4519 22.8949 25.7614 23.5823 25.7614 24.4283C25.7614 25.2743 26.4519 25.9616 27.3018 25.9616C28.1516 25.9616 28.8421 25.2743 28.8421 24.4283C28.8421 23.5823 28.1516 22.8949 27.3018 22.8949Z" fill="#0ADCBF"/>
<path d="M26.1331 44.627C23.5835 44.627 21.512 42.5649 21.512 40.0269C21.512 37.4889 23.5835 35.4268 26.1331 35.4268C28.6826 35.4268 30.7542 37.4889 30.7542 40.0269C30.7542 42.5649 28.6826 44.627 26.1331 44.627ZM26.1331 38.4935C25.2832 38.4935 24.5927 39.1809 24.5927 40.0269C24.5927 40.8729 25.2832 41.5603 26.1331 41.5603C26.9829 41.5603 27.6734 40.8729 27.6734 40.0269C27.6734 39.1809 26.9829 38.4935 26.1331 38.4935Z" fill="#80D8D4"/>
<path d="M27.3018 60.2247C24.7522 60.2247 22.6807 58.1626 22.6807 55.6246C22.6807 53.0865 24.7522 51.0244 27.3018 51.0244C29.8513 51.0244 31.9229 53.0865 31.9229 55.6246C31.9229 58.1626 29.8513 60.2247 27.3018 60.2247ZM27.3018 54.0912C26.4519 54.0912 25.7614 54.7785 25.7614 55.6246C25.7614 56.4706 26.4519 57.1579 27.3018 57.1579C28.1516 57.1579 28.8421 56.4706 28.8421 55.6246C28.8421 54.7785 28.1516 54.0912 27.3018 54.0912Z" fill="url(#paint10_linear_2736_21101)"/>
<path d="M73.4065 26.6492H51.7351C51.2039 26.6492 50.7259 26.3848 50.4603 25.9618L46.4766 19.8283C46.1579 19.2996 46.1579 18.6651 46.4766 18.1363L50.4603 12.0028C50.7259 11.5798 51.257 11.3154 51.7351 11.3154H73.4065C74.2563 11.3154 74.9468 12.0028 74.9468 12.8488V25.1687C74.9468 26.0147 74.2563 26.7021 73.4065 26.7021V26.6492ZM52.5849 23.5824H71.8661V14.3293H52.5849L49.5573 18.9294L52.5849 23.5296V23.5824Z" fill="#58A8FF"/>
<path d="M67.2449 20.516H53.9659C53.116 20.516 52.4255 19.8286 52.4255 18.9826C52.4255 18.1366 53.116 17.4492 53.9659 17.4492H67.2449C68.0948 17.4492 68.7853 18.1366 68.7853 18.9826C68.7853 19.8286 68.0948 20.516 67.2449 20.516Z" fill="#58A8FF"/>
<path d="M73.4065 56.4705H51.7351C51.2039 56.4705 50.7259 56.2061 50.4603 55.7831L46.4766 49.6496C46.1579 49.1209 46.1579 48.4864 46.4766 47.9576L50.4603 41.8241C50.7259 41.4011 51.257 41.1367 51.7351 41.1367H73.4065C74.2563 41.1367 74.9468 41.8241 74.9468 42.6701V54.99C74.9468 55.836 74.2563 56.5234 73.4065 56.5234V56.4705ZM52.5849 53.4037H71.8661V44.1506H52.5849L49.5573 48.7507L52.5849 53.3509V53.4037Z" fill="#80D8D4"/>
<path d="M67.2451 50.3373H64.005C63.1551 50.3373 62.4646 49.6499 62.4646 48.8039C62.4646 47.9579 63.1551 47.2705 64.005 47.2705H67.2451C68.0949 47.2705 68.7854 47.9579 68.7854 48.8039C68.7854 49.6499 68.0949 50.3373 67.2451 50.3373ZM57.7904 50.3373H53.9129C53.0631 50.3373 52.3726 49.6499 52.3726 48.8039C52.3726 47.9579 53.0631 47.2705 53.9129 47.2705H57.7904C58.6403 47.2705 59.3308 47.9579 59.3308 48.8039C59.3308 49.6499 58.6403 50.3373 57.7904 50.3373Z" fill="#80D8D4"/>
<path d="M73.4065 37.4356H56.3563C55.8782 37.4356 55.4533 37.2241 55.1346 36.854L52.6913 33.7872C52.2663 33.2056 52.2663 32.4125 52.6913 31.8837L55.1346 28.817C55.4533 28.4469 55.8782 28.2354 56.3563 28.2354H73.4065C74.2564 28.2354 74.9469 28.9227 74.9469 29.7687V35.9022C74.9469 36.7482 74.2564 37.4356 73.4065 37.4356ZM57.153 34.3689H71.9193V31.3021H57.153L55.9313 32.8355L57.153 34.3689Z" fill="#0ADCBF"/>
<path d="M73.4064 69.3722H56.3561C55.8781 69.3722 55.4 69.1078 55.0813 68.7377L52.638 65.3008C52.2662 64.772 52.2662 64.0318 52.638 63.503L55.0813 60.0661C55.3469 59.6431 55.825 59.4316 56.3561 59.4316H73.4064C74.2563 59.4316 74.9468 60.119 74.9468 60.965V67.8917C74.9468 68.7377 74.2563 69.425 73.4064 69.425V69.3722ZM57.206 66.3054H71.9192V62.4455H57.206L55.825 64.349L57.206 66.2525V66.3054Z" fill="url(#paint11_linear_2736_21101)"/>
</g>
<defs>
<linearGradient id="paint0_linear_2736_21101" x1="20.9012" y1="0" x2="20.9012" y2="80" gradientUnits="userSpaceOnUse">
<stop stop-color="#007AFF"/>
<stop offset="0.504808" stop-color="#83BEFF"/>
<stop offset="1" stop-color="#58A8FF"/>
</linearGradient>
<linearGradient id="paint1_linear_2736_21101" x1="33.3675" y1="0.03125" x2="33.3675" y2="80.0526" gradientUnits="userSpaceOnUse">
<stop stop-color="#007AFF"/>
<stop offset="0.504808" stop-color="#83BEFF"/>
<stop offset="1" stop-color="#58A8FF"/>
</linearGradient>
<linearGradient id="paint2_linear_2736_21101" x1="20.1949" y1="8.65039" x2="20.1949" y2="71.4344" gradientUnits="userSpaceOnUse">
<stop stop-color="#007AFF"/>
<stop offset="0.504808" stop-color="#83BEFF"/>
<stop offset="1" stop-color="#58A8FF"/>
</linearGradient>
<linearGradient id="paint3_linear_2736_21101" x1="28.9349" y1="0" x2="28.9349" y2="12.267" gradientUnits="userSpaceOnUse">
<stop stop-color="#007AFF"/>
<stop offset="0.504808" stop-color="#83BEFF"/>
<stop offset="1" stop-color="#58A8FF"/>
</linearGradient>
<linearGradient id="paint4_linear_2736_21101" x1="23.4496" y1="0" x2="23.4496" y2="26.649" gradientUnits="userSpaceOnUse">
<stop stop-color="#007AFF"/>
<stop offset="0.504808" stop-color="#83BEFF"/>
<stop offset="1" stop-color="#58A8FF"/>
</linearGradient>
<linearGradient id="paint5_linear_2736_21101" x1="28.9783" y1="67.6279" x2="28.9783" y2="80.0007" gradientUnits="userSpaceOnUse">
<stop stop-color="#007AFF"/>
<stop offset="0.504808" stop-color="#83BEFF"/>
<stop offset="1" stop-color="#58A8FF"/>
</linearGradient>
<linearGradient id="paint6_linear_2736_21101" x1="23.4576" y1="53.4043" x2="23.4576" y2="80.0533" gradientUnits="userSpaceOnUse">
<stop stop-color="#007AFF"/>
<stop offset="0.504808" stop-color="#83BEFF"/>
<stop offset="1" stop-color="#58A8FF"/>
</linearGradient>
<linearGradient id="paint7_linear_2736_21101" x1="20.9012" y1="38.4932" x2="20.9012" y2="41.5599" gradientUnits="userSpaceOnUse">
<stop stop-color="#007AFF"/>
<stop offset="0.504808" stop-color="#83BEFF"/>
<stop offset="1" stop-color="#58A8FF"/>
</linearGradient>
<linearGradient id="paint8_linear_2736_21101" x1="40.262" y1="0" x2="40.262" y2="80" gradientUnits="userSpaceOnUse">
<stop stop-color="#007AFF"/>
<stop offset="0.504808" stop-color="#83BEFF"/>
<stop offset="1" stop-color="#58A8FF"/>
</linearGradient>
<linearGradient id="paint9_linear_2736_21101" x1="40.5474" y1="54.0781" x2="40.5474" y2="65.9354" gradientUnits="userSpaceOnUse">
<stop stop-color="#007AFF"/>
<stop offset="0.504808" stop-color="#83BEFF"/>
<stop offset="1" stop-color="#58A8FF"/>
</linearGradient>
<linearGradient id="paint10_linear_2736_21101" x1="27.3018" y1="51.0244" x2="27.3018" y2="60.2247" gradientUnits="userSpaceOnUse">
<stop stop-color="#007AFF"/>
<stop offset="0.504808" stop-color="#83BEFF"/>
<stop offset="1" stop-color="#58A8FF"/>
</linearGradient>
<linearGradient id="paint11_linear_2736_21101" x1="63.653" y1="59.4316" x2="63.653" y2="69.425" gradientUnits="userSpaceOnUse">
<stop stop-color="#007AFF"/>
<stop offset="0.504808" stop-color="#83BEFF"/>
<stop offset="1" stop-color="#58A8FF"/>
</linearGradient>
<clipPath id="clip0_2736_21101">
<rect width="75" height="80" fill="white"/>
</clipPath>
</defs>
</svg>
