<svg viewBox="0 0 18 22" fill="none" xmlns="http://www.w3.org/2000/svg">
<path d="M12.5 10V9C12.5 8.60218 12.658 8.22064 12.9393 7.93934C13.2206 7.65804 13.6022 7.5 14 7.5C14.3978 7.5 14.7794 7.65804 15.0607 7.93934C15.342 8.22064 15.5 8.60218 15.5 9V10M9.5 1H5.5L6 2H9L9.5 1ZM12 14.5H16C16.2652 14.5 16.5196 14.3946 16.7071 14.2071C16.8946 14.0196 17 13.7652 17 13.5V11.5C17 11.2348 16.8946 10.9804 16.7071 10.7929C16.5196 10.6054 16.2652 10.5 16 10.5H12C11.7348 10.5 11.4804 10.6054 11.2929 10.7929C11.1054 10.9804 11 11.2348 11 11.5V13.5C11 13.7652 11.1054 14.0196 11.2929 14.2071C11.4804 14.3946 11.7348 14.5 12 14.5Z" stroke="currentColor" stroke-width="1.5" stroke-linecap="round" stroke-linejoin="round"/>
<path d="M13.997 5C13.983 3.293 13.888 2.353 13.267 1.732C12.537 1 11.358 1 9 1H6C3.643 1 2.464 1 1.732 1.732C1 2.464 1 3.643 1 6V16C1 18.357 1 19.535 1.732 20.268C2.464 21.001 3.643 21 6 21H9C11.357 21 12.536 21 13.268 20.268C13.888 19.648 13.983 18.707 13.998 17" stroke="currentColor" stroke-width="1.5" stroke-linecap="round" stroke-linejoin="round"/>
</svg>
