<svg  viewBox="0 0 24 24" fill="none" xmlns="http://www.w3.org/2000/svg">
<path d="M22 7.283C22 9.925 19.761 12.067 17 12.067C16.6747 12.067 16.3523 12.037 16.033 11.977C15.803 11.934 15.688 11.913 15.608 11.925C15.528 11.937 15.414 11.997 15.188 12.118C14.5409 12.4629 13.7963 12.5788 13.075 12.447C13.349 12.11 13.536 11.706 13.619 11.273C13.669 11.008 13.545 10.75 13.359 10.562C12.4912 9.69108 12.0027 8.51248 12 7.283C12 4.642 14.239 2.5 17 2.5C19.761 2.5 22 4.642 22 7.283Z" stroke="currentColor" stroke-width="1.5" stroke-linejoin="round"/>
<path d="M15.4919 7.5H15.4999M18.4919 7.5H18.4999" stroke="currentColor" stroke-width="1.5" stroke-linecap="round"/>
<path d="M7.50199 21.4996H4.71799C4.39455 21.5062 4.07311 21.4474 3.77299 21.3266C2.80699 20.9116 2.31599 20.3626 2.08799 20.0196C2.02611 19.9246 1.99571 19.8125 2.0011 19.6993C2.00648 19.586 2.04738 19.4773 2.11799 19.3886C3.23799 17.9006 5.83799 17.0026 7.50699 17.0026C9.17499 17.0026 11.771 17.9006 12.891 19.3886C13.032 19.5756 13.051 19.8246 12.921 20.0196C12.692 20.3626 12.201 20.9116 11.235 21.3266C10.9349 21.4474 10.6134 21.5062 10.29 21.4996H7.50199ZM10.285 11.7886C10.2842 12.5247 9.9911 13.2303 9.47015 13.7503C8.94921 14.2703 8.24306 14.5622 7.50699 14.5616C7.14236 14.5622 6.78119 14.4908 6.44413 14.3518C6.10706 14.2127 5.8007 14.0085 5.54254 13.751C5.28438 13.4935 5.07948 13.1877 4.93955 12.851C4.79961 12.5142 4.72739 12.1533 4.72699 11.7886C4.72739 11.424 4.79961 11.063 4.93955 10.7263C5.07948 10.3896 5.28438 10.0837 5.54254 9.82622C5.8007 9.56871 6.10706 9.36459 6.44413 9.2255C6.78119 9.08642 7.14236 9.0151 7.50699 9.01563C8.24306 9.0151 8.94921 9.30692 9.47015 9.82693C9.9911 10.3469 10.2842 11.0526 10.285 11.7886Z" stroke="currentColor" stroke-width="1.5" stroke-linecap="round" stroke-linejoin="round"/>
</svg>
